<mxfile host="app.diagrams.net" agent="Mozilla/5.0 (Windows NT 10.0; Win64; x64) AppleWebKit/537.36 (KHTML, like Gecko) Chrome/130.0.0.0 Safari/537.36" version="24.8.4">
  <diagram name="PÃ¡gina-1" id="Zw6OTp9_DQuHNDIzFU8s">
    <mxGraphModel dx="794" dy="378" grid="1" gridSize="10" guides="1" tooltips="1" connect="1" arrows="1" fold="1" page="1" pageScale="1" pageWidth="827" pageHeight="1169" math="0" shadow="0">
      <root>
        <mxCell id="0" />
        <mxCell id="1" parent="0" />
        <mxCell id="z40fJ3ub48EkseXWyAoc-42" value="" style="rounded=1;whiteSpace=wrap;html=1;strokeColor=#3333FF;" vertex="1" parent="1">
          <mxGeometry x="70" y="220" width="720" height="460" as="geometry" />
        </mxCell>
        <mxCell id="z40fJ3ub48EkseXWyAoc-45" style="edgeStyle=orthogonalEdgeStyle;rounded=0;orthogonalLoop=1;jettySize=auto;html=1;entryX=0;entryY=0.75;entryDx=0;entryDy=0;dashed=1;" edge="1" parent="1" source="z40fJ3ub48EkseXWyAoc-34" target="z40fJ3ub48EkseXWyAoc-2">
          <mxGeometry relative="1" as="geometry" />
        </mxCell>
        <mxCell id="z40fJ3ub48EkseXWyAoc-34" value="" style="rounded=1;whiteSpace=wrap;html=1;dashed=1;" vertex="1" parent="1">
          <mxGeometry x="100" y="260" width="100" height="380" as="geometry" />
        </mxCell>
        <mxCell id="z40fJ3ub48EkseXWyAoc-31" style="edgeStyle=orthogonalEdgeStyle;rounded=0;orthogonalLoop=1;jettySize=auto;html=1;dashed=1;" edge="1" parent="1" source="z40fJ3ub48EkseXWyAoc-14">
          <mxGeometry relative="1" as="geometry">
            <mxPoint x="511" y="430" as="targetPoint" />
            <Array as="points">
              <mxPoint x="511" y="481" />
              <mxPoint x="512" y="481" />
            </Array>
          </mxGeometry>
        </mxCell>
        <mxCell id="z40fJ3ub48EkseXWyAoc-14" value="" style="rounded=1;whiteSpace=wrap;html=1;dashed=1;glass=0;" vertex="1" parent="1">
          <mxGeometry x="221" y="530" width="539" height="110" as="geometry" />
        </mxCell>
        <mxCell id="z40fJ3ub48EkseXWyAoc-36" style="edgeStyle=orthogonalEdgeStyle;rounded=0;orthogonalLoop=1;jettySize=auto;html=1;dashed=1;" edge="1" parent="1" source="z40fJ3ub48EkseXWyAoc-2" target="z40fJ3ub48EkseXWyAoc-3">
          <mxGeometry relative="1" as="geometry">
            <Array as="points">
              <mxPoint x="599" y="420" />
              <mxPoint x="599" y="437" />
            </Array>
          </mxGeometry>
        </mxCell>
        <mxCell id="z40fJ3ub48EkseXWyAoc-2" value="" style="shape=image;verticalLabelPosition=bottom;labelBackgroundColor=default;verticalAlign=top;aspect=fixed;imageAspect=0;image=data:image/png,iVBORw0KGgoAAAANSUhEUgAAAQIAAACUCAYAAAB4Bye6AAAAAXNSR0IArs4c6QAAAARnQU1BAACxjwv8YQUAAAAJcEhZcwAADsMAAA7DAcdvqGQAADSzSURBVHhe7Z0FnFTVF8fP9rK7wC4s3SgGJSECIo2UxIKUICgoHdKtdEmndDcYICXdIAgoKaCEdMd2/+/vzp1ldnbivomNP/f7+Yy++2aZeTPz7rnnnHvCJZ5BCoXitcZV/F+hULzGKEGgUCiUIFAoFEoQKBQKhhIECoVCCQKFQqEEgUKhYChBoFAolCBQKBRKECgUCoYKMVYoNBD79C5FXT/LDmL42D1bfvLIW4TNJBc+TqsoQaBQSPJi3WiKvHSUoq79aSAICpDX22XJr9bX5JG/OD+XFlGCQKGwBpsi9/uWp5j718QJE7i6UY4Zf5JbQDZxIm2hfAQKhQXiwoPp6awOFPPgujhjhrhYutf9PYr8+5g4kbZQgkChsEDE8c0U9vtmrhVYJT6Oni/qS9G3LokTaQclCBQKc7BV/unC3nJCQBB99ypFnj+g6d+kBpQgUCjM8Gxud/Zf7RP6+aphFHk5bZkIShAoFCaIuXeNIi4fFyONMG3g2bxvxCBtoASBQmGC8FPbKPbJXTHSTszDm/R0xldpxkRQgkChMCYujuLCXrJJHCdO2EbUtb8oGsFHaQAlCBQKI7BlGH3zvBjZTsyj/+jl5mkUHxMtzqRelCBQKIyIC35CEWf3iZF9hJ/cSnFP74hR6kUJAoXCGNj1cbFiYD/3B1Si+PAQMUqdKEGgUDiZ+KgIerFxghilTpQgUCiMiDy1Qxw5jvCjP1LkhUNilPpQgkChMOLljrniyAoaUo9jXz6m0ANrHGpyOBKVfahQGHG7dXa+hWgJV78AytCoN738ZRp3LsqSZfBG8ipSSYySj5Ad8yji3AGKj45k8suV3HMWogxNB5KrTwb+vBIECoUhcTFMEOQUA/N4FniPsg7fRi/WjqTg7fPEWTlyLbxGLun8xMixxEeG8e3PePYI3b2MQnYtonhRO8EUHrneosD+a5QgUCgMibr8Oz0cWV+MzONZsCRlHbmDmwePxjSiyItHxDPW8fu4Hfl/MU6TaWGJ2Cd3KOL8QYoLfUHRV05Q+F97KD4qXDxrHc83SylBoFAY8mxRHwrdu0KMzONZ6H2uEQA4AR9PbMnVbhlc02emzD0WkFfhj8QZ7cQ+vs21kZhHt3gUZOyj/6Tf3xTKWahQGMDLkEngXfSVne9VpCIvVSa7wsOnEH5mJzuSWYPjKS7kGZ/4Uf/8QU8mtKDbrbLSvW9KUdixX9i5UxRz96pdQgAojUChMODBkOoUfeOcGJkn27h9uqKlguhbF+nRqIZcPZclc9d5lO7DRmJkAJuS0TfPcXMDEzz8zC6Kvv4XxcdEiT9wPEoQKBSCuJCn9HBEfb7CWiP3ivtMn06sUEec2k6Pp3whRtZx8fajnHMvkouHNx9HXjhMIdt/oJhn97nWEPuUvYediU+yKEGgUAiwz/986QAeCWiN3KseiqPE3OtVlmIfXhcj67j6+rP/MvVfgybhDJSPQKEQYBWOj7Jua6OEuTkyd/uBOwNliQt9nuJCAChBoFDo4Wq4dQWZb/2ZwSNfUfIuUV2M0ga+1dooQaBQANQMiHtuWt03xj3nm+IoKS7unuT/+ShyzRAozqRuXNNnonSlaytBoFCA+Ihgivr3lBjZB8KPMzYdJEapm4zNhzANpoYSBAoFiI8I1fU0tIJbQA6+6lvDt1prSle8mhg5GVdXcs2YhV2cuzghR6aO08m36uf8WAkChYKBzTOZkmKIKHRNl16MLJO+Ue+EpB5H4eLuQe7ZC/IYBt9KLSjH5GOUa+kt8qnQJKEfo1Vc3Sh97Y6UrnxjNtAFQantQ4WCgarD93uVESPzZGjUhzI07sdXYWsgAOj5wt4Uemi9OGMbLt6+PJLRs2ApcvFJT+ner8s0k+ziWaIX68dR8KZp7EhuKrsj0aj3ci5Q9ChBoFAwni/qQyESOQYZW3xL6euj8YkccS8f072epSk+Uj4JCCDIyPfjtuRXoy1fwV39/E1qIi/XjaWXW2axN5LTBlyY+ZB9+ulEggQoQaB4bYmPCKHoe/9S9LUz9Gxxf3HWAmxC+rccRn51OokTcoTuWcZen2kRZnDx9CaP3G9jlnIPvl/dzkwQeIlnzYMQ5KezO1Hs8wfijGXg38g6fAu5BeYRZ16hBIHitQLqevjvmyn6v4s8fTfs2M/iGeu4ZcxCmbsvJM93y4sz8jyd1THRe7n5ZyPvkjXJPUdBcvPLTD6VW4hn5ICm8WT6V9Ldl7GTkanzHLMxDkoQKF4L+Kq/fAjvXhQX+kyzqg488hWhbKN3c81AK1FXT9KTaW3Jv/m3OkHCVH9X34xSK78p7ncrznMSZMnYbLDOpDFz7UoQKP4PQfbeRYoLe07hxzdTyO4l4rx9eOQvRtnG7BGjlAFh0I8ntKCo63+JM1ZwcSWfDxtRpi4/iBOmUYJA8X9D7NO7FHZoHcW+eExhRzbyPH5H4vXuh5Rl6C9ilPzArHnBtJqQfSuZRJArgupd8mNmEswWyU3mUYJAkeYJ3beKgjdP47X6eAKPkyoF+7edoPPipxAhOxfSi1XDpOIdgHu2/JR19C5y9ckozphHCQJFmiIu7AWvFxDHVv2Xm6ZR1L+nxTPOJ8e0k+SWJZ8YJS+R5/bTo/HNxMg67lnzcX+Gi691IQCUIFCkCeDhD/51BlP/71EkCnVGholnnA8cer5VW5F/G8cVHNVC1JXf6cnMjtz0kcEtIBvfIUAJNVmUIFCkamLuX6On87pTzO3LulblyYh7ltwU0H4G3y1A+XEXNw/xTPKBHAgEJMUFPxVnrODqThkb96X0QT3Z7JbPIFCCQJEqiXlwnSJO7aDnzCZOFlzdyCNnIXL1z0peb5SkDE0GsXMpm4oDDeDh0I8p9sUjccY6vlVaMeE1VYzkUYJAkeqIvnOFR8xF37zARs69Pd0y5eB9Blz9s5HX22W5ba1lJXUW8VFh9HzJAAo9uE6csU76et0o42ffiZE2lCBQpDrud3+PYp7eEyPH48LUZ79qrSl9i6Hs2JVcPNOlismfAJuSITvm0/PVw6V3QNJ9UJ9rArZmOypBoEhVhGydzSbACDFyDJgc7nneJVdvP/JvNYJn36VmwplJ9GRKGzGyDrIIA3suZZ/xHXFGO0oQKFIP8XF0t9O7jgkEcnEhr2JVyIetlIjr93zrAx7Sm9oJ3bOcni3uK0ZyIMgJwU72oASBItUQ/sc27huQKSduDjf/7JSpyyzyLPQBG7iliKffVtDX4MmsDjyhSApmzmQZ8iMTAhXECdtJRYaR4nUn9sENi517reFdtCIFdJpBHnmL8tTetCQE4uNi6cX60dJCAOXSAr4YR17v2KcJ6FEaAeP27Tv080+6GPKATAFUt24dysT+bw18dQcPHKIrV151xnF1daXs2bNRnbq1+bEsf5w8RceOHefHgYGZqUHD+uTr68vHsmzdup3O/nWWIiMjydvbm6rXqEbvv1+aacnmg2DOnTtP+/cd4Md1P6lDb7zxqmqNnp9/3kS3b90mLy9PCgpqSFmzZRXPJCYiIoK2btlKt27dEWcSg+/1rbcLiVFSIi8eoseTWvPW3rYCAQBtwIPZzX71uup2AdIAEIB32lhvx64HNQpzzvyLaT3a6hSaQwkCBoTAxO8n8+MMGdLTsOHfUfkPy/GxJeLi4uiz5p8zQXJbnHkFJvHkKROpWPGi4ox5YmJi6Ic582jN6rV8jIm7as0Kyp9f7iZev24j+/dzKSoqigsnPRBEu/f+xoWCOb6fMIl+YRMdTJw8gSpUSLrCdO/Wk079cYoLleEjv2NCMpN4JjEQFs2btUx0DYasXovPlF+MTBFPdzu+47hkIVc38sz9NgUyG9pa0k2KEx9Hj8c34+3NZXDx8qHAbvPJq1RNccY+XnvT4L//biUIARASEkrPnz8XI8vghr916xb/v/EjJCSEBg8aKv7SMjdv3GSTeYMY6V5XBvzdvLnzadrU6VwLwBhCxI3ZxgCCyhr6z+ru7p7w7wy5du0aPXyoq/efI0d2JijNb0/hqvXXjuuAINI/3NxcycPDWvVfF0pXqpY4dgBM3Y767yLd7fAWPRhclUL3r6LIS0elt+SSFWbv+33SRSpBCEBrCj32s13akyGvvSAYN3aCONKByYMVWitly35Ao8aM4A8PD51t+uTJE3r2zPrqNnnyNIqNTXxzRkZad5hNGD+Rli19VWfvq6/b0egxI/k1DBk6iIoWZbayBbMAnzU2Rve+gYGBFBCQdNW8/PcVundXt6fv6eXFBYZZDARY9epVadRo9n3oH+y6ZMwt/3YTyT0wtxg5DgQnPVvQi55Ob0dPZnag8CM/imdSD15vlyPPgiXEyDoRf+6imHv/iJF9vNaC4LffdtKlS5f4ccOg+pQuXTp+jFVSZlV++fJV7HuHTu3ZzV+NPypW/EicJXr61LIgOMDs8z/P6HryV678Kknk4IHD4sg0UOd3bN8hRkTbd2xhgqAtVa1WhapUqUyf1KtL8xf+wOx68xVwXr54ScHBwfy4SNHC9MYbb/BjQ6BpQDBCoOi/H3OcPfuqL0A7JpRwLfoHrsnavwdI8Aloj4q8ziE2+CmFn/iVnszpTLeZTR68eXoiAZaSQN1P36CHGFkHuRfwqTiCFBcEkZFR9OjRY3r08BGFhoaKs84HqjucZFHs/X19fahsubIJqx0cgNHR1rWCUSPGiCOiAgV0tm9YaBj99derCWHJzg9+GUwLFy7mx7DjO3TqwI/B3j37xFFS4Au4eOEi+380eXp60tBvB1NGf+175Ndv3OCmEXjy5CkdOnSY9u3bn+hx5fIV/jze5513LAfi7Ny5Wxyx1752nfbtZa/BHgcPHqIHD+TaiQGvopWYMJhC5Gyvf2wMvVg3hm63zkHPlw6k8N9/TfbEJmOQMYgCprLEPrtHUTB37CRZnYUvnr/gnu1zZ8+JM7qbGqsSriKdjzf5+ug85T5scn7xZRvKmzdpxVVHgGvo0b0XX/GKFitC06ZPoUYNm/Brweq3Z+9O8k5n3skGqlX5mHvKQeXKlfj/w8LC6OTJP/hx8eLFaO78OfzYFNvYdwH/BK6hdp1a1K9/X6pe9WP+HK7hyDHTjqN//71GPbr15GZHoUKFaOr0yVJqtzG7d++h74YO58d6m94Y3B4wIeAbWLdhNWXMaF7gVKlUnf+ewNDfgF2QMeNGU+HC74ozckSc2cmTjmLu/SvOOBlXN/IuXIEy913Jy4mnFPHhwdyvgS1FGTzyvEvZxrKFw8TvJ4vTNQKolbt+201VK1enOrXr0ayZs+nAgYMJD2yZnT9/gS5cuMC30PTnt2/bQS2ataSaNeqw1TlayvGlhT69+/MJyI/79uJqa5YsWfgYN7+MdNQLAaC/br0QgEreqUtHfmyKZ8+e04oVq/g1+Pn5UY0a1ZlW4EWF3tJtr+Ea8LlNEREenuB78PFNZ5MQ4Bh8SLwf/BTGD/33DiFhSQgAvRAAhq+B7zZf3rziGXlQ5Tf794d5Rx/nxwS4kEeON8n/qymJhICj7zsZXLz9KEMTifLqguhbf9OL9a+0U1twmiC4efM/ZsP+xreThg0bwU0AW4AKX7VyDfp2yDC6xlZCR7B//0H+unr+PP0XrV+7gQICXk2oO3dM74XrgTmjJ3369HzVw/56yZIleAzB+AljqUSJ98RfJOXY0WN8twBg9bzFVHRcg+GEuXRR57+wiB363NOnuhx3V1cXLoiglRg+EIcgC0wLPeXLl0v0OpWrVCZfP20xEQmwVTqg4wzK+cN53qfPwwl5Aijp5VenI2Uds5vcs+q+fzh6dzFTZ8OGjXycrDDtDIFCyIyUA8Vaz/PCprbiFNMAKzu2tK5fv8FXGkeRL19eahjUkFp8Jl+yyZhwtpq2atmG7t+zXAq6SpVKNHa8eSm7ffuOBB9B1+5d+KTHqpk1axa+z27JW4/vpBbTdEKs+ETKlStLU6ZNEqNXXLhwkTp83Ym/Tp48uWnCxHFW9udN0+bzL+mff/4ldw932ruPTQL3xNuHIcEhVPPjOvy4Zs0aNHyk+doAP8yeyzUcsGzFEmaymG8dbjPs86JMGdqTvVg7iqJv/y2esBH2G/mUbUDpG/TkxUf0IMBs5PBRdPnyFZo7bza9q9GkcQzx9GRGBwr/XRfjYRWEGw9cR15FK4sT2nCoRgBVFttxPbr3pGvXrjtUCABoGbNnzaFlS5fbrLItXLA4QQhgmw9+AMOHnhNCxTfH8aO6KECQL28eKlKkML377juUOXNmi0IAIL5ALwRgQhi+v6GX//Fj0+GmBQsWoBof6xpV3Lp1m/bu2c/NFHzf+F5wDH+MfmvQHHpHoSu7XmMhAMKY0NTTpVsXcWSaEydOiiOdOo17Qf+wZTvWJLhOphGgMm+2CQcp68jt5OrtK9Wd2BhEIGbuOJ0ydV+QIARwnYsXLaFmTVpwcxXXnscGk8YxuPBuxfjMUoiAJPzfFhwmCHDTDhwwhLb8ulWccQ6wORctXEI//SjfoUbPo0ePeEgtgPNr7LjRbCXcleihd3LB+29JkEWLmxsTFx51Wf5lK/DVK7q9X5gii5cuTPT+y1cuTdhmw9ubugY8X7JUSfa+Ort54YJF1LrVl7Ry5WpaMH8h1a1dn0awFc3NxOQ2RG/Tv1Ew6bYhGPadzpEIZP0QEIJTJk2lfn36JzzmzLZcU99WPN8oTTkXXacsgzeSb+XPyC19ZvGMedBNON0H9ZggOUTpKr7qLgRTbRC7f7FQGOJnq0njALCd6Ffr1U6SNXCvhGyfJ0bacJggGDxwKB0/dtzi5HEUkNzz5i6gs39a72dvyOlTZ+i8EAT58uejMh+8z48NyWgQOScTYfjmm29Q3nzy8exwJt67pwvQ+ahiBcqVK3F8ObYyseKDsLBQvuKbonatmtSseVMx0vk0oJ4jwAgagTWt5O7dV4UwmzT9VBwl5i+D79dSIFF4WHjCqo/fH8L2xIk/Eh4RETqnrLPwfLscBXw9hXv7UaHHXLoxhEBg/7UU0GF6Qg4CrnsyE1wjho+mI0cSb8OZ2kVJbjI2G0RumeRzEIJ/W0BxGkqb6bH7k0J9CmrQmKtSySEE9CDmAE5IBMXIgh8cHno8EO1maiWvU7dOwt/ohYYx9+8/4O+Lv8H2ZubMpmPvjUFw0fJlK3geQs6cOalJk8ZJrgHPwcTAa8cw1f6fq6Yjx2BGdOnamecHQLvB3/v4sBVEXHu58mXFX5rm9+MnEv62ziem9631zxct+sp+NsX169f5hNL/vfGjWfMm4i+dCPIK3izNy3XlnH+VMrHJzqv1ICmHPedTLohyzLnI9+nRVRj3KnIjmn7agn7c+FOi4DA9WbIEiqOUA1pBhsZ9oGqJM5aJfXybgrcxDUzjXLTLWQjVcsH8RTxZJiW2WcBHH1Wgb78bQukzpBdnXl/u33tAmQMzJYQ4v/bERFPwzoXkEhNJfg16ipM638ihg4do9izLJgsiROGItRVMLTzs1Syib1+iJ9PaScdTuOd4kwIHrCP3LPIxOHZdIQJbft28JcWEADjKbLsNG1Jf3HhKkD1HNiUEDGGmQPq6nRMJgTOn/6SB/QfzbE9rmNOUZLl08W9mLv8uRmy1fnIHnlQxkscj97vkW+kzMbIO8g/CDq8XIzlsFgTQBrp16WFSpUpO4BD7/firL1uhMMf34ydS1y7d6caNG1KLlz1RrTAdv/6qA3dQ64Fyf6dtHh7S/GxBTy4Y0K8gPtp6ghlyEFyZmSDLy40TeE8EWWwWBFMmT+N78lqAAwu28aefNqJPmX2MR6PGQbyQhy3A/uzXrw/NnD1dnFEozHNTbJc6m7Nnz1HTJrodicOHj3A/GnDNnEtn68fFUuj+1XSvR0m61604PZvXk0J2LqKwoz9RrIVW5wEdZ4ojOZ7M6ijtK7DJR3D0yDH6dugwzYJgyNCBVKRokUTBL3j7G9dv8C8PabWy5MiRg8aMG0XvvPO2OKNQWKYr02DPnD4jRtZZuXoZFSyYtGKTJVCfYsigb3mgFkAy2dbtmxO2hO98mZtpAKajbFFWHVGOqEng+U45Sl+nI7kabImiluPTWR14lWMZsHuC1meIu7CGZo0AExf5AVqEQMaMGWj/wT30Sb1PkkTAQUsoULAANQxqQLv2/GY1nh2Ol3r1P6HlK5coIaCQBrtMUSK3RAbch9YLqSQGc2LyxKkJQgDo81n0eOYyf8/GR4VT9K1LFHn5OAVvmsYrOt9unZNerhnJW78hM9K7WFVykSxPhs7QkRcPE7IsraFZENy9e4/+/PMvMbKOv78/jRo9UiroBnvokyZPMGsq4LXaffUlDRjYj2+zKRSyPH78JFF+iTWKv1eMAtj9JsuLFy9p/NgJiSIsARZOw/R63zqdxJEkcTH0csssut+nHD3oW54XI3GRrGIEQvYso+j71ncbNAsCJGMgOk4WrNr4UmWB6dC3f9K67ojlx1ZOu6/amiyppVBY4uaNG/SY3buywPQ0DDm3BHwAa1atob1794sziTlmEI6updaAMXHhwRT+525NyUUoZfZyw3gxMo9mQRAjHB+yQBPQEoILPvywHL35ps42w79FHP+cubOoWDHrhUAdDUKaUWPgxYsX9OzpMx4UhIhDSHkE/KQ14C3Hyvj40WO6d+++yceDBw94roI+WvD/AWRHhobIe9F9fJi9bqksmwF7du+l5ctX8nvFFFu3bBNHzBROl/zxLuEntzKJYHmXRLOzELHYSMyQpWKlijTh+7FiJA8m2uhR46hUqRLUtFkyRKYJ8HWcOfMnXUQKMDsODg6h/27+x7eBIBDwvJe3N2UJDKT8BfJz/wf8HEi3RcJRagSTH/vZKEQaHh5BFy9c4HasYeqwIcifQMWlUqVLMXMsIxUrXozee6+4eDZtYlipWoa27b6g9h2+FiPz/MRed5KV18X9YVhk5k67fGyl1uZot5fAfqvJu0QNMUqKZkHQp1e/hPr7MiCFc9z40ZQ1q+la+ObAZUEYwBdgLW7eESDabPq0GfSE2ZJIoLJWa9AYpEijLkHzFk2peg1dZmBKA8E1e9ZcunD+vC4s2saYDwg41Fpo3DhIc78GR4CybOvXb0yo32CNnr2/SSK4tAgCfL6OndpT6zafizOm2cCuadbMOQnbg5Y4evyQOCJ6PDqIIhxQXkwL3iU+ZsJAlyZuCqcLAvBNz+5sgtheQ8BZwMETzCbHV+06JBTxdATYMho3fgzvaYD4/+QE6un9+/d5UQ2Ef2v8ea0CYbd46QJe9dgwZdqRQIN5yrSVI0eP0cQJk6SCfwyZNPl7+rBCeTHSLSqrVq6mObPnijOWwe/Xr38fLvTMgS30Af0HmTUHjNm7fxd/XRB+7GfdHn8y4lX4I8oy5CcxSopm0W5LtNXMGbNp40bzF5ESrFu3gYYMGsorKDlSCABk//Xq2YfGjh5PO3b8Js46HwgAZGW2+qwNzZ+30OFCAOC7wutPnzaTe+KdwZIly6hr1x40Ydz3moUA1x6NFEhs4R06aLkqtCGol/mG8FGZAgVZx4weKy0EAIrzJpAC9RA9C5URR6bRLAjKlbfeAcgY/Jgzp8/S9GM4C6Trdu7YlWYzle706TNOmSx69u7dx1a0yXxl1nLT2AIqDnfr8g1f+fR1BpwFXn/TL5upS6euDg0xhzOvY4cutGTRUl66zRaw/4+IU0Pg9Pz3mnyZO2hx5gKJkJE6jZmQqDkpS/dvulEegwXUq3AFytCwJ0+LTi7S1+8mjkyjWRCk87Fem94UsKMWLVrCI69SAkzE/fsPUJvP2/Jy48nlEUeQyZLFS3mdAEdrHgB+lLFjx9PQwd/xGgPOFGyG4H1Q0qtli9Z0g9nu9r7vwwcPafDgoby6tFYtwBDEoAQaOW1xbRHh1uP59UCrMLVjgK3zpUxbSbS6WwAJYG3bfUnNDepGAKRHZ2g2mHItu0M5Z58j34rNeOUltG9HyTFH45YlD0+9toR2QZAuncmOODKgRv7M6bOdvmIZg60y7HSgeIrWsGhHgSpC45mq++D+A3HGflC6DebHls1bk00AGIMCqAg3N9X/URYIs++/n0QnT1guDycDfBf+Ju5Pe4QLwMKB/JqjBjEB1qhduyY1adrYonPVlU3+gE6zeLXmQBRWaT6Y/Gp3JPcsjimRhjDjzD0WiZF5NAsC+Ag+KPuBGGkHSRhftG4nRs7nIZPeKNtl2BospTiw/yAtXbrcIcII0Z0D+g3kJkFKgwAz9IiwVcvq+U0f7nxzBH7p/RLi+vW8fKlNE3MxcjJAiPTt3Z/7BmQpU+Z9bhIYVsa2hkeB95gK34NXWcry7SbKPvEI+VZuyZZ0G00IVzfyq9GWPPNZj79xDQoKot27d0uV5QLwFKM1lj3RfTdv3uS7D1gJnAlU5b69+9GpU6ftXhEcAa4BtrW9DkRUg0KRWH3x0dQANJ3PmrfSZDtDi0F5Namy7ZJArTfebkZdAC3UrvNqtwBl+LHtaBw6bA68d6nSJXkUrLGvQhb4Dtwy5yL3nIUooMM0yr38Dm9g4l20EnnkKWxVzWcXQe7ZC5L/5yO5CSLTOt3t8uXLw3fu3Mmbe7z/ftIafqYo+EZB2rzpV+4dtxWoknDcVateVZxxLGi5hQIUqKac2sDqh+QrfW1CLeBzjRoxWnpPPTmBYMccRGFVmVgDNFeFzW0usMkWEIWKqlWGoMy6lrD4AYP6JXR9njljJv304y/8WIbChQuzf9/f4WXO3Pyzkk/FZuRXrTWf5FjlPfMX01VwjoniDWBQkShdyZrkUz6I/FuP4YJDFpciRYrET5iAvvgVeFKPLP9c/ZfatP5SjGzn7bffpiXLFoqRY0AgDbLAsPKmlO1sjdx5ctOqVcvJQ1QilgEO1/ZfdaQrV66KM/aBikbvsO8ffR6RBu4IZyYSxxYunk/5JAq6oshpx/adxch+sBq3bdeWvm7fVpzRYdiKTQZkyiK0HX0r0ChXVpuElrx5y8+azAG7iI3h+QfIWmQXScSEgqtPep7OrBWb6hHoge39246dYmQ7H9eswTMKHRV8g4ivqVNsK1YCdS537lxUomQJatmyBQWakOxwPi5fvoLOn7vAPea2aEa4aVu3aUWdOssFluA9vp8wiXeP0go84Dlz5qCs2bLxiDmsmubA7goKrGKr9++/L4uz2kBIeK/e34iReSp9VNWhuzf4nAsWzWOLS+JuSB+We9VlWoZDR/ZzE27WrDnSuw3wneG9EXCVFrFLECA5Ba3IYLPaA37AoEYNqXefV7XlbMVWIYAfsMVnzZnZU4AqVarIJ6o18NVBEOI9L13S3nUHWZmjx4zknm5rIER20sQpmjWcHDmyU6vPW1KFjz6kbEwQyIKEKsQk/PLLJpt2OtZtWMO7MJkDAgCCQAtoJ/dhhQ/FKClubq48gtX4t9MiCHAvTp02mcaOGU/6svPWwMIxiv2OxgIoLWGXIACw7+Ak0pLrbQp02qlWrarFtlrWgN3cs2cfzTcu8iFGjx7BVOXsUgLAGNSnmztnLv2y6VdxRg6816IlC6wWWMGkqV2zLjN5tO02IGmmYcP6lEmy3LoxuDWuXv2HRgwbydvXaQFe8+kzp4pRUo4cPkr9+g4QI+sM+XYQE9CVmMDW7oDTIgjg20CfRrSsl2XLtk28zV1axu7oBdT0X7N2pdSqZgmsQHv27KOVK1bb1DAVNiASU7QIASQ01apdkxYxmzYHU51tEQIgQ8YM1HdAX2rX7ktNKdeYaL9utiw8YJ9+1ba9JiGAnR3UbUAGna1CAOD7eOutQtS1W2fNu0QPHjykSAuNTQ4eMN3y3RRwPtaqVdMmIWDctMQa+L5lhQCClzZv+SXNCwFgtyAAmQMz88Qia2XGrAH7FOrofhv2xtHPEK3UZYFXGCvmkKGDxBn7wEqCjkHFi8sXYQGbfrEsCI6yG/mupIoK8Bsg++7r9o6L1YA63tlCi3dTIArv6FHzkxDOSVnq1KnFVXZb0LL3rwWYWaPHjuJdsP8fcIggAFWqVqaWrT6zu3oQCoDAKaa1BfqoUWM1Oe3qN6xHjT8NsvkGMwUi2mDza8GSR5onyxw6Il1QA8IIpdwaNKgnzjgO+HCwNSYLthKvXze/xRku+VvhM9nzGz3TmE4uC8yewinSJdk5OEwQQADAC45e+HDa2AMi7zq078z3zGWA5/6CBodlmTJlqGvXzg4VAnpgJnTvYTnBw5gVy1aKo8SgJZeWprKYrPDY22riWAI7Op/Uq6PxtU27n3gClqRnClGC9njiY+Mcm+yFVOL1G9bY1fMgNeIwQaBn9JgRXEW292ZELAB6G965fUecMc+M6bPEkXWwdTaKXaMzacC0DW9v+Vx9JEOZYtOmX6V3CTy9PKlLV42FMTVStFhR7kuRBaG9prYHUfRFdtsQlZJsXXnx3dnpC08CEomcsYCkNA4XBKBrty5UvUY1MbIdBC1t2/qq3pspkBOPCEVZqlStYpPTSQtYxT5vbbm6jSGhoWHiKDFaWr8vWbrQ6UVQ0PkZJdpkQeSgKXMNnalkw8uROxAg2ZLdmOfPX5j9bm0FQVdftEm+XJnkwimCABJz5KjhVNaO5CQ9S5Ys51mL5oD3+b6kM61QoTepYVB9p6jOhsCule2QDEzVKkCPPtmItvdKvEfZs2cXI+eB7w1ba7KEhoVSrIkCr2g5Zlzv3zy2/1aoMwmfk6OBMBg8aKhUibK0glMEgZ7JUydSvXp1xch2hg8z7YDDREFJK4TIylDorbdsTgTRCmxJexqSLlu2XBxZp2rVykky7pxF9erymp4rcuudK3MtcvfOXX5/OINTf5zWXLIvNeNUQYCVET38S79fSpyxDexJHz50RIxeAafi1avycfd9+/UWR84HdfFN5cXLgkIdMiAWAoVFk4t3331HHFlH1y3Ivio8me3Yo0eQm7PqT0ArGDdmgkMTplISpwoCgMkwcNAAu7ys+DFPnkxatAIRfcc0dELW4sCzF0RKujFBaAu4gWWdachgNM62cyYZNSSmIQPPOMAKZpCWgLHSZWxfRLS6CXPlzqWpgxbMjikTp5o07dIaThcEIFeunDz4AnHvtoK0ZWN7Dx7hGEmzILn7JD55+pRNaDmHGFq7G4I0ZdmVxt59dq1AwMkCR5/xtSFqT0u5Oi0aiD1g+xvh2HU/qSPOyLFv/36epJXWSRZBAOBx7t2nl82ebTTouPWf7eWwsKWZnGCLTDb/wseotRa6DUkHRyWzDW6vgyw4JFhqS1hP3ry2lezCIoEeFbJAW8ybLx/1+Kab5qC41avW0v59preA0wrJJggAMuC++LK1GGmD7wkbKXsnNNS4s0cbsYVYSdUeGFeGjnNwEIwjgTlmD+Fh4fTo0WMxso6tOzzIPdm1c5cYWQfdqwrkz8eFwMrVyzU5lbEVun3bdqf5I5KDZBUE4PPWrZJUdbUVLbkFLk6oDmsO2MCoTyhL8+aJm7/ExTk+EMZRoGCqPcTGxUkXCbGngQp2lLRkTMKXkT2HLlgqR/bsVONjbd2qEAqO0vVplWQXBJDw3Xp0tVnSG6Jlx+D5c+fEnJsC6rMp56Y5MvobJ2ulTiEAZGv3YTsTzjdj4jQ41tJnSL4iH7gfPTx0/gxEaaI2BnpbamHHjt94Q9S0SLILAgD1a9jwb8XIdrQkGa1cuVocOZ+ff5KPCETnZ2O0CEmkb9uStm0rsvkfEG7FiydtnPpSQzm0oKCG4ij5gZPz889bipE8aBKMprlpDc2CAJWBHVF1FhFq9oTEau2NcPGC4yrlWgKdf9BuTBZURTLG1dVNWhjgpjspuUo7AmM/jTm8mKptKrryj5OnxJF1PrEjGA1RhVrwNFE7EjsIrb+QDxUHqNCNHovykZOpA2lBAJsVhTObNG7OOwXZa8KikImtjVKAlvwCPWdOnxFHzmPYdyOl95Wh+poqaoECoLKeawS2oGRcasPF1dVkkZYfNfTA9NMQzmzM78dPiCM5UNbfFA0bNtAcvn3w4CG6kEwLj6OwKghQ/mvjhh/p00ZN2Ye7yM+tWrWGrXz2xXCHsBtYS0II8gTQnlsPYvG1MveH+c6LD2eCcffuPZrSoevX/4SXhjemYqWPNFV82rjhJ7tLxcmA705WyJnTaLRqcraC7WYtBDVqII4Sg6KvHTp+Td5GW7zW6NalO++TmFYwKwhgf69YvoqGDP6Wt3pCf3092J9FSTF7QCMMLQkhxYoX46Wh9NjSUBU9DtBpyRmg9dciZh/KTkhUSEImpCmwAmmJgoQ6OnbMODFyHNACoeLqdzBQ9wHxETLYW7nHjQci2e5QRicoLVjaoUAm7dtvaS9MOmPGbM0mSkqRRBBA4v996W+qUa0W/TBnrtkGISgpJhsGawy2dn7+aZP0FhlWl3RMIiOKTo8tXXix34vaBZi0jgSvV79ekKattZw5c1LRokXEKClaw6H37ztIv/66Rfo7tQZeB9GN06fOSFjd4ShECTIZChUqJI5eoeXa0G9BSxSjMY7c00e+xJy5szQHGkEjcFQrN2eTMLMwObH10bfPAGrXtj0fW2PQgCG8gIhWUHXnzBl5ex31A+o3qC9G9oHipih3bmvbbUNwY+9h5kDXzt013eSZAgJo4eJ5YmSaXn16iSN5Fi9cymv0yfx2lnj8+DGtXbueGjDhZhj+jMkVHSVnWlUwUXZcb1rKULjouzaHTmv9/DLxChCGo0aP0CwMJk6YpMlBmlJwQXD40GEaOGAwjRo5mheNkOXMmT9p187d0l88/g4triaMnyjOyBEYmMWhpaEg8IYPH0V/aVQfDUGF3v59B9L4cRM1B9l07topkXZjimLFimpOLYbTcPKkqbw7sa2awcOHD9m9MISXZ8dNb+goi2YaoOxvXcSEtnNYgzmHoB5r35E5ojRup8rmM3xQtgxVrWbanDNHHPsdRo0cY7P2nFzovmkXVzYpzlKUpLTXA20Ak3rtmvUWnUC4KdExZgATNtha03KT4mZYuXqZGOlAiKq9qh+2QDt36sYFmaEdbI1w9jn27d1Hn9RtwEtly1ba0dMwqAHVrPWxGFlm+owp4kieZ8+eca2gcVBTvksis42Fv8G2MDSboAaf0kW2cqPGA1bkNwu9Kf6K/Y4aVlpT23HnzstrBNhalt1CNeYQW9i0UKq0XIYjrgnVobWWiIefoH+/gak6S9FtOAOdWqDi2mo7I9rs8MEjvI8fhAkcPRAMd+/eo9OnztDRY8epe7dvbAq0aNa8KZUrV1aMdJw+fZp3GHKEBxrJItu2buc/0u3bd/j/oSriAeGACsI3bt7khSjggOrUsQvt3bPPpt2HrFmz8KSWrFnl6gfg/U/8fkK6U7UhEFD4XIiBh2bxz9V/uADFb4yCHWhnhh2Oi0wgolks2sbfv39f/Gsd+A7QIg0TACvaAfZdoV+hDF99nbSc19LFy6T6K0IAVKz4kc2dg5YxrVNL89vPWrWQTm5CjQX4p7CFrgW050daNvpE2CrgnElCpyP0etOqshuDD4ibHBITufj40e+xm0urqqanaLEizC4bSdmMCm/A0Th1yjSHq1u4fiQnZQ4MJB82eRA8A00GKcXwLdj7fgsWzjWpMpsDPw1SXBGt5ojVBIk02AaDeg9BYakBCcDf/7ZrG/9esIs0eOBQOi5hOnp5edO+A0kTfpp+2kIq/gPxB4OHDqSaNeU0J2P69umvyUm3cNE8KmyhH6QpRo4YrbkPJRzEa9evstn34UwSjDCorPZWk8GNCzsVajf6IcJ2tlUIwCQoV7ZsEiEAIiLCnWJz4fqhxZw7e45+Zyvxid9P8kYcSJu15/3wvc6dN1uTEACYgF982cam9ummwNYmGriifJc1IaBHv3pB+7p0SS5IxlR5OphyslmVCCTKFGB7ZSIt8M8nPqMWPmvZXHNkLMyvOrXqcbMrtZHIG9Odqa2phQYN61Pbr0y3XdfpMGkDvroNGcjjIGxl6vTJlCdPytbRhxbxQjIF+eOaSTP3oBrL+qCQBVjorVe+CS1Ac4qLlfdlYMFxtUEQYHsU5eO1Lp7QxJYtXZbq/AWJBEGVKpXorVTQ0bVGjeq8rbZ+NTIEN2RYmDYHXUqB6584aTzvr2jqs8iCMGR8H8ndcvvNN94QR9pIZ2KlhDNaNtjKl/17W9vnobORlhgT1Hv08bUt5wW/K/w+Wvlx48/JEu6uhUSCAGGtNWpU07xX6kjQzKJDp6/NSlo46VDBJ7UDtfEHZg6U+aCMOGMf5cqX5Y47VEdOLjp2bi+OIIC17fQYA7U4ORJxEAErG/QE3nuvuLTz1hjUN9zw4zqpOARDEFE7etQ4s85umKhwEOsfL56/4KYpjqFRCLceN7txzhFmcpJfDL30tdZtcxRlPnifNyXNndt8X304rf75518xSp2ULl2Kp1lrbYhqjcafNuLNSNGAMzlAvwQ9F87L7RZAgNu6/+8Injx5rCl0PSAgwG7h2r1HV82fGfEaM6fPSpjUhsBsWLRwCbX78mv6YfZcWr58Ja/k3ahhExo7ZnxChestW7ZSvboNpXdyLJHk6qHCduvWhdl5NcSZ5KHNF63pu2FDqYAVxxhy729IVp4pbyLX35ngZkBPxeEjv+OJQ84AvQ3Hjh/tME1DlhUrVokjy2RhqrK3xhXSmBwa2qoZgziPCElHqKOoVbsW7/mplR9//JmWL01a+BS7Cn369qL8BQrw4DMIGhQA9vL24iYTduKwIEIgOKpPh0kxhvTYnr2+oY8qVnC6dPf39+ee8U6dOyTKLjQHJKjsHn6nzp1o9doVPFnJmZ8DqiH6GCxdtohatW4p9TnsAZFwCDYqU+Z9p/kNvLwSpxDfvCEXA5I3Tx5mcydOH4ZfJ1pDzAfuO1sxtcI6G6SNN23WWFMpdD1bt26jyxY6eRkCp2a+fPlo3559fGs+IjKCjW0r7mqM2dmBWgHffjeE2rb7wik+A6hkKDyxaMl8bvs6A0S35c+fn5YuX0xftm1Dbzu4pDmEC3wqAwf3px9/Xp8oCi85QGtuPD5t0pjS+Tim0xF+68qVK1G//n3FGR2wTWXIy25M4wkBVf3KFfmycgi6sRUtfgisvJls7KtoTIkSJehztghoBUFsSOCTpWy5D+iff/+lXzdvpSJFtG1HWyIhoMgSp0+foWVLl9NJDVWDzYHJ05Gt/h9+WJ7y5MltsniFJeB0QnEUGdZtWMPfQw8i5y6cv0gzZsyiRw9tTw+FkIQpg3wA1LXTup/saLDiXr36D48YXDB/Ee8tqJVcuXLRV1+35RMZeR3GKicCzmRANOA7RrH7+M369u4v/Z3v2LXNpsUHtzLuU9kKUYhXGDdhLPfpOIrePfvQcY1FUUBQUAPqP7CfGOno3asfM5eHcK0Z1K1dj+bO+4HOnz9P8+Yu4IsPwsI7delIJUuW4H9jK1KCQA9uuNatvqCw8HAKCw3juQaW9kPhOMIkgTMGvoeh3w6mUqVLimdtY+GCRbR40VIxMg+k/Zq1K00W0ATw2GLS7Nmzl91BcNDE8H1ufB58JRBYeA1oFfoKyPUafELt2pmObUhtYKWZNHGKxbBuaEg9e/UwGbSlSH5w39mzzWwPmgSBHkyWs3+d5Wml+iATvIxuAuGDuPAPhNhqBNKguYmjwiqbfNqcr3zWyJc/H82cNU260g/UV2xLBr98STHs80F4oeYesu+0ai0KRVrDJkFgCv3LOFuiValU3ez+qyGVq1TiGogtDhyF4nXDYa50CIDkUGtkMw4LMNs9uVqFKxRpHefuDToYLQlMUOedvfWpUPy/kKZmCopnKhQKx5OmBAG2TWSAiaK0AYVCnjQ1W06dOi2OLAMHYf78+cRIoVBYI00JgseS/e4zB2amskblzRQKhXnSlv4sudPp5uqmOTVUoXidUYa0QqFIO4IArbYc2b1GoVC8Is0IAhTGQHEGGfLkMZ1foFAoTJNmBMHDR4+lU2FLlLQvsUmheN1wWK6Bs9m7Zy8tW7aSYs2UxMbHiAqP5DEEC5fM592GFQqFHGlGECicC6o+wQejBOjrido1UHAQtTl27FgxUrxeEP0PTsx7PBgYDWcAAAAASUVORK5CYII=;imageBorder=default;dashed=1;shadow=1;imageBackground=#D4E1F5;" vertex="1" parent="1">
          <mxGeometry x="400" y="337.36" width="158" height="90.64" as="geometry" />
        </mxCell>
        <mxCell id="z40fJ3ub48EkseXWyAoc-39" style="edgeStyle=orthogonalEdgeStyle;rounded=0;orthogonalLoop=1;jettySize=auto;html=1;entryX=0.5;entryY=1;entryDx=0;entryDy=0;dashed=1;" edge="1" parent="1" source="z40fJ3ub48EkseXWyAoc-3" target="z40fJ3ub48EkseXWyAoc-7">
          <mxGeometry relative="1" as="geometry" />
        </mxCell>
        <mxCell id="z40fJ3ub48EkseXWyAoc-40" style="edgeStyle=orthogonalEdgeStyle;rounded=0;orthogonalLoop=1;jettySize=auto;html=1;entryX=1;entryY=0.25;entryDx=0;entryDy=0;dashed=1;" edge="1" parent="1" source="z40fJ3ub48EkseXWyAoc-3" target="z40fJ3ub48EkseXWyAoc-2">
          <mxGeometry relative="1" as="geometry">
            <Array as="points">
              <mxPoint x="599" y="410" />
              <mxPoint x="599" y="360" />
            </Array>
          </mxGeometry>
        </mxCell>
        <mxCell id="z40fJ3ub48EkseXWyAoc-3" value="" style="shape=image;verticalLabelPosition=bottom;labelBackgroundColor=default;verticalAlign=top;aspect=fixed;imageAspect=0;image=data:image/png,iVBORw0KGgoAAAANSUhEUgAAAHgAAABxCAYAAAAea2caAAAAAXNSR0IArs4c6QAAAARnQU1BAACxjwv8YQUAAAAJcEhZcwAADsMAAA7DAcdvqGQAAEV/SURBVHhe7V0HgFTVuf6mz8723thlWTpL7ygIgoodSzTGEjWWlJdoookmtrwQY6KJGhNjTIwxtthRwd4BAUVEQHpflrK9l+n3fd+ZHVyIhSZuXvLD2Zm5c+4p//fXc8+9Y7NI6LYU7XyNk73z9asmsUylu4zns6n7j/C/dFD0X4D/n9N/Af5/Tt0Y4L3973/pQOgrDLIOFkBbZzkY0hgORTuHmj6PN/s33v+a6P/n1I3TpHgqsq90ILK6L1Zkf9rt2t7BWIb9sW6fP76vRIOj0Sg+Ta72PBRnkG33ccuKnde1dC/6ZMzdhQ6rBsdBiUQicDqdfA3hw6Uf4sUXXjY8SUhwo7i4B/r374/Cwh7IzMiGy+Ux59r4veprtA6Hg5/3ZuKnyWp8ap/F8EOtwYeKDp0Gf+kAd23cdNXZnQCa88IzuP3O27F6zQr0KsnlMQmAHT5fDnKys5GYmIaRI0ajrKwMpaWl6FlUbNqw2QWwabFL+3tOVF/Hpsb6pjItgb7Yg2KM7Ar/3nVsne2afv9FqL4s+jcCmEa1853IsN0Mafac5/CrW65DcWkyzjzjBPQpLUaUmt3S2o5tFZXYtmUHVi7fivUbtvG0JBQV5mL8uHEYM3YCxo47AukZWaat6G5mxCdqM71QVmKyZIvuBjheMz4iHYl9sydwXdlr53f0DIZsn8/LQ0j/JgDHGhbEYUT4wWZzmaMvvzwb3/v29zFlWil+fcsPkJ7pgp1AWNEIv7chFIwi0B5BKOBAY10bli5dgXnzF+ONN1bA7kylRg/CjNO/hhNPPhFpGWnwuLywbGH6dgtOuxdRi4AZcFXELGofLYOl4yQ7eRIyfVlw2Rx8IcQ6hVUjLOEwXYjbQZcAuN08FuY5/J6G49+OvlSAY9orHQsjSM657B68t+hdXHTRecjJacGLL/4NyckhAtMOixJgM8CQ+yx2y4GQPwBfQipCDg8CQSd27WjBc7Nexz8ffxlbtjVhwsQRuPLK/8GUycfC604xPdngNiCpa6NxnQAbSY/aDGgRjkcxgJPdxSAnsf9oiELCqg6XE2HWdVIeBbzaiwpkNiGQD5ulPgT0pQMcJTuNmYMD27ZuxblfPxXl5Svx6ptXol/fJDKOYNoSyOwkYpFALJwaFQEWVxmQhflqeWDzJMPmTaYghNEa8OPl197CPfc+iVUfV2PE8BG45sczccSEKXDYXdQ6qp0hocxRCBCjonYKE1/Yrk3aToQtHmjYVYXyrevgD7QiJS0DvqRU5OYXwetLoZDQC8dkw1gIBz//RwMcb05+T7oTMUBFsXnjBvzoh5dh1fL38JvbpuKkk9N5uB4uRwrcjjQyO4W1CTK8fKWaRAm0RaDsiXylCQ4RHJrTqDMKh5fazTabmgN4480leOiB2VixvBZjRx+JSy/5LiaMn0igUuBwyqbGxmMJFaq0neMLB/1oaWnE0iWv4u03ZmE7Bc7l9KO5pQU7dwXQ2BLBkUeNRVJyMWbM+DaGjxjD90kEWiZBc9SfmMx8YgK6Jx0SgCP0WZq8pD0YDBpwZQLVcge1beOGDbjl5puweNFr+NFVWfjWt/rCHqlGJEjTTI2zmWKn/0wgo1OZBqWRgSzIo0NMpcN0I0wtjrJYTvpSJ6NnO80x+7A7vKip82Pe28vx0IOzsWVjEyZOnIpzzjkHo8eOR1p6Js27H06H0/Rhp6/etHYJ7r33l6itfRejRidjwMAU5OdR0JiS1dd3YNH729HSFsa48edg7jv1PC8fXz/nQgwYUMbxuRgMimX/qsmHLwjbd9oPgLtWi80sfiTg96OyspJa0YKUlJROcC00NNRjxcfL8fCj9/H7pbjgvDyc940c5KbXoaOpiWaZHJGWxTUjSiGhtjoItN2WQnNMcC2aSWc6bALdns4+kwiu2wRJIYsO1QiHF25nGqqq2/Dk4y/h+ecXoKMNOOWk03DKjDPRf+AgeDx2+tIAli2bjz/9/lqkpTbi3PNKMHhoEnPtBg6BbsHmM2C2NEbQHu5AUvoAlG/JxX33z+Nc3PjOZVdj1PCxrBuLtuxdEe0SrXcn2g+AZXBFsepKduInvrfgXfzt/r9j27Zy5OcXICkpAaFQhOZuO9auW4UsBlTf+34/TD82E2mJTXC0V1JbaIIjDLDob6NijAmu2BidnVaslOtKJSxQa5HIQpCdBWRqDo+nUzB8PEWLJXZGvcqL3Yyw3RSuBKxZvQOzn/0Ab77xERKTsxhtn4yjJh+BqqoK3HHXlZg0PgMXnF+InKwAhagawUA95cxBC5JOs96H1iINQexEfVsHMrOnYFt5Mu76w6sItKXj+9+9FsOHjqTroT/muE2KFY/UdwPcfUDeN4BNDU7CjDsWOmmJQfHPls2b8Yuf/Qxz334Zx55QhOQ0MjwUQntHAH5/B7Va5tGOfv3y0avYi0lHpqJviRcJrnqEIw2GOTKdNvpXk7syZI0yZJUJNimeCYwc7MvDzyk0ydRqWzLBTGa0Sz9LUCKRFLaVSIa7+FnalYy29iSsWbsLb761BAsWfoCExCys37iRKZYdf/3zGfTFyylgO2hFWtlHEFG6FwlTNJTEur3ZTzru+OOL+N4PTmR7PfDRCgu3/+4V5uMTcPXV16CAghzji4BVyiX2aMDdC2DH/5I63386aRIq4r7ISCsBppYFGdH+/e9/wjP/fAqXnD8QV13TB8cd78akSWk4alIyX5NxxLhs9O+dB1fUh60bdmLBO9VkdAg9eoWQkpVMcCLGnEdZ1KaiVLtD/k2abDqkSbRRs0I00+083kCBqKEfrGQEXkuBaIPDCjFYU4RLjUQHjwUJYBg9emRj9JiB6NOniJpvYcPGdajcGaB1qUPvXsk00wmwRXQOo3ViE7VzLGhCsL0N7oQR+NufXmW7AfTtm47M9DR4PRl4+ZXFtD4JGDhgAFyM1gkv/4knGnMc4O5DXwywyAgluW3GLj8pLbFjxcoV+McDf8HA/q24+sfDkZa5g0DQ/Lpb4fN1ICU1jLxcD0pLkzFkGMvwRBQWeWhSd1Lja2kag8hMS2R9b6xN5jOWBEhFvIp1TMbpr1jJYI7aQm/KKvysFYgwna1Vj0hgF7+rhd3dzHoUhiBhi4ZosgV0JiPhvhg/YTCCoQ784a63GIy1oTA/CQV5GYSH58iSKP/mK//CGfWCkQTuuWcLxozJRl6BG4U9ihiEhTHrmRcxpGwYehQWa3QcXHychkHdir4Y4PiY4xosXyntIlsef+IfmP/uM/jhFYMxclSQZrISXq/FoEVRdZCVAzSv1DBHB5zuJqSmBVFU5EBJSRL69yuFv7UZK1dWweMK8zwGVjTlFgOnKLVP69KmL6ZM4lvMkwhkmUQyk9/FZC7A46081kRAa5kCVcMKt8NJH29zUhBs1HpwDPYQ8gvSGTWPxqBBw/HsrFcxb+5OJKVE0bdPAXuh9WAf0nQ3A79IRwuKBg5HZUUDNpdXoGywj4LoxKABo7H8ozVY8/E6jB0zCYmJzM9pYTTI7gfv/miw+aOJ6D2wadM6/OPBf2DocBfOmJGGRO92YxYdDHakXVr6cRAMzV3HbQROS5EqbpcLKcluanc6iosz0NxYB39HBwVBiPE8pkGKVLUqRePMYwJVUSp9sy3EzxIgpmKs42D6I7MeW82QL6RgRVtowqsYC+xi2katZjznJGg2pjcuRt19BvbH2PEjMW/+B3j26Qp26WSq1BOJPrYf6TCWQWN2Mw/vVToECxctYBTeTsHMRnJSOvJz8vHgg6+hsKAnevceaJY1O9nS7egLAZZ3ielOlxKN4u23XsRLrz6As8/pjeFDInBSe5X22C1qDr9n9EZDp0KTR+bL7Nmj+s7Bd7LABJKpic/nZJSdAV+CixocpSY76duY39pYl0GTjYGPAVrvVZgLI+Km73YgFLZYwox6OUr6bbvyYjZut/spBE3sQ+Y7gLC/jSa8nVXom90cEQO5gqIiHDVlIjZt3I5HH1mBBE8Ig8uS4HFIGGn6KURa8bLbPSbCXrumCqW9PBQCO4p79ERdTS0eeWQWzjj7AiT4fIZP3RFk4+n2hT4B2GKE3IQVK9YiNbUV/foySgbNIHNYEyCRiZqtDFYMXBUySsASYK0xm2M2aix9NWzNBKwZHm8UycnKZwksFTHmitkKz7NFfLBHsnl+Kc1oGQVpKFvvTaXNRsThRZDBUavVgWZqX2vEhiAjbgd81HAn3HQVdgZlYWst2v2LmOosgstTjeb69cjNc+CGmZfh+BmT8Ogz5Vi8LEhzqwUWGmwKjOVs5ph2oG+pA+lJdoSYXHe0rYU/uAGXXj7DcG/WrH8ixH4jUbmk7kf7DHBX6ZQ7lMSmZ/qQmkQgmWbYzVUZhj9hMsZcNOg8g3VjFxFin20EV8GSjRpshf0MuKhdBMdiG4p+Y1eU4qRe9FnaRK0yksMGqVEubzLTmTxqTy+4mLs67QMQ9PdEU3MuGlpyUd2cidrmHDR25BC0bPpP5s22FoK8AZH2ZUhJqKRyV6JnYTpOPW0cHB4fdtV42FMCYwCtX4dgOfx8X4vcXDfGjCxlRC230MKxVzGA9OPc847GHXfchg5G3S65CTPe7kX7BLCGHi/6GyaIIUapxtgKOAUYWpSg2dT6sXLaWP4aM9KxMzl5Y/o6gRJ1Ah+LPpUmyUaIYj0Zks+1tzKFqSOzd1AYtvLsbTTR/CwvT81ursvBiiVhzJm1DY88vBL/eHQF7nt4Ff7wl7W4849bMPvFNixb7kB9nYuBHnPkxsW0DGsJJc14sAljR/ZlpDwcGzbXork9jBDTLo1RizARxgV2j5NzCaGuupLyFURLawXFsx4TjhyJqppmvP7WyxqoGW53oy8EWMM2hbynyzTvtY0mKdGH5oY2tDZSw2h2ld7on7GthgS+LhiwxLtRI1LpTjLRsAH3M8jYagmFAqsgAW6n/2xh8NRAAaujb61k1FxBs16L0hIfjpw4CFOnjceYsUehpPdRcPpGo6qhFC++2ogbb3oPt9yyCtvLfUhOS4W/ZTOiPNfhaEJ2VhqGD+uL8i3VqKkN09wqv6Wvt1wEVuPzIzXTQZek69kcj72d42mmDAfg4KGWpkbWl6X5ZG7dhfYJYENdsHG5XcjLy0JDtQs7tzFbjMis8WsFJgJFQItMbmtiaRYlOJ9FRoRib/egLp12UixFUhAnsCt5ZBM8vo3IzKG57RXAsKG5OGriBJxx+jdx4UXn4LjjhzCHzaXfLcHzcyw88CCBdRZQSxl80SJY4R0cXQAjhw9EkjebPtZLS6KlUR+n4WYf7I8pVjb9dXYu83UKsGWne+E5mzavQ1p6AiZOPJLjiAt296IvBNhQFx4LBhcDoRHDhiMteRDWr44wkk3jcY9ZoozKvBmtk/bpRJ2hbj4NQB41Whx//fQ6oj2+0QfWFUujxlcG0OpvQlt7OwJMi8MhN5rqOvDWawvw+GOz8cGHq9Dib0U73cr9D27A8hU18KZmIxCqRsC/hUPdhdKiLJQNHEAzzoDRnmyuUzMZ6MzNGZVbzYzSA/zOgpf+3OFw4403F2HIkMHoXTrQXEXba5TdgvYjD469xsAA0lLTsI0SvPT9uRg9Np+pDsGMatmPOSQlPB4KG+BiiMSbiJEBP0axGru/+VTaE3y+ZxplydeT4TZGyy5PKlOuPEbjBWR+Gr2zG2lpmdToEZgyZRLGjhuD4pKezH0/RlVtA048sS88rnZEQm2Mzu3w8tyKimqsXPYhho4qhNejudAEK/2iKGm9WZcawT7trjw0tWQywFqMG6+/Cz2KenBEyiJkwj9/Hoeb9k2D9yZi4/Mm4dQTT6NJ64F5r6+jT3PC6dJFcTGf0mxyUZVYwLK3qT1QEtDqQkx30u856SOZPvOVkXykhuq7nnL1MWOErejfL4IjxmZg3Oh8HHvscPzwR2fhV7echXfmtmLF8mo4nMxfbfXwh9cxLapGUc8c9CjONJc7w9Rah4vzILBGqM2qmrb8EOxoGt59ZyMSExJQNmgIo+ggwdX23gNj55dJBzQiQWXZ7SgbNgZnnHEK5rzUiOUfRxCOpsDpTuK3Sp20pkvO89X8Y4RsLiiYFg6e5NHN0iKjcAf9ZDTQjmBbFfyt6xBoWY5o+1IEmxYwd1XE/DEi/uVIcG/Gty6ahqOOcGLOc8xnOwiMzK67lpq8ASNGF6OgsAfqKwO0BMnoCLaxJ/l7zof5eDQcIcBEO5KGOc9WYOjgiWaJNYElFKJ2d0M6YIBliVzJSbjoimswaPxU/OTmD7B2mx02TwY1iiAHPMwzGYXKJdNaKwJXoUMz6ZBWiVT2h+xGe+OF7fLVoWSN2uWimfZQ8xLpMxMcHdTkcgK7nsAR6MA8nj2f0f9amuIW3DrzpzyrHZU1lfAkc5y2VrR0rGQKthEL523Fb2bOow/3mI18ZqKaMd2NWR51eLB9awu2bWrDxRf+gOAmUUjscHuU/zPI5Ny6E+0fwJyrjK0hzZsTthw+/OTGe1BYOgYzb56HzeupTY4MBOSCNXmX9lhp8l3z3ENLxmyzaSNABMOGIEs7AWnhd/W0HBVMq6jZbSsQblmG4l5OnHj8KOzapW1D9P5awHA1cHLrMeGILDQ2p2LBgg/Q3s6IzZhmNazYgoLkScG8eavQ0drK9IyRtmGEKP7avWjfAe4yfvLTlBjZkOhNxS2/+Auc1nDcecd72F5Js+ZLYpTqZ04pFe6seghJLDc7HbsU6g9fdZ2LQsZgSEsxWoAxm+VsurK1g2OipgYWYOjQFHhdiczlLfpyLZEGEYpsxtCRLjz01Ak4/sRhFArGEJ1kqV12ErV8WL2K2UI4i9pM4dVAduf6X8JED5L2T4NJnzYFB5lZUlTGqPJxyvlQ3HPfKlRUpQHMK+nl2It2bHSeeai0mO2pRVP0niUcju1rNoDLhlMzdQ1eV51kvl0ObQxoRCS8DcnJfowcNQSJHl39Csc2DFgtSM9ogZ+aHgrVIDlJGqpIwg65XrUZZR+Kpo859ihG6YnsN8r22CnzfQnT7nl2EzoggPeegvYui7H5PfriJz/7C3PS0bjn3nXYUm6DOyGHJrBzB7n40HnOwZIZRyewurqlnSGiCAeiJcwQP4ZNIqu6/EeETLRNEfQ4/bB0GTFQA7eDIqjLnKzvVlvhWqZbLQQ8tjtU8hjm+WG+D4SDBDqAhFTGHwnMuzu2s3EGl5Ew+z9UMzu0tN8A701itHYkiq1icVGv4bj40pnYXlWMBx+sRWNDFislmLoHTF/EOwHNF6fbBac2Dri0byuHI0qh4MW+k3+m/jEaZiGgWr3SZgA70zi7RQGMuPmdS7pqLivqcmcsVefcZJ7Zh8NNH+xsw+Ch7WgNv40HH7kduyp3Mq2yI8g0TVzobrRvCx2fQyZ4opkSvEoUQkyL0jIyqQFJePrxd5CW7MCQQQnUsnZVFhYGEDGNvDda8gnp/SdMsmRfVceApDdxf8uUxeZmj7oPycczkuByZ7N+OseQjgULd2He3Bb4Eu3IzNT52nyg0zvbVuAk9OzMcdU2gZWsM1Tjq8ZgRCH2XhdRzFstuGrPWATp2Xbk9cjFH/74Hj9nYOS4MQgx1nA7tUFB53cf2o9ts59O5qZsmqkIU4SwQUzXmKJorq/BHbf9GrVVc3Drr3sjOaGamsL0RVty5MtiORMDMzE2Tnq3O04niAqQXDSnMd8nG2tpu607GRFHFjoCTMesFGxcV4sH7vsI7Uxb21qBrVuqkZ0Rwk9/mo8jj0gnju20pFqNUvsyu06CphUwtqlh2NgHx6GNABbH5kigxYkGGGRpO5DsUgw2unQj0GEKl+UahIu++S6WLU/EmwsWIi09Cz5mDF1n0x1IsnnQFNMvLdWx8FWLAqnJWThq8tGoqm3F0hUtdFqphqnS3DgLYnuiYzyOFf2TnsWuGIeIdUeA/i+idKuAprcEbf487KxLx9sLW3Dpt9/HsSe+gou/vQAPPb4DTz+7Ey+/0oBt20IoLslGr149TQAUy7dV9JfCIgvS+clcIKEDjooT2muNbGzZ1I5Vq6uxq7aN4qZdJWSUKujyJ4t2rDitdkyf1gt1tZV4d/5cmno3m+te4IoOgQbrdEo+X2NmzTRqUpPa2m347e9uRFrKSlx1BX1xeD1cVAh6MoKtK088o1OrYiV2HVnvpb1RBmfan2z5M9BY58Jb767Ck89vwgcrLHNvUm1ViFrJ90GeRmGQmHncXmSkdeCiC0px/c/KCMRGKn6riRN0ndqM1giaNJonERRL17DtSaiu1d7n7Zg/rwU5BVF84wI7Tj15KEfVwZbltyV2nCuLP5iErdsK8f0r56M5UIglSzbJilPI2UE3okM0HDWjXVdkcufqlABPTc2iFg3B2o2NqKrndy6tGgkIbX0Vw5jW0EyGyXCZvbCVzMg3kxqbj3CoJ639MGzY5MF1NzyL0WOfxE03rURudhpGDClAXWUQ4YADkSDbVA5jgIrdG9WhhSwJUuemPCJpmG9IoBqzy8L3OhwIcgyMr9eur4XX04hZz16M51++Emd/7aSYwLFd+Wq1H9utQoA7apGX3YYZp2Vh49qtePqJxw343Y0OWoNFXZvQe3N7pvJQTnj1msW49bbrcOz0Zpw+w4LLaiArWV9rA3JqMpcRL/mdjkB7KloafGisteGlV5bgjQXVmLswjJ55blz7Yx+OP2EIsrN74ImnNuNnNyxEZa2LaZHyUAEWI2lxalIE37q4F37588Fw2jZRg1tMVyZgEsAUqKheibpMbjTsRjSagPYOG3xJaQzYbNTm7UhJdCHRx4Eqv6YQ6HYVuCTI6s+BQCSRqVM/nHHWHGzfkYmly5bD4Uw0PPB6vRQuhXZfLR10FL03mdyR/+IBTWZWPlavrsDiD+bD7fGgptKF8m0OrN9iw7oNEazfYNFnuhkYefHySztw//2bsWBBMxlVgNyCoZg6rTf+du/p5i7AhKQ6BP1bkJXtxKp1IaxZ20KABBS7MkImeG3wui2MGJGOqZOzCUY9i/aMmcGZOrT7xpKINE7dB6UYWWvKEbTSJ7cjwethFJ5EYLUu5qA1IbAuAqb6JtJwoK2tGYnJybRSJXj6mfVsx8LkydPN/clm9awb0CEHuCspoBEzXW4Haqo6sH2rB5s3ZGHt2nQsW+XDx6vSsH51Jqp35aF8K31ttB/OOfcH+M7/XAePJwtznp2Na646FXmF5Whr/ggI1jLX9SMtJ4XmNIgPljQgqKuRnWCJJF7EBiOGE+ApOYShnseY60rwVAgNtB1Hr+Y8/hHwLAr4tPmuqjaC2sYktLR50dKuuMAGN4MH+WzFGTZG4cqZXdpcz/MKiwuw/OMteO/9Kkw//hRzh6Vpefe4dr857HRITLRobzMdoxhT5ZalQY4oUymGxsFQBG0hP0KMjjz0kempupOeek9fqr3NW7ZuwbVXfx+vvfIa7rhzEi68OBMdTR/CqzvybQGmKMl4Y64dP7txC61DB8LxzRQEQhCmJgIXX9gLv/rfMrjtG+hqdeHBiYgCN47HaK3GqMtcOk1/GNDV1IdQWeXGo49txbr1AaQk++B1BXHaSbk44fhCmtzWzuvBFA5mCiGON4oEeFOK8PzsWlz90/W45de34uyzzmIfscxb/3U/sbrTdWY9I8z0/wn6XyodMjsSH/SeRR1Yxv/pVdeQnW4nEhK95mauvOwcZGRkEFTWJcB6DZOBDz34EOYuWIBm+r3NO7Yy8KKJpT9TrmpjxBsNWhg6OBujR6XSR9It0i+azjr7FGIhv4WOttg1Wp1LBNm/8l/5YV0AkeoLWl16ZDDGfDvAPHrJwu3Mu/tjcNmFeHZ2O555PoxF77cj4PfqbtcY0S1bNMONLR7MeWEH3nx9o7lx3c10y9/RQhA7EAo3obxiNZ588gHc9Ydfo6JiizlVwi+QDxcdMoA/j6RVcTK+j8GNolq9FcmUx8ynDcsZqLz22mtobtENYaA216Cp1Q8XgxZj8s3CiMVUyMKUo5KQla67GdS+SoxxQSrmjqogdjUQaOa2IaVHWjRh9Kt1ZxPtfhJWs1CzKUwF+TmYMG4Ixo1OwpVXTsO48SmgDCIQ8KO2mmlAlBoYCSMY9jMf15j7s9dxuP32ZXj0kWXwt4ewq6IcKz5aiL/+5S7M/OWPcf8/bsTv7piJmb/4KZoam9iGmcVhoy/VB38uaZbxYohvCMKzs57FnDmz0drSYjBraw1iyuREFBX4EA0FWEvgyJTbmYbRly+tx8ZNAeMGJBAyhTQCaGoJITXLi0FDC6jh2imppZgQ9bhTc42qU74pMIrClUc7nV5G1Da8O381A6qd7Lcnpk7tgSMn5KCoRyK1NMzqtEQ23aqSz2BqJAUQ+Ov9i1Fe3gSfN4z21h34aOk8bN/5EQaUeTBlWgn6DyjEww++xRw9GaNHjzZa7KC5Phz0pQD8r6b604tIy4PayiOfVV1ZiQceuB8ffPBBzNcRhybifMyUFJSV9aDL1BYa7ZNi/hqhj0xMxc4dDViyVLeOSDm00hTzd20dYebQjdiwrgY9iwegoJh5NSNkmU7jHo1kyYCpyEzzVY+FCDSj34AMFJc6UJQfQq+SKHKywgSXMQOlIEJT/MLLdXjyiU1obm5l8BXFgAHZqCivwMkz0lBcEsLQYeno3duN9vadKCgI0hL0xpOPr2caBlxwwQVGuJRGxnnwZdJhMdGfTgo2CCwnGqJN1SMfVq1eiQ3r1xCsCPTQFD0iIYGC/sQjO9FYTWl06K4JBUbUwjDBatuJ8887AoMGMqoSwAqDxTMVgryjwo9Zs2pxyWWvYsaMp7F+UxKcvn4UhD2vbonPBupoGGkMgAtz2pHpqUWyuxoJ9irm0jX8tglOj4ORexU2rt+OyZMGYHvFSjz66EsYOyoR/fq7cMmlg3Hu+SWMKzYjwb0VwwYymi9LRE56hFbEQp8+vc18KYKm38NBXyHAhqVGc1xOD02jHTk5+UjLyCJQZEEkwuDIYt5LP8yUaNPaZiLhgs2pvDQEly0MnyuE/MIojp6qQIvNEWCtCbvsCYzYFYw5aertWLmqHa+90YJho9/EBee8zbYZ2MlkK+qWtRa/9coXh89LA0FNbQnCFvbCGWTGq3atEDatLkfj9s244BtHYvvm7diysRa/++3RuON3LxNkG0pLE9CzZwTHHVuIU08pxrSpRSjM8qFyWxXaWiK49NLLqNXtHKsGe3joKwS4k8hVpx4XGOmAh7nmWWdNQ9mAEr53mjRE+lpZE8Kf7/sIVTUMsOxp1DgC7dHTd1wItpbjppvOQ1l/NkLQ9Ygl0D+HdR+U3c22U+ivqeEOAkWBmTRlGMEUiMxhadIVnynCN6tTei5IlDkzI2TjIzs3s0vn5Bb69E7DKaeMRlvtFvTqUYNbfz0JhfkuFORaGDWilJNgEBVuoOB1IMHbTt9ea1bK1q2sNAKrh6pqhetw0lcGMFlpikgBTk1NNT74cB7Gju+D08/UfUVkMFVLdRrouxYuDeOdRX74QwWwQqmIdgggJ7EMwN+8Fpdf3g8JunropLknWEYpmV6Fgx10rbHAaugo4OwLJqtLdk6BUD7LznVzeuxuDALKCFn3FFtetuPh+cyDo9oKokic7bZ3MKpvb0L/sp5ITHDg3XfmIjvDhYlH9kOoo9U0YwVZPxRmxK45ZOHtd+ppnrNNt1q+/H+XJn0eKaKUD25qbMWOnVvhD9TivPOPx9GTy+Cmz2PYCz/5v3lHALf9bj3eersFbcFcRMyFfmlekOa6AeedNwJTJnpgJ3PtIb8xtzGKXeOyaGaLSuh7Xbrqoc10YnIno01ltcaAT0LFEpFqE9gotVqf9c/hdlC7qYlD0pFb4KK5rUNHRxQXX1qCqKvNWAFt4VVRPqgb2Gqqwli/IYpzzrlkd1AVX+w4HNQNAOYfMZAm1aQr9HWlfdJxzXVnYtwRhXB37kzV9YT1G1px++/XYOGSEAJWBnlIDSEzHdQ4l7Mc/3N5LxQxb3WzvjGrncUwk/8Li5KoiG08xU/QQiblUVwmEdB9ElG42aZyZh5Utzq9k/RYJ43N53XCl6iHlbagsWUXjjq6ECXUznB7DbtQfKCetWDjpBAmYe6CjWhu8+OEk88045BAf7LS9+XTVw6wAYGc1KZyw1bt+Ig2Y+SYXFz949EYMpQBjqwpla2divf+kgb89s6VePWNNrS0F3AGWeaKUpgpycQJPXDGyXlIYAyjh6kIOnlxbd3VZczVq2rNczFtNJNhar7lCCOs9WW7F7X1FnbtZB7bzlF0XozQczaFhdFfvurGcLUViVBAaP6TU7zweGWBGujrZQ3kGtge2arndjW2JOKNd6rQd+BQZGRyrJ10uLRX1A0AJpF7uskrfolNj0SIRqoxYbwb11zdD2NGuygAphoCIRsWLGrArTTX/3h4G7aU64l3eazvQHKihbPPHIKSXvJ1puHdRXq1fImFZUvq4fLksQIjd9bRFqAt5S2YN7cKmzcFGVe5CazAtAiSLAqBM02wBaq7dk8qyteFBq/XxXrafal90m18lS+nUDAziFjpWPxBHdZubML0U75OrU/WgIx5PpxXmr6ylSzxLE7aT6xAqK6uAtk5CcjLTWEO3IxIx1r07+XDgLJ81DU10UQHTGqjfLeq2s/0pwEb1zUjl+lVSUkefSS9XqIdrf4Qln/cZG4ldbBtp24MIyjtbRbKN1Zj5LA85GYnUzC0GT6MqspGpmM+eBhx5+T5zLbYYMBPrdQ2nE4TL13Q/c4KCkwRSJ1ASekJrnZ9xLTYw4g/FX97oAJBWz7OvfDbKMgpNhW1EHM4rxN/pQBLI8U8PbzF6/Vg+fLFmPPCLLMgkJuTDEeoHJFQBYp7JmHY0BLmkkFs3tAUu3pE3rYHCNjWDiz7qI5WtR09S3vAm+JEbmEOahu0cNIg3rMPmVtO1nKjekcr1q6pw4CBycgrTGSw2wZvYirSMwfh0UeqsWFDBQYP70OwY0/skcsQxQMng+anmNiY55Ux1wPJs/DOO814etYWnHHutzFl8nRzT7Eeei7tPZwm+isD2LCKTDc6wA9i5oYN68nk5/HRsjUEtD+yszrQWL8OKR4nspJsGDe6B/LSIqgob6BGMxOhIijCrqoJYsH7TVi2YgcKS7IwcGhP5Bdb2LK1Clu36JdaaGb53+P0MpALoYLaH6VATJnSBy5GxR5vNpZ8FMGDj2zG22+2oKayAVOmTuB5NLsywQwAZWEUZDkYWeuOf4bqfKXWMvgSXlpqdXhT6I+zsHadC3+5bzO8vmHm+dXFhX2MbCjKONwbAb66iw2iTjutu/L0oaqyEvPmz8fcucuxaOF8jB3bH70HlCDYUkWbWYf05CDGHDEQ45krN7TUYkdtB30yJ8FgWuZ34+YA0yhqfbQKk44ajSOPGIXWpjZs2liDEOvp0YYyoLoxrqomgiFlHvQu7YstW/z47R0rsOi9Zugax8cfB1BdsxbHTD1SThNup1bbaGm0bZeJbszXqmgCRlTZuI9VU1FRkYjHH6/Ga6/uxCWXfgdTjz0FDpfdWCut2h1O7RV9tQCT3TEmKQKNor6xHu/MnY+K7dtQuSuEZ59ZhqLCHhgwJB/BcD1NeQQhfwM1O4oTZpRixFg3tm5qR0M106iQtrICDQ0WFr3djNde3GTAK+lVio+XbyUEbiT6EpCQ6IGXTlbP7tITSMeNPhpPP1mOJ55YjeZ2HnM6jenftNGNFctWYsqkSdR8+v1wh7lerShZY47BquvTDhYvwuFUVFYnEdgaPPX4BgrYqfjWdy5HSlqyifK14UBafnjh1VAPZ1K2BykFYdeKOs0QYsn/jTfeiN/feTcDpA6Du4958PXXD8TZX+uH/EymKcGd9KdNcKcx4nblMDBLxorlbbjrD0tQvlkBUyva9Xw1ncvAVXluY5MNb775NsaOGYympkYCnINF777OCP1iTJ9egiVLK/DRikbzDA/l23k56bj15h/giu/NRN9eblx5xXBMnpKPtMx2ClkD+2W+pnEzDI8EafaDKWhqScVrb1bgkYdXUyCG4Oczf47xk6dQ4xl5cxC6P0sXTw43faUaHJ+vXmOmy0YTV4HFSxajpZW2kqQbGt6ZW4v163chMbkQaenUxGRGxjTLgWAT/WcrSkrtOPPrRTh5Rg+kp/uRmpqJ7Nx06pcLtdWMvPlv0KBBGDlqjPm9JZfTAa/HjZdefoG5ajv6D86F09uOrJxMpKelmacAhII2lG+rR0H+IDz93EYsXr4dHYFUmmEXtTiRWu5DU2Mytm52YfUKB16YU0cfvhy+pEG4/HuXYsqxx5pNekyoOCvd86T5UfMly0al9gFsSWnsTefr/tNXqMGiLqs6ZjI2rFu3Bldc+X3MfWd+545GaaE22kYYWTtw4vRUHD0pB8NHZKCwRyK8ya2MoJvhD7YxHUqDPZpPjUlHWyAFj/xjPR5+YCXq64OorGvGww/ejzPP/rrxh8pnn3t2Fn5z20zm3buQl5+IoQzsAn4nNm6sQHWlA7f/9jcYNvho3HvfX/H23JfQ3LgZ2RkNFCL6ZQ/zdebk7S3MeUNuWo409B80FN+6/BJMPPJI2PRTBSJLAiHfy/cy7XFu74s2d/IkVg6MvmIfzIHHUw9SJBJGZlYmyrdsgttFuWcE29zUyipMWVwWWtoiDIA6sHRJA1Z+3ILamqh5orwe3+Rzp8Jj8yLY5md+244A/HjllS302dTsU05AY3MT5r+7ED179mIpoZn2Ib9HMZJTs+DvcJpHMzQ3N9Pk6+a5YvyQQjZ9eixAmjBhNI44YgytwAC6jGIKUyG9Ry+C3BdJKf0w6egTKDjfwNnnnoMhw4YTO4FLE66ZdQZlppiYQxsWYvky7dNnFNXr1F4Tfh84wF+xBpN2S7T8X+xZle+8/QaDrM1w2xvx8ssvYv77S7F9R9T4R/llzVdblDPSgcxskPFJKC1OR2lPJ3PoHigszUYHK99y8xJ8vMSNO+/8LTXKyej2WVRVVePUU0/F8FGjUNp3ADw01Q21O6jlK+n3K5iPp1FDs5GfX0xTnoDW9lpGvy7jKty6o5/mtrW9hSC3xjYlMPDKTMtEa2sAEc5BEbduOLfr8Q427Y/2U4DqaWViVsjuCPE87Txx0cUw1TJzp49mhB0jhm4UaK87je6AQQQDOAVonTqw3/TVA9yFzG81MGVqqqvD87MfximnlFFrN+G99+bizbeWY/HiLTSflrlMq3vKdc+3Rq9ATAKflmpDXl46cgt9yM214cPFtVi30o8HHnwAZ3/jXEbnu/D+oveo9U3QTfm9BwxEWdlAZNCn19d9gBdmP4Sq6hoyPmp89XcYBT/0yJ9Rsa2S7fswZNAQBltTsPjDD/HRyhXoaO9ASkoifvg/38Vj/3wKK9ZsQmZGGrLSUnDs8WehuGQg1qxZQEvyBNragmj3t6FHcRIuuOB8RtvzsXTpKiRoMyEnYS4hmpUyjqtPCS48/3uM9HvyOx8B7twgcCAgC+DuQpykpX+RUNBa8O4L1rOzbrACwYes5rYbrHUbZ1hvvDXS+tUv0q3TTnRYubodmDGMiy4uIUGvTJJsNrM508ljiUmUfQ8st9NmXX7JxdaOHTvYQ9AK+JusxoY6azs/76yptVo62q1QuN5a8dED1inTe1u5GXYrI8Vm9e3ltepr51nTj8uxCvJg5WU6rG+eO9Zav+Zu6yc/Pt7KL3RZaZl2q7DIbTW3zrauv36qlZ7msLIzvNaIwQXWE4/eaQWD261/Pva/1qCyDB53WrQ41tTpmdaWHY9a3/zWWCstw2Zl5TitTLadlWW3ssyrwzr5tEJyYQX50WyFQwEyRswxLNpvOrzLKvtA5poSzdXQYaOZDiViw6YqJHqTkJkZxuhRwBXf74dbfzkSv7+tDDf+tA8DLg9DGJ5CH6cnxdOamtSog1purrszmHr08Sfxk6uuxuxnn0J7WwNSqWEFBQXIob/3umPaQV6YJdCOZvr1Zosa7YcvsRChQDJqmGe3NWvTfpCWQ+lcBC2NYTTVR+kqmP7Q/A4dNhSBVlqfej927GzB9opKBAOtaKhv5LEQGhvCDNKAkh794LHnwArT/DdZaKzl8YYIGuj7G+r0GqG5b0c4Grs3OarHK++OzPafuh3AYrR+ZicxKQMjRx6PtasCCPpLkJowHNGOBOacdSgqasbZZ6Xi+muK8ff7huKD98djzvNDcf3PEjFtMpi7AumpNN0eIDGB6RRN45NPPYX//fmvcPwJp2H6ccfhzDPPxCOP/hOtbcptHfS3TGVoEoyl5Dhk9u0M1vQ7DVrplDvQg0l1RUlLn+ahbqzYzqAuwZOJYWXjTHyg6wjt/g40t1bx+zrm3TV0KfS1rOuhK+3bpx9FWA9VYxtqk+eouImE4ooo69ltbQS1g6PQHZgkHTxA6nYA7yYal+KigUhJ7Yvbbn0G61a7kJA4kVo1lMGWG41N5Xxdj4zsHejdtwbTprlw7Y9H4+l/nooP370YW1ddge2bb8Lddx2P4kJdUI7gXPq++e8uxhPUaN09cdZZZ8Gnu/k/jeTvbHqOB7nfSbFbR8kyE/nHSBFzoJV5tSvJPAxNoIVDYbR1tBDYBkb6tfD7dfWZViAEnHDCdL4jcPQluliVnuLGMVOH45sXn4QLLjwF3zhnEiaMnwqXLZ1tK4jr9L8HSN0SYPFPZlbbZI+ZdhIDnsE4++y/4Nqr3sTChZlk1FjAOwRIKERHJBF1je00a3WMchuR7KuBz74JvvAKJDmX4NST0zD1qN7UZicDoUdQT41KSUunoPiQoIe2fMod20ZfzGE9NrgrCdhYIKS3dhYtV2pzfmJyOs10McdtQzBsQ21tA3btqmCAVmt2qqi5BAJaxlxZv9bW1ibhAbLzknDhZafijj/ewHz7T3j0sWdx88xHWLuIJZGdsL/dEfb+U7cCWBOOk3yx1n31OKTLLvsRfnT1dXj1jWqc982/48qrnsdf/7Ydc991Y2t5EaPZoWhv7U1TXEQ/mkPzl0aepCESopZ4HPjO96aiT78crFq9Gk8/+QyaGlvQ1KDLjiGmP9KtiElxguyf2MjSosMPLPlwHRoaA+Zz7B5zjakL5OSenrCjH7T2+BIwavQQmnW6GNapb6jF1q2bUVerh884zSP/ixlBh8NKnZLMD3ko7WtoCGDRog/w/JzZ2Fy+nN83sWFaFSvFnLeXhO03dSuARdoMH9vGqrnZzO0kHl8ivnHBN3HjL3+Bwl7D8eIrreZu/yu+9y4uv/QtmubluPeeejzw1wY8+XgbZr8UxnOvBvHcKwE8+kQFFi6phj8SpWYBN/9iJhbMm49d2ypoStvh1COTIBAjCNB0iKdaBq2tBy745rVYunzbJwDragY/KU4wjGdxuCyzId7psFDYQ5sBeZxUXr4Tb7+zCDU1dWYBR/u/jpw4knl2FoVPz7fUTedAXV07Hvz7y/j+d3+Nt5j/+8PVbD9k/L7aV1+7/6nf/SWe1I1IuUBkd9nzX9hq62i25r87z7rgmxdYuTk5ltdrZxrE7JG4pCbCykqGlZ3SWVJZMliyYPl4XNfbVZRC3XPnjVa4ZYsV9q9jWWVFw6usNWvus045pb/Vq6fTKu3psop62KweRbBKetmtvv081oCBPus73x1jbVh/l/Xjq6ZZVEBzo2JJT69Vs2uhFfQvtR575HorgWmtZEGvxQUuK9nnMF7bxXE+8eQNnFaltWvnSuuCC47XA30sp81hCoMz6+6/XMk5fmDSo2iY3AiHrWgkxM+RWArJsr/U7TT4s0jC63K5ceQRE3H9dTfgyh/+CMOHjoFHz/3gdzKpzQw+65qpfSzaEKD7mshs5OUCY8cl46xz+tKMJmLWrGfx+9tvwH1//iW153Y8+tA9mPfW68hMC2LU8FwMGpDOlCwFRx2VyRggF0cckY5+fd1ISaJNtXRFeU93InLQlxcX56BnkX4kU5E7sHNXyGyr1bK0Vi8nTmKep+24aqNTGWWteMD8pe3gZ0oO/bw5SmsW/+ZAqVutZGmisRIjWak4aZja1aiL5lr1aWxsxKYNG/DcU09i4btvMgVpQXJiAEkpHXD7YjsmE3xeFOSno1fvNJT2yUBSkg+rP67H9y5/z0SxCbrxye6EfspOom53ROBh4JWV5URWrgNnnH4S5s9/H2+/vQ3NTQFMm1KGG266CHffMwcP/OMt87CXoh4J+OC9t5CRk4Atm5bjyit+idde2Wgym9hMGIbRfHsYL9XXLqSQ9kblrmr8+CdX4fHHXkdqihNDhvUx242+cd4MBoQnMobIhseTzHPJAQpL/ErbgdC/jQZrftruIolWUJmUzKBm1BBcfc3V+Ou9f8Ltv74Rv5n5Hcy84UzcdN0J+PnPj8f1N0xlgDUcJ5+Ug8H9wyjt0YwTThyIU08bgFa/hZ1VIWpZB1OuEJKTfSgsyqI/1Y3dlinHHHc6tm5rxvr1bQzKmNrY9VgnBklkON1qbFh8HyvUvaQk5OTkSfXIWBUNW4LJ/HcANVtbTzQRIc/0SwFycqoXZ33jGMyceSWOHDeO+bjPbCOyrA6zHhBboz4wcEX/PgB3IUXYHpprJx1qdk4BBgw6AoOHnoycguMQtMYybRpEDe+D+vo085v81dVhtDa7CJKF7Vsq0VJfDg9BGTs6GZdcNBF/uvvH+PUtlyEzw4fKykasXduMjz5ugDspk4EXWcT0RtG1VsYMsyVs4rmAEnpGXd3U/nwU5PUlMA7qnjbTx7UYmD59AsGi3VbqJY3kF8JbW3Pr6uqxq2oXVq9bhQ+Xv4kN5a9TmHaxrurHWzgw+rcE2PglozVuujOqAcNee2oOUgvHok/ZWeg/8HxGq5NQU1uMTRtTsGK5E8uWOfDhRza8934Dffck/Pme6/DU04/hrj/didO/dhYKS4rQ3BoxwhDUspW5xOdBgO/NxRx2I8CkrWKaAJY71W81xthIU+/OQGZWAevqUmFXBwOMnzBeQ46RVsI6l8zqazvwu1ufxHHHfh+nnPxtHHPsJbjqJ5dRoGr4fQfNdaepOEDqZgCLA4Z9pnT9Zx6RKKlnHb2P/0iG7l7hRzIjZibtzhT4Unqib/9pmDz5B5gx4w5Mm3Y7Bg+/EaPH/Zp+7h+47uYn8PWLrkV+0QSC0pcn56Pd70IHcyGnh81JwYixQh7lVsqOdAk32BGBPxigedYDi5k68bgVpv82KzMWvAluDB3RG7375RLeGMSsQm0ECvMG8H06PzGMZxqkeEJXxVTamsNobwyiqSaINubF/hbNl8Ej/2pZNGYl2Fa8wf0gsebfkvbwTQJEEad5VQSqxyQxSLGYI1mF9HNDkJt3BM35EXB7+/EYcygriSUNkShzKFsSnC6vuY1VCqObEbVC6WB+7HGGEQ4wKtbaP0m39kqoxGen6c/Pc3mSQ9dtYbYUpWXpPubOOhxKYbEDKcmZPJCqFtgApcfO/FuWgedoNVJFJltFv58skgXRah7fmc8HQv+2AO8PyazqEUYK0vx+IhWTBILI6TM619Uh/VJ4QX6qWW4cPIQWoE8RT2ykT03F4LJiDB3SC/kFTKypRmnpqejVryfKhpegZ98CmvFG9sKgiGhpF2XZ4N4YNLgno+NSDBxShKOPGUr/nk+YYr9sqh/byszy8fseZg93/8El6F9WigFlfRhP9EZeQQ5CllbAtKhy4OCKulma9PlkzFUn7Z06fN40YnVj1NHup3+O3YRtjppmgmhoWoWKncsQ8jvMhjs9JmLc2FFYu24NWpr9cNgTaIKdKO6ZYzYFNDboXiRqKtVwcNkQmnpZDCc6Aq3YWr6aQV4Tj3kRCrcgNTUNfUsnMR8mwJyDP1SPdevfR0trndlRErvQr415CdT6CBISQxjYfyg/U8j0e8kiDkkz7DKVfaJ/K4APGWnKu9EViQVak1bRMZWuDk+GjrbTfI6XeL14kTXofLv73LhA6iBtsAIy8z1NtCn6ngdU1ZzPYr7XLn2+0cXt2IHYa/ztftB/IMBiahxIMV3g6aPY0AUUw5WuHNV7MTl2LM40c5o5FD9/b+o8b28y53Xtq1NAzHH++aThTuL7T2nmi6hzdv9JJKZSQ0wxnO1C/KxDppCbXUucdn/f+aKvzUf9Vdvxos86r8u5XcmA23nObuEimVN0TKnaF7SxD/QfqsECV0yT2e0q43Gm6+XTZJ/ndOG1an9CugLW9Ygqfp7+xNmuc6S9rB/Hc/d3nZ3t7lPH49/F6fN19D/TB+/NwK70OV/tTXsCfBDm8IsQ2A36p1X8L8D/5tQV2PjrZ0mfju/53QEL3afR3rKiz1qSix+Pfz7UFO+jazmUdKjbOzDSGPZ/HAcNsCa/N4PDYf0SWIQpHwf0OWMKhUKmdBWCfaF4n+onLjB7nx8fy/60K+ro6NhjPBpf9yBppuD6LO39dDokJjrOZNGqVauwfv16pKWlYejQocjKytpjoUHd6XNtbS0WLlxojvXu3RsDBgwwK01d634WqQ0Jj9Zzuz7voutUurazL23uTRIekVbAvlrSnPYVIs1zr7kK4IMlaqvZTqLX6dOnWy6XyyosLLTuvvtuKxgMdtaKERlnXmfOnGllZmZaSUlJ1re//e3dbewrUdOsV155xXrzzTet9rZ2c37XorbiZX9I54reeust66GHHrIoiOZzfH6Hg6LsxpTd449tYfri8q9zPSQA04yZgQg8aqNFjbG8Xq914oknWpWVlea4vlc9MUnHioqKrISEBIsaaJ1++ulWOBTeDYwo/irS+2hkT7Dq6+utU045xZoyZYppz9RhURsq8T67nhMXLtMP24vXNZ8762mMqjd16lQjfB999JE5rmMS1ni7cYq3KeraTpz0WXXU7t6k77rWj5//xQDr2GeVPemQ3D7KQRjzqnLPPfcYUymzW1VVhX79+pkiMyl/pu+eeOIJPPnkkzj77LPx8ccfY/DgwTj9jNNNnXjZvn073nnnHbz99tvGnMvUexO85rvq6mosWrQIL7zwgtm606tXL2zevNm4hcTERBB8vP/++6AWYsWKFcbc0lqYvuMmXWNZt24daAFMXd06qp8X0NNgdc7jjz+Ompoac+O42tMc09PTTRsEwvSn9ufPn4+mpibTt35tRdZUY6TQ4cMPP4R+/n3Tpk147rnnsHPnTuOK1IbOofBg7ty5xqVpfTw5OTk2vn+xtPEPcm9xP/xZZS9iZwdNks6YpFlW//79rZKSEotyY/Xs2dP6yU9+Yr5XkSQHAgGjHTLjZKzRYAJttEN1JMUvvvii9fWvf90aOHCglZeXZw0ZMsS65JJLrKVLl5p+nnnmGWvcuHEWwTRl2LBhVllZmfXUU09ZFRUV1owZM6zhw4db+fn5xlWMHz/e+tWvfmW0vq2tzfTz9NNPm3HI4mi8o0aNMscoUNYJJ5xgtFdj69u3rzVy5EjrxhtvNG5h165d1m9+8xtTp0+fPqYPxhrW+eefby1ZsqRTA6PWnDlzjLvSuI899lgrNzfX8EbfU3itH/3oR2YOakPHVYdCb/pQHfFht0aboveyFv+qpZ9HhzRN6kpkgNFiSbECL/ZltGDBggXms7SXzOms/QlJM3/7298a7f3Wt76FRx55BMcccwweffRR/P73vzeaRkBx4YUXori4GNnZ2eY9/TgIktG6NWvW4Gtf+xruvfdeXHPNNWhtbTXnyhLoWc36dbS77rrLaNmtt96KP/7xj2a8Ho8HZDiuuuoqc3OaNPGcc87BFVdcgWnTpplzZ82ahd/97negoODaa68151IQQeHCzTffjLq6OqNI6mPr1q147LHHjJX5wQ9+YObh9/tx//33GwtG4cEdd9xh2t+2bRuuu+46bNmyxfBBvFL/4ttBkYH5IGlvDZZ/pQmzyDyjCZzEbmnkZCwy0mgjJ7WHBku7b7rpJislJcVoKYExbZJRRqNHjx5tLV++3LRFc2c0ZPLkyaYdmlbTvjSATLJaWlqMxdDx7373u8bfyzIEA0FzrjR74sSJ5nv1SxAsms3dVuSoo46yaHItCqipoyJ/rD4pWEZD1Zfqqz+CZ44///zz5tisZ2ZZNMfG+sybN8+Mhy7LlJycHNMOXY2pq3lef/31Ft2Qdfvtt5tj4odob03eX/pSNJgDMX5KD8CW1BNMlJeXY/Xq1eYXVUaMGGGkXhIaL9oOSyYYrdJn+V5p8s9+9jOjvdJ6acKGDRt2578qZMbu/jgfuF1uo316mAtNrvH30gp9J98dCoeQmpoKCiIoLDjttNOML1efSYlJu2MJfRZJq1XkG+VDd+zYYbR5yOAh5rjGIksyYcIEM/6VK1eaurqoL7963nnnmXRRx2RtdH5DQ4MZy5133gm6DtDkY9myZWYu8tcaq8reFB/T/tCXkuSJ4ZR4Y4IY5YLpjHlsghgkEyoTqNs1VU+DNsVuM4sMMnEyw3/7298Mo0X6XhNWsBYPROI/HycBEqNpKUxd+kjQ7xsTqO9UV+ZS5wtY5bUqMpMym3IFchsy77fddhvGjBlj2vk0kqmXkDEuQFKytvzoaQNB07/cjYRM34s0N1oG01d8DLQixrSr3tq1a42wam76rFeNl5bFzEvH4hTn0YHQIddgTTo+IAF83LHHGcnWosbDDz9svhfoDielnBPRZ1OilomABaAmquhSDNW5kni9lz9nYLT7PJF+tUWkz2KotFYRKwMtYzmkKRIogRDXdhEDQFNXkbDuFZYG/elPfzIaFm9bFGe05uPz+YwgycpIENWW2hXpPGksza/5LGB1jsakflVP7Wp+aueyyy5DfV29EQiBrnkqWpfF0vxUDgUdUoA1YU1CE4tPXCAr1fjrX/9qUiLdkysNEKlunJl8ZzRM5k7aKXAErL6X+ZZWSztFYnq8n527dhomSft1fPHixaZ9mUaZYVkSBVfSItXXGBsbGo3LUBv6HSMJACNtIwxitgCRkOl7pTB61S2gBfkFZnzSeJlS9ad5KkB69dVXzW8WHnnkkeZ43I2oz66rYRJiabLGuXnL5t31pOE7tu8w89A5Gq9I7w+GDkkeLO0zPxfDV0WVGvRFF11k8kpNet36dea3kCThP/3pT42p1aSlBXfffbfxZ9I4kY4rCpZ2SVsUia5dt9YwUFotX6d2RPrM1MS8l1aJcer7pZdeMqCIaWqHAZHRjpNOOsn4w/fee89EvBIg5bPKZZULy0zLQkjQJIyqJ4arLbU/avQo087rr79uPsuqSFA0Z41FluDyyy8341HMoHiD6RrGjhlrBDjuWjQufadz1b5MtYTmn4/902QecQUQCeCDAfnQAEwGmFcCPHvObLMoccYZZ5jkP8GXYBipoEfaopRGDJQJknbJPw8eMtikKWJAz+KeYM5oGKlJz549G4xCdy8SMPI1/UnDxCwxWuDE/ai+1wKGgh0xUX3Igkgojj/+eJMGiakSGAH18ssvGwYr8Lv44ouNxdHYxGQJlzRYqZvmMvmoySgoLDD9qg+Zd7kepT4SHqVkmpvmIZMtkJlDY9jwYUb4xB+NQ+4hHpBpjBqH3ssaMB82wdjBAhunQ3o9WNojPykGylQJBJECK2mENFogKdJVlCnGKMhRYMF0YregaGJirIRC58aDj9LSUiM8MoECQaZUplwrZjpXzBEjpRkCQP5Pq1wCSyDKZOt8jVMmVtorLZTZ1LjE+Lj/0xjEdNVT/xISfS+SwG7cuNH0q7oCXxlDSnIKBx8bv9yCzu/Ro4cZt0AXwPHv5VYUxcuKaT5qQ+3H68bpYEE+pACrqX0Z0L7W+yroYMZ2CFm5Bx0Mrw5pkLWvA+mu4Iq689j2n4D/AxsTJfVflRqEAAAAAElFTkSuQmCC;imageBorder=default;dashed=1;shadow=1;" vertex="1" parent="1">
          <mxGeometry x="640.49" y="400" width="78" height="73.45" as="geometry" />
        </mxCell>
        <mxCell id="z40fJ3ub48EkseXWyAoc-7" value="" style="shape=image;verticalLabelPosition=bottom;labelBackgroundColor=default;verticalAlign=top;aspect=fixed;imageAspect=0;image=data:image/png,iVBORw0KGgoAAAANSUhEUgAAAHsAAAB5CAYAAAAZD150AAAAAXNSR0IArs4c6QAAAARnQU1BAACxjwv8YQUAAAAJcEhZcwAADsMAAA7DAcdvqGQAAGD2SURBVHhe5b0FgJzVuT7+7Oz4zLp7djfuIQoEAkFLKaVIDUpbqFLh1u6ty7299Ut/daEGBYo7hRBISCDu7rruvuMz/+c530x2oyQLvdL/m5ydb74535HX3/MdSUsQ8E8OCf5LwYmdtSEteTVyUJknlnsmpJ5Yoy35+Y+Gf0pinwrxJvGPCJ+mf8S4kJ5KKRA64vE4bDaygTIl4rxrZU7EUyUNwXHfTKFpyXtWqSlGU50pSF2d+PmPhn9KYos8KVD3oiReQoQQWs1/C/VxEjJdKc1miCsQoaPRKGzpdqSl28zz+sXQXYxwArr0zdSnAvknzow23tRXm7l3MqS0yX+XRKdgZMQ+4YnhatJIw/8wDG+euhdjErF1X3KdYBMtgiRg529qs5LyptAhogWZYrweiAJtrYNoam42vw2HVF0Dg4PIzs5GRUU5irMAL++lWz8lmW+oVSlipzClz1S9/0j8vSXEZkuTF7wkOw//WR0VwnTvXCsajgx78jMFuk59H1626ksl3QuEomhq6+FnEIFgkMi0weVyw+P2wONywk7x8rhc8HrS4eR1KJpAY2sX9h+uw+a9DTjU1ImO7m4Eg1EMDvQnS2bZrDxVZ4JfpBE8Hg9ySPB8HzChPBejqysxbtw4FORlwUHKGw3BlOqLLVmW1QGLIdW+fxS8OWKbRqYS/6Sxwelp6I+G4Xc4EWGXBvnTQCSBbUf7sPfgETQ3taG1tRUDA4MIhUIGSQKpUb/fD4/XDb/PCz8/iwryMLq2BmMrM1DgSANxaKoJRAA3MRYMUT0nYrA70xGRbU1PR5CIf239XmzffxQ79h5Ca3s7wiSyUakpqRGl2DZJUTwWRVZODgoK8+H2eNHV04sjDY0Y6A8CUQdpm061HkEsRkYBRTwtRubVJ59nfSBxEgkmq2SCtEUMPrbJ5XTA6fJgTG015s6YjKvnjENutgdu5YrF1FxdsA7hgG1KS2fTUixhwVsp6W+e2Enm1Cf7jAA7IFyKezce6cHjzy3G5j0H0NzTT9tJpETSEAmTyMbxkdo0f4kzKjfaSH2LCRGkThoRISLlZXhRk5+N8yaOxfnz5qK6shDZpLzQoCYQ9di19yieW/wqVm3YhpaeEEJwIGH3wMECbCSW6oxEwkS+C3baY0mj1LvD7zPtlY1WW6KU7AhtdiwURqbNiQyHAyXFBaiqrkBulgcZWV5k5GTAx+ec1BDGLDDVN9STidvQ2NCA9vZONDe3UZvE2E+JNH0C1pHl8+CiuTPw4ZsvR3muS7ofPjKxhESENsQ2voN6ZsH/PLEFyafkoMaYRLoo29UTiWDdgW488Njj2LZ7N4JEchp/zPL4YCcTZ3l9KMzLRWZGJm1cBrmbyowZpMJiLLS9sxutHR3oDwQRjsQxSDUcDEcRYhKx7HYHsrKyMG3qZMyYPp1awIM1q1dh5YoVbJPsL5CZmWnQVUjNUFtZjtFlJXBLyqhtHCSeiNnX04duSvzmg/vQTfU82D2AGL/n+PwYR20yecxoTB0/BlUlmcjxyvGiimc/xI9GINV3JoHpO/9IKJ28TiNSDtPGb9u1D6vWbsT2A43oitgRtPvR1tULT3oct157CT5+4ywUs112U4JY3mKMYbT+30FsdU6SLHssYg+SGK3dPbjnkSV4ccUmpLuJoGgAZQVZqM7PwcwJ43H+zNkoKcihjTR0oYSxb+yLGqAkCaVgGaQOhhLo6o/gSH0Ttu/ai7qmVjS1d6OhqZ0SEzFMFrdRfZOZnFSt2X43Mqn6x9SU44pLLsbEsdUoyGSBLMsnYSEY34HP6aud9Yb5SWWNHv7Q301VHQqglCojx2szmiku6edvalOc0hdhpfLsVXkiTtZkYTI/NhLEJg1C7eBgwaJPOp9RXWKAxs4gXlm7Fy+u3o79DZ1k3DAifZ0YU+TDJ97/Tlw4bRTtvJft0gMi+hCR/0eJreySQiGAppMlAH0DQby6fgcefuZl7K/roGrMQFFhJmZNqcZNV16EiQXZBnnSl8KVKjS18tlU7SK6ECqkCZjNEEOfuhPmhRhsxZrd2L57P/YfbUV7bwCddJ5yfWm4YHotLr9sAcZVFRkESTuaZ8mJiQg1A6U5xM+YuIRo9bqdcFPK05xpIF+ZOvQMFSmfI+FJTHuai9olho1y1BraMRi1oY8OwyCJFQgEEKNv4nY7qDVcdPpcRqMU5HuQ56Pqp7OWQR8kP8ttyhbNOshZS1Ztx6LXN+BwYwe6unupSdxYOHcibrn2QlQV5rF+xvh6wDyTvBgGb4b450xs2bkYmx/lZ5ifnf39WLx8PZ5c9Brau3qQR290zoxJuOaqS6kCs+GX9LKGeDSGlrZe5qHKDITp3VJNU0UP0q6pCW56w3ZXOtWsDU6nnSrXAX+GHzl0njwuBzz0lYy0KbG8nv4oDhxswr79+1BTWYQZU8Yg3ekE/SIEKY0HGugItnVgsG8Qje19dAgDxinUwIidKiWTpiAjKxP5uU4jncXUPuX5NC8+lRGnREfpqacbhnru5eV48dU1OFDfgXCaB2kOD1wkZpz/YrEwiR415sEwmd0OP738mqI8TB5dhSnjK1FWVIiSwmx6+2nG4+8iFz/6wmt4ZeU2aqpWxCJBXDBjAj5409WYRGYlrxiQ83o8bS2ncqRwzsQWsmVbB3nRFwzhmZdX4aFnFmOAarx2VAWuvXQerpg7BblUqQHq5Z7+EG3WQew50kjvuIWdG0CQ0iFiR4kkWmuDtDRyhE2EJsGdpJiDxjGbxKigvS3K9aMyz43KogKUlxShgI5SOhHhoCZQ32O0JwESsZ0B8cGjddi0rw7rth0kkXvQPxCiFJItqU+NymWSAyikpTPuIo3gokhXkjhjKoowpjQPo0ry2ZdyZGfSAsvhoCXecaAOy9dswTJ6+u1dATho2xMkbETOH1M6Xes0EjNMqQ8TLw5qMTF5doYPY0eVYtakapw3vgqjywvgZR8D/G31loN4atFqrNuyg1orgRmTxuED71yAuRMqydz0ZchwMgMWefVXxE7apBHAuatxpjClNMCKF204gF/f9zglqB3TxlXjQzdeRcemgmGHg16sDc8t30T1vht76prR0NnH52xIp2p00MkyyCHCbURYgkSLsmNxqk6xU4KeulRklA5ZOvMIOb70GEoofbnZmbRxY/DOhecbR0dPBOjFbtzbiKWrt2Hj9j207T0YpHPn9mdRrdjZUnr6JLIQJZTFjC1RT6il4mSEOLmS9dkopX6XHUV52RhTXYaZk2sx57yxyKUUCwZpBtZv2o9nXlmHzTsPIs2dafyMmOwsaRBP8Fta1PTNliCj0BMP0w+wxUPw0oiPqSzGwgvOw1UX07GktqJ8oKGlh1pxGRYt20DhCWNsbSU++r5rMW98OfscpUqnIBhrrpZbfRgppH+bkLw+awjQgHb0D+KHf/47DjZ20uOtIEdehkumjaYdpOrrDuC+R57Fg8+9il11beimJwpnFpxur5HadDkxcmnJ+iKX/kpC05I2W9Inr1thkoP2EOkO9A1G0D0Yxs69B40XPmVcuWEWohKL1+7CH55Yjo27j9KsBGkOFBZR3Yq4LFckJlcT+SKykGcFTLqWc2WYjnWkpTsRTtjRG4zjYH07tuw8gP2H6hnHe1FRmkv+sKGiMBfjRpdT8pw4fKAJIZoiO68Vvqk/aWRKw7Cqiv9s6eqYzZiWZpqwHfsOo7GpBVUVVcjxO5Gb6caoqjLT94NHqfkoFPvrWzBhTBWK6SzaUu1VO9kT06ERwjkTW13ppXf20Atr6GHuQj4l7ear5uCKeRPhpJS29UXw09/fj1fXbCXn+2F3M7wiMmxGqthwYYHtPTt1oo5ZyU59Gxjow8ILZ9O2XYIsdzr6SZRnXtmAPz/2EpqoWpnJxL7GBzPPJZ82iEqVNJQsvzcFRCkplkY7bXe4jDMYZLx1uKEDW3YdxFH6ADWjahjfp6OQnv/E2jJqHeDgkWZEyLlRfonaiB1DDHIyGUNXqkJ8li5tRp9ikCHl0TqaNEYYmRnZqCjPR6bHifFVJXQiI9h3uBn1LV1oYBQyY9p4ZDvJtNIYxmP5bya2qj3cFcH3f3kfO+jGRVRzt79zPm20EwN0z397/1N4feMeJOjEsHemcfEYrXIkxF5bb5POpsEiUMrCSHGJ0LUVJfjev9yM/AwSlA1ZunYnfv/gM2jrpc0kUlSuyhdpU4RUTSrrVHA8sVlP8lnZXaliNhtxhlPxNCf2HDiEjRs3oqywAKNK85FBNVxVWUIauLF513569JRmarU0DaKI0Gz7UK1WiKYxBWkHm92Fnt4BrFi9Hv7MHIyvLaHv4EQ1/YSOnkE0dwZwiFJOjwLzJo8yjiLlRA20ihshvZNPHw9CgcpOoUJeoRAvogn+/NDzaOroRg496KvOn4ECerCKR598YRnW7TyMuCsLEbuP8bLNjDXLA5a6tBqpUo9HcgqMBIpg1AJWsr5DnB0O4Kufux1lmYpHQafvEP7w4OPojaTBQ4TJJgvk9J0tqA5Bql7rC0MwEo2khpt21kvP3ahjTxYOtg3iW7+4H4+/uonmg/G7z4Xr3j4TN7x9LhKD/fCmeelf+CnxslHDgGWrjKgcQzIRXUsKihdRhx8PPvUKnn11qwljc/0e3PS2y1GalwMbTdGTL61CjwYd2LeECK7mJps5EjglsU8EcaUhGD+7+mNYtW4jHSXarrJMnD+1nA4IaIvqsZihRHtfmJLgYKJqS9PYEL1fIlUDICKIbNupST0EKYmT3U7ncx2trbjpHVdhRjG1B2nZ2daFvzy8CC3dQTjcPoTp3BmbmQRrKPbNg2ECmR4l9sHuzUY/fPjZA4tx/wvr6FHHkcFY6iM3LcB7r12A9iMHEGZ4F6EDewy1bNcxRkqCvmsMPJruQudAGA8+/iLWbjognsD4Si8WzBkDH01FPxn3mVfWop+cIIXxZuGsiG3UKRuiIcOVa9ejraMLGZTqay6YAT/vhSn5y9Zvw/7mTjbKyaxD5IyzUzESPUKvOEV8U9hpQU/zGX4KzQrRykqLcPO1s4ggIp8e+7INe7FpTx3cWQUm7k8NxLxVIAUcSzKr2i6QoxRiW9IouR1RB3718Et48IWVGAhFYGd3P/P+hbhy3niE+vvpvHmpxvUU20W1nUrql27ZqKlYMolL/UETcbSlE0889wpau4IGc5fMm0rnjflY8NINmxChNQzzh7AGiFTsCOHsiE2pFqIVWy+l4+Xw5SIvJwezJo82TsqBhlbsONSIdIYodoc19KEY0zybrEIyon+Gfd8QSGjWpRApEqBTNm8acumZ0y9HY1s3Hn5mCcL0F8Jsl512UEOfxts2qDgxCU51P5VODyK6mFXtkeZwuN1w0AF0e2miKGqPPrsML7++Cf2MFDws6st33obKgiz0dZHpNRYmcdTzps/J/hMfCSJH+JQjZ6Mz6MrIwb7GFqzZto2YA8qLM1FakM0Q1YZd+w+BPi9Njh7Vn5HDWRFbMqZGdNDH2nKolfbFiaKiIhQVZpshzV31jdjf1IhgJIhoghzLRplBErZNfVKypYmTVcrpEWxU/LHEP7RxRZkuXHn+JBTQAWT1eGzxFhzqYMDl0dsqlqWBBzl+LNcmKVfSdTKJ8TS75HTpbEClx0kYeeoa7XJQKjN9PoZoUTz8/GvYtOsQQ6sYSrId+OIn3mvi/xAlPkafxUZNZ7NpdI3Py0sn8ePSGNR0Cd5L8NrG8DLItrQNDJg+6mVLbiajGNYbpTpt6TAvVfW0YZeRwlkR21IeCbR0Bs2omGLCUVXl5u5gOIb9jW3o7OtHmt5sDEOgpZAtVIkIxkM9I36tJyRRMh2DdHomj61FSZ7fMEBnbwivrtqINKf1WtICcUby8h8EYjxLEi1QK2U+0qnS69v78QgJXt/eZ1TtrPEFuOM9VyAR6qfWU9+V3/qrpP4fx9C6x38RltcXor/D30VUn0dzXfRzOqODiMFdXF7wm4CzIzYboEa0t3cgHAyQsyPm1aHu9/QNoqGpy9g4jRfb6G0OByHGSlZ3zwjEAIu0LmmbNbI1b/pYFGRSbfLeqwy1mts6kUGuZw4rnyn1rLrxloLeiCm0dGTkmeHZR+k5D5AoclbfvmAqZk+sxmBnK6IMOTX5Qe20cMArNn2I6a0LEXJwMGSiGvXG5/Uahlfsb0JB5TQjjCOHs8KS8R752dPTY2Z9eGwxjKkqYAMpbT19aGjvYr/dhvjGmRti3ePTG5PbgKWOYyjOy0JNaQ58DIVkLv7+6hokGKOqHGO+TLF64c8LttF4z8Mk8M2CqeIYUY4H3Y6QsGGqWYVJzy5ZjRUbDxgfJt/jwnuvnocCvxMJqv0UmYUgo+FMCfprEGbKitLzHhwMIBLRiCLgdrtMyKtwTTgVoZLDNCOGs5NsJnVCb440fp3ldqAo1wUJcR9DjfbeAeOFR+ktyion0XRyUkGnAaPwac+snLSz4SDGjCo3IZ60SlM3jASlE7FhIsawHwmrZwwqhlf1FsIpizP9UJ2sW/5Cup1SnYa/PPoiNRzgpNGdPLacXvV0xEOWh200gflvIcEiuXUtMEyqW+QuK798Cuvtm5hF90wILOZIpnOFsyK2GqWi5R3L/mpM169XjmzcQCCI3v5B2mveIPUVj557M4ZA9k2N0tDDqIpSFGRnmJGsDVsPoLUnCLc/03C8BUKCcoo9hKnTgfKPpFV6JlXXiWDJazrDKCV/ZhZ2HmrAc6/tMgMkhRlezJ85Di76MYFBEtwQM5mGg3Fa6bqRYbweN5zUYup/kHg14/USAPMMk8YqeD1SDXZGYqurBkXkqCgLt7uc9LjDbJCdlVH18EdjRTQESM6lX2kKPPdmDAM+rOfd5KTyfAcdFXm0lOpt25GZnw8HVaSD7bCADSCyLCshgrN2xbRvGZjes28nE1xtVJ/TVB9NSZBZHBm5+MOjz6OPv+ldW2VJOebNmEQ7TlUumydppMnRgIrGLFKMJIfXSdXpc9rMO2/9FAiFiHZ58FZdFku8OTgNZtRJFU9EMsUVZ/OWGhiKRJCZl28eVCwdZi/Tabzs9NL1aWaGEAmpZFWRSmdurrhYQ6ShwCCyXDaUZPiNYyKGamxuYgyfjlB4gLatj9d602SjzYwgRFUXYb0xNtDMBRPbpaWkQtKgUs4eVdIX0mDDnxDBY2Y+He0oHbEY+xqPsw5nNuKuHETTPXBnZ2NvazueXLINAXa3tiwDl55XhXwXnc3IgClXjGEROgkkdIx9cLOXlRk+uI2Kpi/U3W36p1moOVkZFtudfRdOCaLAG4JIrnqkTolTq+IkyDeSjXJI1JlBM2PfHFjOV362HzmZXlNvV08YLW1tRIKkIwKvxuJDgya8SQv3whHug4PITKcEKfpTe0OxiJmwKAawmE5pZGAZiThcZDY7OVwzWRALsP5uDLYdRaS7HvGuOjiDnXBHg1j68iJrDhqfLcnPRWVxHqWb0kAqigGPoT057qBBKxdNYJbbw8YnECYeNWWJmZGblcmY3jKZxyF+BHAGYqtkq3TR0VzpQo8k8Wa+8Z6NxDZ5xJImz8jAKt16XnO63ExirsP1DRjo64PHkYbgQDfCvZ0oz/Vh+ugSXDlrPG6cPwXXzx2PCyZVYOyoHPoPDGOoBkMUc00NTsRSCD67tom1ZRL4JL+RdTSlmSkWonRGAkyDqMh34bLZVfjC7Vfj7i/eige+fxf+8LVP4pGffgdf++Qd5q2c9El5aTEqKiuNqTGEVvTA8g3/mfKpO6ninU6nCSnlhHX2htHHMCxOhs3LzYSfIbfibM2LezNwBmIPB2sZjF5kpFN05A2LJwUaLRNYTtOpkGl1yEoC5UmlIdA3NSblZWrynp+xpu53trZScvtQk+fGtRdMwhfuuBE/+PKn8N3PfwTf+PT78G8fvQFf/viN+O7n3ocf/+tt+MbH3oMrZtRQJQ5SoYeJQKplMmE6229ZxLMDq5UkDZGciIWRRql1sbzLL5yOf7/rVvz7Z96Nd18xG+dPqcbE6kJMqMrF2IosjCnPoWNGn4Yo8ZNS/ky/SmEHaRzYP4uJBBZe1GWv14ec7CzDBC0MZTUCF2d8XpyXbaYni+lNxjcBZyD2cKRYKJLtdjpd6OvvN8RXwzQzRZ6hXn+aYdLhjxmwOmQlgTKk0vGgHOJyladlNB5Nr2W2DK8Tt123EF+9/V34+sduwjsumobyTBs0z94gginCh31MRezRVVNK8R933oCbLp9JW9hLpDFaMAFzCtFKZwbj7cpmCsFk5FgwACfV7vVvW4A7P3AtJlTkmvHwMCORQ0casG7rXqzfdRB7DtVj34HDRg2TtvQl4giHNatVxsWafiV/LxU+KbwSJoqLC1FUXGRm0R5tasMAPXjNAZg4rtb4RpKukzF2bnAaYqvYVFLD6IDxU7MoFSIEAyENSRvI8PuMFCoWTr1THhlIM0hlsvNEcnamB1633cTuM6ZOwu3vvwlTayuNLdTAw45DTXhm+Xr85amX8csHnsGvHnwWv3/0BSzftBchNsbDiOFD112Cq84/jzH7IJlRCNcAheJW1SUMWqQ/HRhBMgSnSibxL5o7Cze//WIw8kQP1ezi9dtwz+Mv4J5HF+G+J5bg1/c+j5/9/kn8168ewNpNO0zZet0ZpENnSC3iSiiEV/6YJmlhU9LtdhQW5sHldphgoqG51WgFjarVjqo0VBBqxX8pJlE6VzgDdYzvSGAkyxBA11pRIXUdpIrp6AkZm2TUD50INUiMYFo0QkiI+9kJSZXdrpkdlvpy0J4ptOoYjGLJ6i34zV8ewd2/fxC/+9sLeGTxemw80IU9jf1YvbsBv7jvMTy5aLmajyK/B1fojRk9nGiUoQwxK69a9tfSB8I4/56myVb/pXrZHqqY669ZYLRJPwn9zJI1eGbFVniLijDr/Km4+qoLsfDyudh1tJepi8SyvA+LhZmSBDJmgW0Q00rZJEh8ObhlJUVmkaEmIda3dhHHUfiI24ljS+FmQdJwaRrZehPwhqKo4sXVusrNpi2i06QX7nsPN7KlCTOUWZSdwYbHkgv1kkg8lobD8Psn/iawUGM4l/+kLbTCgnjDc69vxzd/dj9+8de/4/nXd+JAYx8Goi7Mv3Ae/uWO6/ClD74dX/zwO3H7LdfitVWbcaiR3izbXFZEO1pbhSi9d7N2jOVLsqXWjxH5NNS22gEztlBWVkJ7nGMY/Gh9M15euh7lRQV41xUX4MoLZuHyeVMwZep0BEmxmNuFssoKw/eBQBD9/QOUTAmChXAbCZyQ3WGkIDcwm2ZqwqgKuPh7W/sAmlr6qIXIAKWlyPY7LCKxsJEMpAyHNyS2iBKj2tQ6ZnXOSQdNE/HqaFfU+GxKT0G2j43XkgHr3xAxlU6E0/82vCsGKUyKSZ9fvAI/vecRrN/bgo6wG2neQtjcuYgmHMjI8mNUWQ4qCv0YXZGPi2ZNRXn1GLy8YqMZycoiI04cV2FCJs0Bs/zJVN2pGofXPATsMnNasbuf5spLSofJy3WNPThMZt+1ox579rSBfhR27GvCL373F4TtJCS9My/xIugfGEB/Xz9DQg2QqH5KPMt1JKVUdjmXdqG8MNswUl1dE3p6BhCk9qihF+8kgS1sWa+Z3wycBbFZkTxt9ryilMj1ktPY8LqmZsNtWRlOlBR4yASMBYXMN2G3jZpNXkvtUQCMM3PoSD3VW4Jebba5p2FEp9uaRfr3F9dg2br9GKCxo+xiw6E+PPbiq9i094CiHNgdNhRnOam6IwgEB82rSRHXGou3EG7Z8FMB85o8Fuvpb5QN6OsPIEKc7KUz9s2f/B4f+vyP8IXv/Q6bDjQh3eEhTjLMWytBL0PG3v4+gzOBoi+iyYSVRlJZnhYRZHlt5hXpwbpGlj8Ihy1qVtY4iE+rxW8eUrg9JUhKhRTNBYszVs1hjYV0nOSIKTyQwpaKL8jKMIvqFCoYBI0U+KhoIUJroqJwIUnMydGcbb3fDlihH7VIgNeSkq7eAXzv7vtxy53/hfd95mf4/Hd+hrArEwfIjAMsUgjM9Hno8PnYbnIkk16emBkobzC0qrYcU53Mq54pfPNoDJvESidBQzYvumKU4qxywJWnHHCwbA+jFj05ODho1LhFLjIVzVyc5sQh6WCJGiadOmGcsSQDIaC1o4/eewjFORmYPTaDkq0n5d4xSjFMqVaMDE7urTrID6VjIAnhDWWeNWms2Bv7jzTjYDPVDevX3PEsDyPaQL+lBUYKRJLqFWHDWttMZ0XS63J76IFHTMwq0O8ayFHSby5/Dnpi6egMkTndjEv92WYBnqYYa7FeXk62WeWhMjQ1WPPKzKDJcZ08GVKEluNpXjeyLZZ80paTSHF60WH+NhBPNwsLoqBQBOLwUDjUVGEiZF5ZWlpEy47MKCBDuGBkwDBtYUEuZk4YY7bl2Lf/CHbtPmzaWVOeDz/LVwuk8ZJDMaZNqXSucGrWPo55VKisDbmRP4wqLeBfLV+l19jUYn4uzM9FaWEOuZR20cSzIwWVzH8kZpQMpfVPKl+hyfDODe+maotS/COUuKiRWP7K6IF4RGtTuyFOhttp1lyJuCKyme1qyjuzdGsio4jsdDrQ2iazRaanQFYWZyAvP4+xfRQ2Sqg0tPDjYrkJtjvLn2EmIaj5wXAYIUpqCgyj0okL01b39vegpqoEeZlW1HG0sR1dFO8onYQ5DDe9DmoPoz+V3oQQJeE0PRUXWcH+EGpjhrtG11SqxQiyQQfrG0kEoCAnk/a8iJ6zcrwZYhNMdXppby2bNQjWJEbLs2J9YgDVoc4nUxrNR5oW7zFRcvSSMBaMoPFokxkfyKK61epSUVvj5JrmfHZvxyiN0aghdnNzC3p6g2aAIztTxM5lDB02iwKdtK/utCg86VRFsSByqUmICqGJRNcLkyFCCV92aQX+YyCD+fNmgz4dOnvC2L2/Bd29ATNuMWV8FTJcaiNxoIIMXpVGDqfpsRBrIdcCS33os7w4n86Hh/YlxPBHkw+pZqnjM2ljtCTSWv8sSJUxPJ0ZZJk0idD4nckOWuTU+15KDQlpDbood7LzzK+vsqiSgnRLmfKGDU2t7eZ5t8tJtaplNCqWKlBJRZwFmFrYFs1k3byrzvgAJXlZmFxbauJi/WaISWaU5hCza3BEGkV1qCbr0zSVwIdoRhKU+Mo8H2ZOrDTrwPY3tGBXXQMCtF1l5cX0U6jYDcfwSWkM0yux7sjhDOydamrySi4kK9XIVnlZsdl96HBzO3qpLoWAnPwCODxeMzyYevbU6dQgPMi6pUbhtCpD4YoUWCAcoZdLrSHXXDmFtVTSM/ynwEYDFQ4iX8yggZjOAWtY19oRgUZIvzFJOo89fgZQOYouYmQyp8+Pddt2GebJ9bkwfUwFQyYfzUXY1KH3/SG1hVpoYFCvM2l++EeDMVa4laqMN+N2BLr6cPXcaSgytj2OA82tONJJ5rQnMG3qaHjo0VtyY0piHZppLqLr+8jgZGKrrGR5wy55oazWt3GjK+F22qh6BnC0udtMxamtrjROkFm4NwIw6l91ELmit9tNAjFsEgwENB1KPZfsJwl+YqIEDLXQAo266dcUDM1wPXuUWVOB5Dc4sWHLLjNyqKZUlFegorgA0eAAw07mkZettlH4WtrbTCtFbLc2FpDPkWyI6tVs0Uwyyg1vmw83G93d04Nte/ahNxBEER22aWNLaHr0Pl4P8E8yEnizYGHzDcHUaq70wAXnTaYERdDb24c9Bw6b9hTlelGa56WTxgxJVS5JSqWzA9lU5WVIIjOdbJ02lEsNN+q3kxP/CifmKtVSAm+kchh1ygLV1hQLGOk2V6cHy3wxUcu0URpXbdiFQYpyfkGGWTasddeJ8CD7TIPG9unFRk9fr9F2qsXOOrVIMAWqe7C/F3NnTUMhzUGEnlxTRye279lvGLqaKryqKAc2XluDkUQC26BWnCWxTgvn/LwemF6Vw1CLqoUNOny03tzTnLSa4lz4SCXRxPgkokAShgiu7iYTf04lg1T+l/2TNKXT/qd0xCDVoqZEyXabKT38HJ6Gy6nKkhet8CXIxAjOgN7IGXU6LO/Q1akhpXo1PUiT+R3+TKzYuMWsjJHPOJNhaHl+FomtVeLUOrS3Xq+fHniMoaMIT8n2+MxmeOq/k6ZEA0/ORBjXX32p2XIjwLwb9tST4L30hZy04WUoy8+0tvRi3WqBnk1aLOs700jgnIktHnVRvZYX5JihwIaWLnTQS5XrMKqkkMaLsSwJphckp0an7qXSyaCOCbluh9O8vlS5qkfSYVZBHjMnJyYLhAiFbdrjxOzuwOwa9YpQdQ4xnECslEqnBzP/TJKlVRyJdOw93IRNOw6Z38ZVF2L6xCqz2lMvVzSFKI0qW/0PBBhusTqt9dZyXMXYGhfoamvF+MpiTK/NpDcPdPUPYMWW/bT5ThTSyZ1UU44MmgW9TrVW0Lx1cM7EFlqd7MR5UyYgSI+8oaUNR442GqKMp93OSo4JC0FCpPWWiQ/w+4k29ESQjVMObULjozSIsbRitZPmQvPIjifWiaCuWEm5pE4L8vNNmTFJeDBI5MsF5D/eM++I3wCZw1uruHwgEkN3IIy/v/KaGQ/PIvEumTvLvB9IRLXJllWeTE4fnUM9LUdRoZu0lfHa+eDN1yxkmKYQMIFNh3qwdm8D7N5MzJg4BuOrKhiKRZFudLgFej+g9qZ6KMyOBM6Z2IIMhhbnTRxPteREz0AI9a0dpmNlRZmoLMs3SOw3+3yqYeJQNfyNudQoWeo+7W7oop5UpwLBBHr76fGSeKceNeI92TXjxChUsVFVOjDY14fq4iIwBEYapSqqueZ6nqKuES3pxZTTdHo4PoN2TkjY3dh/tB0bth/BACORCaPLcOGMCfCToKn8CkgGKdlqrYP9cLisLUOi4RCqK0owd2oFgv1xDJLwi9fSLATpsNEhnTO6BEUuEZb4Mow4DGcpPf4m4JyJrQc0uXBMeQG971y09/Rhd2M7bWMCXvZu6uSJ5OAIO2iHnQjQIIjUkTUYogKIbHK1tUEBr5PJzASlRCRiUTonjJeVl6AZG9rdMKH3nKb2E1NKY6SITXUbjiPP68XUqiI4SejOvkG0djJqMLizClZzZGeHJzGmhWDaXyJcd4aDQjhtqdHcF8DqTdvMwE8Gm3DN/NlmUEVLcR3sc4BEVVKTPV4X/AzbNB7e39uFyy6eh2yvG1l8cH/XAF5avQ5eexyTy3IxY3ytaiY+NDglvWaB0UKG0EPtO3U6MwhbIwLt6Dt+TLUZYTrS2I2G9gETb04cU0N7y6qliuyMfYlVNXsIbafnTqlpM0+MelaeqV4t2mgrNSI23LE6HnQ/Ka2ScEKgrwflhbmoKcsxDlFrVzcaqX3EfOQqk9dqxenbMhz0hGoxuUkIra7euOMwNm0/yP4nMH5UGS6dOx3pMc3gCSNMBhsIMurmA17aXxdDlACdzNHVFbj0gnHEnWJm4LFF280khdJ8H2ZOrjYb5ojhVJtMjQWqNZXeHIyI2PJZ3B43pk8eQ8KmoaWtHQePNpj5UzUV2ahm6IBw0MzCUCNTyLLaf+qGi9BmxQmRaVQtiS1J9zHezKAk2Iwas+BE221KFBGZRMZQfzsuumCmqTDAvAcbOinZfXTY6OHLRT4GxzB6RlA7VG6qXoVw9S0d2LDzIPrpD/Ar3nnFfGTZqYG0kI/9ttHECbmarBge7KPPMIDzZ00wc8C1x2tdUxdWr1iPXHrvZfl+zJ89xQwiWfPc5RBaKdk7VfumYUTEJuMynk7HaKoevyvdEPuwUeW053ShZ4yvBiIktmyPQaiQlXpFd2rQgISJpZlT+4MOhsIU1DTaMqCqJI9+Db+zz0oWvVSu2Eil6x+fJ0PEEiFk+dJw+fypZpvKrr4B7DzQYBbPa0zcYiI9L/KdHbEFqiEFInY83Ym1245i6/5Gs3Z6VGkebqTj1dfRDI8j3bwM0ZvCcChI9d2J6tJ8LJg5FllU62rXHx9bgv6eAUq+HXOnTURZQS5LYS1Wt04Jx/ssqYzD05lhRMRWuepIaY4Xo8qK6ETRK2/tJWK1nBe4mFyqBeuS7JRcW9JhSfqJYDoo8bDZYWOYogl6Cun6AlKYjOvppYbo8MlmagMaLYpPlaskIkdpL2Uv+ge6sJA2tKYsy7ysOdLajc17jyDNlcHnWL4Z9lUbxB7nQHA+IskWwqV97G4v6ijdr63fzX5r9ipw/VUXo6IgA560iBkwUW97+3qpaXpwxezxqC3ON7H1tgPNWLR8FVw0hQphL7twlmmFsGXhZ0iyh6ch0PWp0plhRMQWvvSeuCgnC5MnjDOzSHbtO2xmRcaJ4AlVhfTKC2mPApZ6ZUNUkXB8qiZZ9/mPSBQi9abowKF6NLd1md/nnTceleUlZqDEIJoEPwlYcIJev80WxzuvWWDq04ayG3ceoM1mnO7wWuWzsqEh3SGGSaF5OJh7plwrpXIYxPNSy4WXr9mGbYdajX+U7XHiJkp3bUkWcjPpfTNvE30F7aJw4bTxZldDFfPYM6+Y/dBjsQAJPQfV+dlGEKIUEIvgAuU0lSbBtMa6HCGMiNgCalhkMJyoKSumA+LEwfomHKKjFiVWXHSl582cRq+YxBYiTbgjhPIfEZ1Kw0FSo4kP2lJaM2OONmqf02bDCEW5mbju6ssQoDdLo2vecxuVzDKFDhuvnU434+kQxo0ehQqqfZXeT6do6ap1ZksL7aik5a+qwyLtEKSIfSpIofi431mpRuk0MtZL7fPC8i042j1giHvZvJn42K03w0vMBhiWHmnuxpRxtZhUq3lwwMoNu7B590ETxlUyVL364onQyISdeJMraq3htIis2SnSP4aTTAt0P5XOHUZGbNYrIrjJ4WPKCzGuphL9DI82H26B2U6SKvmqi2eZRfvau3OQap5oNmpYYAYIVIYQn0zWSwoyAR0CTV1up0l4fcsBdPb0m41z3nbRRMwYU47urlZGV07aPXq0Nge0RXRwkHG0ZooMDOCW669GPv0IOWK7yHy7DteZ3Y61p6gJA4k4MapCOyUNoeq79Xl8OhGnJjxUItrstLV2zSNzuLF6w07sb+wzEzqqsj2YNXYs+5TAAdY9QPNzIRlAuxjKp3nouSXo6O3DQHcL3nfNhaigBtA6sHSGccYfYdn6jDJ81QEV1rvApGDwvqVmrK/nCiMjtoDtkDarLC3CtAlj4PH7yLH70N6pnYISGFXgxpQxVWZrKwftmwit7SbUEyPF6tGJIKQT8yrXThu7bN0ObDtiOUD5Xjt+9Y0PYnRxLvrbGmlGiAAyid42ab5XLBhFVVE+JlVmm+fjkSgWrdjC2Ecb4lleuiETf7R8hxQMvz4eWMwpQeWrj2bRARkzwoD62ZdWmHf8wTDbzntyMLu7OjFmVDHGVZeb9/6Pv7QSOw61mJk30ybW4NqFM+GgEysNqNkpWoQokO6RhtTkSLXOMoKpRDhdw94ARkZsdVZP8jPLm27WN2WRcxsbGrHjSIeJjzXAcu1l8w1iLWUr9IjIpoTjITkCpqScJjdVb3coDb96aAl21LeZ+V8eqr57v/sxzK3NQ7h5L7yJQeRm+anC+VwiiAvOm4QMhoRC0MHeCJZv2gebN4+10qljxdYOv6kGKNcQoYXnE9OZBEi+SUwz+lWm244lKzbjpTWdiFANad+ygWAAEXris6ZORpjMdrAnhhfW7EbU4UOU97/4mTvNWHuUGNK9CE1XiMzTR+d0gEIRIS7CEY03GF1kJbWJ6YwNOwOMaFdiU5sqJWjMOGFzYu+hJtTRbstLP29KDbnbgdKSXDy/ZB296jAclGytqdawZ+rhIQ8z+Z3lHrPu2k7K6UVLR5eZmzV1bAXyfB446eTMmzMVuQxt6g7tRTelPBzsR3o8hPdcczHGVxSYNj314hos37wXmZl5VJGpJT/SGqk6jweDxJNAN0/xgziWSQxk2SQ5jC5s2rgZCy4mw3ndcLvdqK2qhJ+hVi8Z4y9PLcGKzdrj1IaxtTW47IKxaOsdxIYddXjxtfV48pU1+OvTy/DI88vw4tI1ONzQiqy8PGRmZLB4yyE91hJenLK5bwAjIDY52expZjlJAn+GF4eONmEv49kOqvG5syejKj8LHprormAaNm3dAa8/0zhq1LxsaOpfqtHJvyzTUhjaYZCMke4wxy/t270D2ST0jMm1JmuGy47pE6qwcO40jCrKRS6D+6rSXFw2ZwpKsnxmcOeePz+AXs0uVbimthpfgKW/BcQWw6idAj0nM5Hh8dMOd2HdynV428K5ZtKC3TBvnAQ9giep5nsGyfQuL3ro1D3x8gY8+cIKLHp9PVZu2Yt9jV1oo+/RH0mglfH3FoaLi5etgy+7CDU1xSakZW0UJgtvI4EREZuKiikph+ytKu/sDmLPwRZ09fYjw5+D8yeWEwk25ORmYdnKDegO0L5pjxAVkQRLpeqOdVeTb3SlOd1ROmAKlaKBXoyvKsLbL5mFChJWtNL+pUKy3jZNqq3C+bOn4uJ501BoNrGlDBuBi2Py6BpGBgk0d+gQN50cJMIboTRV6uMYnJIJdO9U9wnJh0V2OZfaGKAww47J1XkYT8nNyfYhnfcl+DoBaOOW7Sa/5olHaNs1MVLrzTP9LtRWlmBsVTFmjK/C1NFljNGt158BqvHVq9dj5qypyCMTa3avtRRrZEBNZLp+DiAPURtVac02jRPVkpB7tGMQP77nKazZsQ+FOR7c8++fRlGm2yyK//Gfn8MTr++ASypVwiXtwIYrWfZIAUec4Yd8dkm1g7bMzjAsgFG5TnziPVfjshnV1BQ27G/tw9+XrUdJKZ2x6gpU5vnhoqQLBXY2RFJHU29pV/Jla38IT6zag6coWW0dnWY/cnqBhmWPA0n9SXAmYkuNC4H0zOlNZ7uCxoy87+oLDN+EmaTmta9pfXMbdh2sQzdDsR56cJrKrDNQdChNpofEppNbkJNhzieR1uwPJvDksm3408OL0Nc3iCsumo7/uOsmZCSrHimMQLJTnZcKV4hiSbbX4zAqfOeBo2hu60BFVQUm1JYw/NLJAQ6s2rLHSGSanaGGeZIEl0RItcscUFSjDNHS0629UrRnqbaHvP1dl2DB9Fr4SND2viju/vNTeGrxCuw81IodBxux68ARHDp8CNkZmcjQuR0sW2PPg/To9HbOQ3VaVVVAdZ6OfftoM+kApVHDqA71RflTXbKEJtU/ga6Hfx8COZtS34oGHCTQHTctxHXUPjrbQ9tkHGjqRF8oAo/PbeabSXqnjK7A1HGVjLurMXWMdokoRWVJIUpyfPBrgiXLlHbT69388jIsohrvYzznIMfcdNksagqZ0FMx5dnBCJ5k56liRWyRWS/k1WEtU9F73SJKtd3toY16DU0BzRJJYFJNGc6fOg6RwR6GF5JmPinJEMKEbRJaJsFMUKDikLea7U7g3VfPwYJZYw0j9VIUf3jPQ+ZIKWdOMbrCNmza34THFq/G0rU7aAdDKgYB5tu+vxHfvfv3uPfpJeii+ch12XDlnHGYObGKEi8bkJJrPnCMlqeJFE4D0iDyBULBXuSxz9Mm11BrpSHA/j7w1Ev4yW/+hp/89mFeL8WuQ800c4OIknDas1mjj+wiOjoCqKet3rD9ALbtOYRetjVCXyVEgta1dqI/xJCMWsMsXzYNPdbYEcHIvHEjApZEmx2LJaEkuNvrxeGWDnPmVmtPiJ5kDqaNLTbzqM0Ou/sO0TMPwalXn0SuBZJsy5Zqyar2+9Q89GsWnId3LZxF++8xHsJP/vgMXly5EzZ/nrHl2hQv2NeBasbdt73zcpzHuNXmTMfuhm78+Nf3Yyv9h511HYYocyZUGpXZ2N6NfUdaKHlkLiLU8FmyHZaXLgLqMwXWvZOBrEkx0SSDQHcbzieTXzRzAjzsp4ZOf/jLe9EZSDd7ve7cexTrGBWsXL8TqzftMQfkLF2/1xyW88SLr2Lx0tfNPLSJE8cilxKeoJ1rpx36w2NLcaipAzFquCvOn4oLpo0hpljvf69kHw+avK+5XnJ+9J72XW+/DLmZHnKkEw88uRiN/bTIzDNrUi2umT8T7vgA0swhppIuIV0fZtyIF4wvB7twyezReP87LjAOV4iC+MeHX8aSNbsYr7rQ39OD3tYGZNvDlNZJ+NJHbsalcycbYnbSlfjlfY9hLwnuyCpDT8KDpeu2GsYLUbXqLC+3x8P6WO+5iPEJoCZrmY+cQM0VKy/KgQ6E06L9bfvq0E71EnfSofJlI+bIQFfIhoOtg1i9qx4vrNyOp5asx0vL19Ez9+Omm2/AzTcsRHl5Ps1dOj1y4Of3PY+Vm3YZXyjfm4Z3X7PAzMdLMeZI4U0TW2CpNE1UgFknvYAhUZSS10Xn6L4nXzLunI/EuHjWRIyryEeC6lwzUiShOvKwr6ebmkFrogYxe2o1PnvrVaigrZP3+dQzr+DP9z+Fno42zB5XgY8QMT/7ysfw0E8+h6994t2YMbaKmsBhwq0/PPA0ttOOOzPyEadd1uYAudl+ahin0Sw6Za+X0QKV0DEwo2pMMiepYdxUOjMkzMQNTY7Q/i9at+6m66HXtIqLWzua0dh6FO2ddejqqkNP91HydCdNSQk+8I75uO/ur+PPX78N72VcXpnDKIOMsqepD3f/6Wms3LDTMFSwqxlfvvPDqKITKrDGzUcOI/DGTw8qSEvYOiiNH/jcz9HJuNFrD+Ebn74Vl04qhxavvcy48pcPPIv+GCNHTzaJlGYQ1tvWiHFVufjx1+4yqyQk6UuWrcafHvo73v6u9+DSyycjSzsAsny9OFC3Dc1YZjCcwD0PPIUHX1qJtMxi+gk2Shodw0gffvzNT+O8Kut148MvrsIfH12CYJrHDLxYG/4MdZ/fjlPjqTd2J4PMlqZPRci4vfjinR/AlXPHm8X6WpzbRefwSL0wodArSulPIC/XjWIyHau0dBr/6IxQeT8BxtZLNx/Ar//6JOo6+pBBDdTT1oCvfOp2vGvBJLj5vGIfvSqx9MrI4C0ltkAEpdOMZ1ftwrfuvocNz0dNSTZ+9JXbUZzlNi8LdO7FHx95CTRp1qk9RFxVngvf/fwHmDfXOHHLN+7Ho88sx4dvWoD5U8cYB1Av/TVzojcQoZmIU3OEsXzrESx+ZQnqGhthc+WQ2ezo7ulAkT8NP/zixzF7UrV526RQ6JEXV+IPjy6lOfARdZY3PTJi8zeqB724SYuF8G+fvRmXTR2NOEMrj8868UAghhRhhRPVIs0n6I/GoYPw2hn7H27uw5PPrsSmrdvNewFtN63jpD73wRvIQBPJtIrj9SLClJBMI4O3nNjRcJQqNB2DbPi3f/EonZFdxhZdSm/4k++7Bjk+ii3bu3rLITyz6HV6o62oZQjysVtvxNh8O3pppLcfbsOPf/sQxo6fii/eejkK6LnRh6Mt7sLB/fuxe98BHGxoxdb99WgfCMPPsMurRQSUkFAwgImTqvBJlndeFeN6RQtsj4j9txdXULKXmqON1W1J2TDanhOxNRQoIjgouV/77E04nw4iAwgSr5VEs5tTCzXaJbWuOWmaN66dk/oiMRys78Kew01Yu20PDh5pMO/vtaOj9mybNGYUPvTet2FKVTGcZCTz7l5tEplM28RCp2nTG8BbTmzFTrKJ2g59X9sAvvqLP2BfUzvcTjeuv3QObr1iDsryssybLPYfff1ROnR2I7k68GQ3Peh7n16Kpa+vw3XXXoXbb7gYhRkO8yLkldc3Y/HLOjhlEN19AcRtVOq0zS7G0plelzlDc0JtJW68Vmuo6OWzvCClx0svOcbv9z+/DPc8sRxhR6ZBnlmSTwQOoY5XBqEp0PXQd72IEOjDTq84FhxEliOGb9z1Hsxk7KwhzZu/8FPAnYWS/EwzgKQobzAwyH5qz9WA2cW5rbuPNEs322O66Rz4GEfXVhTi0gtnYcGcqWaPGilskdWAKHRMA6l2XZubujEMTvx+PLzFxFZRpCA7qGMO+9iR1buO4kf3/A0dfUFkOl24YuZEXHnJPFRXFJhjkuinIYM962X4sWbnETz10mps3L7PTE8qKczH+69fiFkzRjEvOZzFCwlNdLtbm5rNArkwien0uFHEvGV0ZLzkGm0lpYGNFdsOoqmlBW9feD60SPDhF1/Hb59YRsnW7k4Ja8WnaXMK+OA5EDsy0IfqXA++/KkbMaW2HHT6ccVtX0fE6WdoOIAI42S9zhRDScK1+EGSqrg5y+9DcS6ZIteLGRNGYdbU8ahgGCmmP/349/C2pq5PndOC439764mtQQtyYYR8roWr4UiUqnw37n1mMQ4daYXfm4WqslLMmFSJkhw/EZGAh/q0rqMXy9fvw+H6JnjMfHNrwKa4rAzz503CwtmTUFXoM04N6Wjmcsl6qTuKw2Ub5bzxETpHLSxrCx57dQulxI0ff/VOZNBVfmzxKvzm8WUYTPfTQdJRamqvnkwBSztLYmuQI9zXjek1hfjiR67HaEpmay9w9Ye/DF9eEaMSrWhVy0g8Etnr9SIrKxs6uTePndCKV+FBa73zM5KjiiSFTMvpx79FqhS51G49NTzvcFLq/vHlvMXEVgOkoBP8y7CKcihcBqIRvLp5Lx55djltVbPZZ8Tj9piYV79rTXM4FDHro9KJoJlTxpjF8xs2bUEfpcWbkUFPvRQ1FbkYM6oCpYUFZhjU57aQNECnZoDPtlKKDx46ggOHG8xYdCCWjiljSvHDf/0o1Xw6nnh5NYn9KgbTLJttEdv49Ekgcs5A7OGIkrSGertx1Wz6Iu+/yqjttTsa8aEv/QCjaqrxb594DxlMjGmd163dk0Rwn4eEl/VhGdJS+lSSWVHVp5PpIVArUi05Me/wFh7fdsFbSGwVM0RsS0FqkRvjWNrLPjpust3L1u7A8tXb0NTWiX4Gx4Eo89ld8JNwxTk+XH3xebh49hh4yQBLlq/Hs0vXUW33m/Fsl9tt7Fx2ht8sLtReYlLlAbr4sveRSJiqk6o9rINV4vB6aMepDf7ra59Cpt+OJyjZv6WDNiBim9bpLdIJCDoDsY8HG0KU7PdePhO3v2sBMjI8LH8jvvn//mJOyP3T978AamijaQwRhxWjSyPJyXvWAJN1ZaUzwZnI9d9GbIEarfhS0mK6w6QKU29208zWyq0dPWhs60FLZx9au3vhzcxGbU2RWe9USvXmp0OlVmnpjxb7v7BkDTbt3o9DjS3o6uxGZnYOHFo7pZiGbvogvXBJkNsWgy0aRFkx1Wh1rXmPPqEqHz/6t48ii47BE4zDf/vIUvSn+dgWy2ZrB8Uh4PVZEVs2mD3t78bHr78It117AcM+B359/yL88bGXzAuOP33v8yjwMh/bKJN0XLECMtlwz//s4UzkGv7byW3/BxBb42Up1ZgiOEG3ZGzTdZp8zEwU1FHLqjxOyTdvc8jqwr2SkBSglKYxfyIWwUAkgu0N/dhFord1deNoQws6+Gk2w8spoD3MQjVj9MljajB2dBbzx/GxL/wc46sK8F9f/iiy/ZYa/50kGz5Tr5lWzDYnW0hgxWdJbDFXqK8LX7j1Srz/yrkIUct89+cP49nXNptJmH/6z7uQ77UdcwmOFas6Dcb5gxFtCcHpazoZzkSu4b+dXOJb76AdI3QKhlA51BY2YhhSk/g4BqlmprLrU3kMUthc1WDu8Y/uaXxd+Q1rsVxdNwwE8O5P/AjV5QW4+6sfR25GOp56ZZUhdj/8pgCdKjh8WxA9qeePgTVwb10fB9riMgGXPYZ//cAVeBsdyEFm+9f//AuWbz2AydWFeOAHnzFxt/FJ+NvQ+4tUfalPsZux2seBya5OpmB4s5L/rJtDPwzD9CnhjX4/R1DFcjuGJ0MCK6nHJg1rOWFYDpNSv6a6onsqSd623lFrCrOHyUfJyFDSdfKeRq+UT5vpiJDaODfCiECoTWfdKk/8LUZJGPdapZ8raN/wiNmFyU2/wPAEy+ugidGOEZJ6gWm/+WO+DoPhBFdeK38KTPbjb70lMJKe/p8Csxo0quW0ZAJ6xZrmq9eEZp9VjU6NELR1p5+EzvB5DV3ae2Jo7+pjfXHk5+dbmZJEPonWJ4FKEOHl1ci0/GPgn5bYGofW2Lc8PQ1VSsK0p4k6bPY1T36eC4gIqZQgA2mI1qMNc/n9aGMHBoNadRJBRVkJ71hg1LceOCUM/yFV8tmClT/11Nk8+c9LbHZfgxnah0WSLWT4KYXaX00vMSzda30cl3QvmU4EOVZWUmyRoIfvMwevidjN7Z3muCkX6yzIzT4N8k8sVblOld4IrHzn+tQ/JbGFfEmyzrrWwSra4F1m1OfzQafsGJeUIvdGcp3kh2Ogx8w9Fi6TUJifCa/PZUbwegaCSGc4GAkG6fn7zwr5FpgCrcvhcPYFnDX8nye2IUAypdCmRf260losrTMbJAF0y09iu5x04ZjZWEajY88Mx0m9kqlJO0alozSLNtttTbBqammzBlDiUZSVFL41tHpLChmCfwrJttAvEAmpojWxgPY6Ny/H2t8kpIEe7TZovSEzi/6ZrMGOoSSJHU7YE0H3xEY6Yc8eowQ7GAWwcj9TU12DMRc6RqOiMCNJJ7UslYaDfj1FBYSTcp8ia+rWqUs4PfzTENtSyfqrQZKYWUmaR2JHYlH0a1N69lSHoHrdCs4sYgtd1tTcIdSlkJ1KJ4KJcBnSZXhYfobHzAuPkpdCQQ3VBknoPOT76Oknc5+6lFOTKpXzVE+cCOdKaME/BbHVcWvCoiBhXiNqqU9pYT50xFNnT4/JpE1/NAZvVnYf9wLk1GAk+YSUrIzhVR6Kiwq1RgItnb3mPbW8gFnTJputpa1Xp2I+fQ6/Pjuw2PathX8KYg+BhUypZA25FmlqLond3TdoEOdypsFh13QizeciMumVn/MAotQ9ISs7Czm5OaZcnR8uhtKr2ZlTJyGmEeP/hfB/ntiWoMlWS8GqO0pRo8ZHFWXDFg+jn1Knk5V4CxV0npy2mFl4J0YQDO0GcWbCazapycJUWVaEwly/8cSXrdlgxvpz/G5cPHeUmXhojdWpLfocfv0WQrItx9IbgFrwTwJWb0X2aIQOWloU1XkuFOflor6lF52aBcksY2trken30IcLGVV/4nYfZwLraMU4fH4vJoytNcwzGI2jiWq8r78fM6ZPNUO1/1uR+k9B7JTsCERsLSPSFs55Xg8mTxyHI3XNOHKk0XR2XG0VqkuLzDlklp0/k0gMSaIGUsw2INEwpk2qxdTJo8yT2/Y0me0ttbPhpRfPMcRW3jMW+z8E/8uJnSKG8YFP+nf870OqUud+SY26vG5MnTQeHX0D2LHvCIKROLI9wFUXTkV6uM+sGrWesNjFkDZZpCbkp9NDcyjxF+154o4HMKHUj5sXzoLfDnQPRPD6+u04whh72qTRGF+piYz8r+1EDFjlngypdv/3wv9iYqcQYqXT/bN+Gw6SbFKCIZXbYce40eXwZmRh2fqd2Fvfbhw3HaX4joVzgWCv8cy1bE6elt6hqzCzgQ7L0UEt0IDMQC/1dZdZkfKJmy/H7FF5cPOnLXvqsGrrHsTSYrj6kpnId7FelSEwxj1F7BMJrt+S+f4b4X+5ZJ8ZUiizpHoIofouEupOUU42Zk0ej90HDuOltTvRPhiGxwF86IbLcN3COUA4gB560loapM1+dDjcAO3vQH8f4oFe5LptuGBiDT7I/J/50A30tseaEGxvXSueWrwSDXVHccmsybhwci2yNLksESGf/c8Q843gLZ688FbC8Qg7sxt1PLFToKf7owksIpF/fu8zgN2Duz50Pa48b5RZl9XUHTCbB7y46iBaW1ugTem1V5r2N6sdVYVptQUYle9HZXEhsnOzYCeTRFjN7iPNuPeRl7F6/S6MryrEJ299Jy6cVAltP6vNak1GzWlPhmlDkOrT8N6k5spYkfmJT5xRGofQY8HJKDgO/g8S+1Q9On0vFVzVdQ3i948uxdOvrEJNRTE+ddsNmDWu1KyTTnck0NTWj1BA53zEqYUTZq63ztMsyHDDTb2v0rVsqSkQwQuvb8WilZuwe38dqskEn373ZZhPqc6guhDZ0qIDJDYJLWKf1K5Un1K90fWpiD303P/PiX1ulkfbdAVpRzfvb8DP/vIk9h1pQnaWHx++6Vq869LJcNkVfg3hSS8zFFLJtmvFitaJkVfw7OLXsXzjFuyi+m4bCKOytBifft/VuGpGLfxmk55kAYq8zXtQrQ85FfZTPdGnksbdrD6ptylnMQX/Y8RONfPc0D0EquhMlR3rpsH+qXMOnx54NqBXmxoY1Rkhr7y+Hnff/zw6Yh46YQlUFWTiprctwNRxNSguzjD5o1QFA/Sye/rD2LTtANZv3oO9hw6jsaUFDtLPTq/t0gXn47YbrsS4ogw4acA1VcqmSS9qsmmehalUW48nXwqLguPz6fEzEVu/p7ByXK7hN88ADB1p1JJbXJ0eUtVY74DPDd1DMLyxpwNT9hkaPxxVZwMqQsXpU+vFlm49jJ/88XEcqW9CQU4O+rrbjAr3MibXsYiaxiRHTaf/9w/G4HJlIcz4OjPTg4njK3HD2xdg/nnV8FIFuHhfJ+rGySDa7Vjj5KpIL2JUq3ZIkbOoupWs+TG6SoHIbJQ/ry23MvWrNT2CZQ3Dhfqe+pq6UunHcDa86FNAWjweZg1SOcnHE1rMKtCMDlbGAlKNN/qN31IIPxuin4k4Vj1DoLYeR+wUJDtxroQ+prP4vHZy0XfNWdE2XY89/iReX7MZdb1xhOJ26MTbeEy7RKRTgh1ms5pSqvuqkkLMmT0T06dPRmmxtpKldDOZkI240rYgJmRLc/JTs1PDCIcG4fEx5mZdqldENvPHKf6a9CgY1jQzQVEvbMwLlCSO9UuENsgp3NPhM5vikxhG6Rl80L9gnliCdRIxapcYQ8XrBc5JviEhrXMwmOjsH6Rd096Z5DEl/nM7XeZ1oCbV+WzslFBtJuiZK9PIU5R3EpwtsU8s6xhHJ8G8cTpHSBFb53vqUhZLEwKdRLp5o8VaX1yzB83tPeZQc2vSA5CXm4vKslJMri5AjsdueNz8xE+pf5HCkkPd1Hi5StcMmDS0d3ShLxhCQM4CMe5krK+VKbl+r3mXLrfNel6fWhOXhgFm1aEwfd10FEM6boIE1gJAhwsl5mxyMmMgTO1DhuKDWlOu2rVbYnMnw8bBEAqys1iHdWa39edkSHvg9U2J55etQz8LC0WiCFOFSbXkZeWiurwM502owEUMK4qztBeJkJR6V3t2YKHPgiTuj0Hqu6XIrHLNuAYba9qrDMnrobzJ3wgnlncinEhsc9QSsaVtsuQTCGVat+BIXkckJWyLNqtjFEav3EZJZG3WY0ikM5f2NGdZMSJaV3F+l4R19gSxec8RPPniEtS1daOXEZjmoOd4HRhVnIsb3nYx5kwebRYxipG17EhM0ks3f83+JqzbfhAbNu5CZ1e3mQThJqGzMn2YPWMaLpxWiimjKpHhkmZg5axTSOiPpeN39z+FjVt243033YCrLxhrtM7pIH3aZe/69pN/X2ZmS04aU42ibD+yyYmB3m7s2LUHK9dvRYBcV1NTac4F0RoqbQGVQvipYLjPJ8KlwNzmd2u4g9/NX31aQyDsv9l+Qs/oGIrl67aw4wmztkvrxWRSRC8zczT5rED1WVWyjGE/6FLfRUhTGb+Ye0xSp4ZpZXCpsnVPhLaxAm19qbZo4x+pFO0IZWOlZlvMaNi6FgcwT4SariOUwH1PLmPs/Xc0t7Vg9Oga4rISFYU5Zrej9vojGF1VhvGjKsxJfGIctaWPHPX0krX4w0MvYd3GbQzf7JhYW47Jo8uR6XObY5yXr9mEjTsOweX2oYwRgA7bMTs+8PkocfLo869i6apNmDFzNqaMKT4zsd/+gU9/e/O2vZg/bQK+9dlbccXsqVhw3iRcMH08KiorcKixE6+t3YqMvDyMqyqWgaFkDMl2irBmWg/BQrx1T2D6JVRaP/P7UH5d67C1KJNQb2wOy4+QwH9fvhF3/+FR5OcWsPOV5g1Vap2zmE2galI16e2V7FpqU7hkdeZ3K6UaoDwqh8RSG8x3K/wyG8/zWkuObIy1U30SV+h55dVUYevwdjGetdPJ4nW78JfHX6KdzsKn7rget117GS4/fzIumTEecyaNwUy9OBlbjRy/jnVWf20I8vknlm6gZD5njrK66W2X4iM3XY4bLp2NhXMmYu7UcZgyaTQcnmys37oHuw43IiMzAxNqi6ydHPkvzLYuXbUd+xo6cOllCzGpKttsCHA6sMWomnUcsLZx9jGnLz2KbDdQU1qAKy+YjqsumgUbVcqiZZvQMxAwB6umECmwZEWIOp7IxyB5yyDLuqRMaCEe1V/SGbT29uIVnycJ5JLQ7oXNLv12D6Wanov4SwgWoQ3SlZ35LKBqJDMcp3F4cex3Xuu+khjGMBk/aW35TLohsI6j0J7o2j9ce6eqDRqQUYqLuVQen7E53PTO0xGKUu2zz3rlsXHTJvR1tWPBvPOIs2koyHDCTaL62OjqkjzMnDI2eQKxXpHGWH4COw614w9/e9EM1rz3uoW45doLMamyEH4iWNKZ63di2thyfPzdl5lzO5s7+/D4i69i2/46s41JnAwjflUn1U/1aQgfpwabKrZULUlgPvlgUko0rj9xdClj0Hy0drQzJNFue3aDqAhTmKlzMID12/bgxWUrsfi1tdivyfKsVb/HmKR7hSQWZ6QgzEa29Qxg5cYdWLx8LdZt3YeGDjmIVKLMIyIfbu1BTzAOty8DHX0BNHZHcbRjAPVtPSxD7WV5LFrbVmqf0r1Hm1j3BixZtRm7jzSaPL2RBPP3oqHVOmfEEIt/WugE7aSUaLKBVn92huJYvGId27ELQUkqy9aQqCSvsSeMldsO4Tky+tINe7G/pRdBMkOEoq5jI6VlZOfDwQBskQAFpAjp5BJJl9mklmXIPBmNpbnqagafj/GH+x56Dg0t7Zg8rhY3Xz4LJZkuEpkZiXsJjslLNV/sTyMjzEENbfbhxjaatm2mTnnhJhfrMGvWTvRoTwF2JxuhU+3Mmx+C2UdUkka7JMaxk9Ns9jjC4UEk6MClESEhZukMRbFo+XY8+/TTaKyvQ5DIS6S7kJmTi/OmTcTH3n8Dqoq8cLIQjUKJkbR36SKq58effRH1jc3mADRtIi+797W7PopLxpdj0ZJl+M2jL8KZXQyn14tnXlqCxa8uRWdfN0ZXFODPP/46dKSrYHd9Bx58bgXWbdiK9rY2IiAEDx2iSy66AB/90A34j5/eh/RQL37wzbtQkOUzcfZD9E8efe4V/PBbX0FRcSG+/O/fQ/3RekyjqfjRv080s0xE7KeXrMFDTy9CU1sHItQw8rQzM724/m0L8aEbrkY2O6W90x2Me9zmoBcnXl26CjcsHG+2DtFWGaGBkFH52mddWktIkJZo7NYGQjuNl37lJfORzxjeRNUUPKl5gbwYbcehEwbycjLwjisvxs9/cw82723A3roe1BRlIKrfdaQzoyXpqTcCm4N2yklOSksYvmISkVk1O6xD0NXZru5uZDME8BOR+mGQHPebvy3FT353v9nP7IZ3vxff+s5/4FN3fR4FZdV44dW1+Mjnv0li9JOL5bmSd1j2SjpcP/vjo2jrjeGGm2/BV7/xbXzgg7fTN6iGj3GpNqerrK7G/EsuRV5RCQbDEZSPqsEFCxZi9kWX4rwLLjKqXDKyo74FP/3z43h80Wuw+XJx/btvwSc++3ksuPIaPLFoOb79s4fRHnYxrHEbH0AgNA7E7OgKe9DUncDXv/UDOqH76VCNwZixY4xI9jHTvU8vww9++Vcyrx13furj+PXv/xN3ff5fUFBRRdX7tEnagclIMHE3c8pk4saLnXv349s/vtfssyrnzul1IcHQS0dAmI1x+amm6Jyx7v4QcjKzMG7MKAmn1AQ7xp5JQslAarF8Bpk7bf85vjYXWXRUu3sj6OztR7qDhGaeCJkoKtOQ1BxnAlJYnqipzlRgPnkRDgN1/VGs2NlEdRfH1ZfOo4foRYiqffH6Vjz41AsYXVmGz334RiyYajVY9vy9l43Ff/zyUTzx0gp85fu/wFO/+orxnq1d8w+as7Y+dcu1uOGSGeaEnIEpefjYNVOO7ZGiU+1mzJ6Ae556HZt27sGC+TMpLVPgZr36XROBuwaCePKVtVi+di3OnzcPH7/lnRhfWWAUkgNjceNVl+D2T34J7sxi1FICxLhWD/k7pczl8eC+++5DuP0olt77M+RkuOAiYfr4++ot+/Hws8tRUz0e3/7Me+j0FJhttWpys3H+5AJ89pu/wtNrd2Dq9Cm4bFyJ2ZXpXQtm4dChZvz1yUV4Zs0WvPbxb+G6K67EdZfNQ3WhDS6ZHeJU7ZD52b1vv1mWlJ2dgZJiB4WBciyBEycfo4IFuudiv0p8NvM2TgfH9/f10McoszJQUyhPyjE9E7AOchszyn41dvaivrsXR7p6sIK29P/95l4sfukVVEiNzJ9gjkDQKNODjzxJSfTiqgun4eKplfTywowfqYzpcLnZ8FtveDty84uxdW8dnl68HgEyXSgQRGtbp+FyTeA3Z1pT5J2RAbhpIuzsfIySLGlJo9cTl0pguwIkbJzMFmfcGg+ywfy9sbMbi15fg6KyElx7GUMOEiSPElFARGncalKpBx//8K2IhgPwejXNYAg0OuYkwVvaWvFvX7gL5UWZ8FF3S59peHTFpv3o7R/Ee2+8BBNGFRgG0z6lGlEroGRde+1VaOnpwfb9B5Hu9pCAdtrpOL7woWvxrS99HDVsS3tXB+5/+FHc9ZXv4Qe//Tt2NvRTw1jOp0JLbd9pRulov61Z7PohyY6KLSVtvKu/WmmqX4L8XUOyml8nvAm0s5KT2kf90f7lbwRG20dsDqzbdRC33PkT3PKpH+EDd30PX/reL7FjzwEsmDkZ37/rNkwpzTdOxkG6+Tu3b6bH7sDF/M0jdaWK6KHKzsghqSzxYsrEcca73b73gFG7WTk5mDhuHBsbw2OL1mDZlj1oaO9BmsNrzgLRiJEJadhZ42sQweyecXL8vKHts+igGiY5zHCwpaMPo0eNwuzxtciQ1Y9rv2s6SmQaB/E1h5InRRdhXDwcJAVSeaPHjMGcGbXW/jlxy/tu7+rGwboGFOblkghpONrUjgNNrTjS2kFGbTdMVphNIrGOJjpX/WRCB9WZogD1/sb5k/HnH34F3//Cx3D5nCmmrY+9uBzf/eUjWEsNGaZAaTxEDKS57SKnRTYBr0TkZDL0JmgFqphEs2MF4gmtHhVYEYnyWumNwKbtmOzscWVRHq5hjHfZvEm45uKZuOPdb8f3/+1T+M5dH8TEUaVw0OvQxjSHGxsRt7uRm5ePkoJcw3VsgtkdX+QRaB+yquJcSkPYLFCnA87YNQ0XELmXMYY8cmAP/vPuP+EHv34IL6/eYfbWli1Tc1NN1qf8TQ1u6NpODMnRi0Rpszo64GI4WFZAifa5aSaEjuSTlEBNJ3IYR0f3kveToGhCm89JM4WIuQjLVKilRurgmq6+GHQ22YNPvIxv3/0XfOMnv8e3fvxbfPsn9+Anv/obHnpkEfwMoSK9vehlpGAQTqKacXJioJDtfMf8qfj2Fz+Ez3zsFkxnvLxnz1489dwStHSSuVlVBm11iHYyRpNGQT0JDN34xzLjSWIzEurq7DInIai9+s3YbAqFTjIUXt4IyJMidhjjyrLwlTvege98+t34zp034l/eezkWTipDvoPyxUaZ8z0oqYPhGKIOPwI09zZymKqQHZI9UhK9FSdmedJgj2pyvuVsqMGTq0uo7q7DJ97/DkwaPxbrqDm++9sH8ZM/PYZ99W18ng/zv8oznqmRN0v9DZLZ9BknooOD/UY6dI6tQ5zEGs1uh+aFDmtnhWaGp6nZkp7hyQybsi6VLs9bIZwgQkntGWSLHR7kleahsqYQ1bUlGF1TjuqaCpRXFeO8STW4+cr5uGjGOPhYpTSPKKgjpLWzMlWliUCyKPGXzhmN975jPopzfdixYysaW1ukADFp8kTomOUOOr6HGuUpCIZaaAVVSpJGqnFStqFlAIHAIPKys1FcmE9tQg3Buk317IuEwurGUDlDYH23RflEmAVGExoZ4i0WbKHPArORqxBH2yTbUFRYRIfFbs7eaOkRZ4sDRQYLzJAjPztonz30UAuy/GYigBn0J9Nob+73XbcAX7nzFvzLJ29BPjXK84zRH2Y4JOSbBfQEM4FfMzrt1n5lZrw6EqaNcjAyyOXv6WhjPN6tHfrjejmjARG7iZP5FQPBoBnrt1pmdVx/wyK0Q/21flNtqdMCnZR6bWyvg2befe2l+MInb8OXPnUHvvSZ2/GVT92GL9xxEz53x434zIdvoq9wITIYOqmvorgGOeKsWDG+ylWiw4zS/CwU0wQOkBkCrEP3x5OJigoy0NzVhVdWrKfA8BniWWP4FtVIAyXmtdObH2Q/VjOSUfuqS7MY0mZZpkB1sAcu4iRd06fVQdkleebJYWBDO90n2GIkdogeZZA3B3kjxsL1HlbkMSDkkxnMKT98tryoyJwB3UeHa8OOfXzOKktd1PwtFd7eM2BODXBQ1Y4bVWbe9MiZEGI1gqQtqYoz7bj2omm4lp6zw5+NNdt2I0itYXYeZPVCuhqbYh6t0NLol8PuQA2jAJfTgyMNrdh7hLaQv8uEiNBhZg4wrd66EyzOxKlW+5J/hQwhkv3SHSFIm9mqntwMD6rpvQ+0HkVfRydc+o2qS0mxvYuPprOLHpbvpmjpJUlq/xRNX9Yxy0HiqI8qN8zbRCsZIIL+cJDakGShLVKteSzsqksvYI1pWL15GzbvOWreYGn0TicNmwcJEiT6pFi6YQ9eW7UWpRSMi2ZNNlEPu8WySXDZBWqkqDorBAtbbJelbTRSqf5LIPmLeFG7CsobVbNTaTjI3hpEsfACekpXnD8doc4mrFy9zjhsstfaUllMqdGlxxh27T9Uh0KGK1deOMOoIb0A0FukuNSHOsOaVWxuNu0XEZiW7jZve1SJVJQGFHScxOGmDnQGyft6XqaEfSouyMEsOmD1LZ14ac0uHGnvo9RQmpm0a9Fr21vxzKvr4c/MMRgxL1mIACVNCnSlaQ9wDSTxAeY3ZoPfKnJ8uGhcoZlTvvjl19HS3G78BDeTYVgmbcwjPETp1GmIVqOJdc1tCDCSEI4VE9sVK/G6m5TfsL8V++tbUF5RBl9mJgZIeDH7zVdfyPh8HJ3AVtz37DJsOtxqts+2Tj7SgdTpCLDAxRsP4x5t102VP3/edPoANUIdqWXIigQdXhttg9stN5Wai7QIUcoDfF7X2qBX7/AlCOnveM8t3964eQvG0B5dcv5Mdkhqk4jhg8dR3RhkVkBa1ZbnY9vO3XQ8dqOhsQ1ZeQXw+DLQxZDlgWeW4v4nF1NKw/jiJ+/A7AkVrDYNLQznnlm80szddmbmURodqGvpwiNPPEevfz+uunieOQbCTo7RuPPOw23YebAJnXRKcrIZCTBiaGvrQlFeJlwuB/zZfmzbfQQbt2wjYx1l2BRBM9X6U39/Fb+993HMmDsfbe3tKMp2k+Gmm4NPNUi0ZfdB7Nq1x7x2vOz8GYxh1Tqhjchg3cpX39CEVes2m73W3G4/3C4f+0MHqWeQbT2EFeu2oqSkDF4G/00tHfivn/8Wr67aiOaeCOKuPPRS1RyobzYDPs8tXUPzE8D7rr0Y8+ms+aiK5Zv4GMbqoBwdBrN5537icp9hdpsniyYyhj2N3bj/qZfxp789i67ePlx/9QLceuOlKMqQQ2p4yQxYLV6+3hw97fNnmNP6t+47ylSHbXsOY8vew9iwbY+JXAo0Nv+jex9K/OKee3HJBbPxix9+h2GMhF6KnCUdR2z+l+qQhueXzXXN+MFvHsRmqnJtZ6HZlTq1p3cgjPLScnz2ox/C/GllyKYE2anCtu8/jG/++HdYv/conZ8K4+wFBgcQ7u/GlRfPxVfv/CDK/VLVerlgw86WEO7+01NYs2adkcJIIIB50yfgdz/6IuNutsMWx5qtB/D7+5/B5t17zWibJDA/y4dPfOwOzJtRg/d8/mcYVeTDf/3r7Sin7dRY/i//8ij++uBjmDlxNH72w2/BTydTGkld1Wm3eoW560g7penvWL1xG/qDOqHfhYysbHrPMcb9febYpq9+9sOYMaYUdWT27//0N1i5dR9irgzYPdQmVE2hoDbki9C5q8KHr1+I6+ZPg58+j2aiSAtJC8g/2l/fij88/grWrVuP3u4O2NyZSLiY6CQyEMVYOs533fE+TCz1w0MfQYfmJOh9h9QWuxOf/cYPaQr2GH8lSvMhtk2B2ayeNFlw/ix8+64PIG3b0cbEkcYWOj2ZGEuPM0+rG42tpPJLSnMKRGwz4M5CqE3RQjW1em8rXl25Fq0tzYyvizBl0iQSpRL5lBA/azabwdJOR6laDnX04/Vth7CJHNdBuz6GiJgxrgbzJhQii1W5GRXI5uu860FKcn1XHK+v2Y6tW7caRF9z+QJcNXeUWQAvG6ShwkHGPkc7Q2jqipDhnCgrpANHo7phZzvu/PpPMHVsGX7+1Y/SHrvM+989hxpRd7QOZeT08yaOMX6AbKdRizIhmmZEVh9g2TsO95jzOiQlUaK+rLQU0yaNwfjqAhRn2JDDSEUhYWc4jj31/dhztM1IaUNzIyp0Ah8lefakUajwJJBBU2mjXTbHQBN/Aidr0oqzLhrghvYBbNq6F+t3HkFdWz+97w50t9ajMsuGhfOmkcFKcfFF5yOLzqOWHknm5GNt2F+Puo4eajsfnDZ5Fha5FXGk4u/8bB+mlvuQNshvYd4wzg8Jk0axsTHotcs+yvgfB8QwIcIQQ4exaYpuurx53pO3LOUiO6gTaLU2SttGJSJB5tWUHb2W1Nnvkko6M1JErFOPicuNPaRkCeEm7iVzhMlsUr2KwWUGtVtGpku1sCWsm+EtQxmWwd9EfIakJpSio46/Pr8NP/7NX3DD5XPwn595j/GM9ZuelRercTWFSqKyNsGVTVNv5ZWLqaVqVa+aosNmNK08M8Myb8onB0nlyL/QPdlLCwPSi9Z3SaY+5e3rlad8h9QbO0HC4MNOPFoOqSmXSTiqbwth+eq1WLF6I9Zv30OnL0INGSfRs/HZ296DhXNnE29WQYwWkcmH9VwKhFfhRO2x9jBPw/8HCYJRPUlq018AAAAASUVORK5CYII=;imageBorder=default;dashed=1;shadow=1;" vertex="1" parent="1">
          <mxGeometry x="649" y="273.5" width="60.99" height="60" as="geometry" />
        </mxCell>
        <mxCell id="z40fJ3ub48EkseXWyAoc-9" value="" style="shape=image;verticalLabelPosition=bottom;labelBackgroundColor=default;verticalAlign=top;aspect=fixed;imageAspect=0;image=data:image/png,iVBORw0KGgoAAAANSUhEUgAAAMYAAAAuCAYAAABzjGayAAAAAXNSR0IArs4c6QAAAARnQU1BAACxjwv8YQUAAAAJcEhZcwAADsMAAA7DAcdvqGQAACraSURBVHhe7X0JlF1Vme5351vzkMo8h5CBmYQkJBDACRBaUJ80TwHBpyK4XMse1tLn69dPQBRBbVtZrW8ttXuJ8lRQw6hCICQh8zxPVZU5NaXm6c73vu/7zzlVtyqVgcnQq+u/2XXuPWcP//7nf+99b3zZbDaH9whSyRRC4RAymQzS6TSi0aj7BOC4gEb2OZ8HAO/n9Mq9Z6gNwzCcEXwU2vdM+iTYPkm+K/w+Hz+xCIYSeu+ervbe/jnXYRiGvya8Jx6jX+j7u5aCOEriKoon+K7SnBbedeyGYRjODu9YMXKUbAl3hiXt3gtR6AM5hkqnKIbfUQyBqzz5iuF5k2EYhvMNPlr3t60YaqlUIUV5b+P7fSe7EYlGcFFJCIWpOIKhILJSCF8OfmqAKUafJrAB3+YrhgfDCjIM5xsoqe8M1EGKcrzl+En8auVWPLt+L47GU0A4Qi8S4FN6lJyfapCnEGdQCsE70NVhGIZ3Bd6RYsgTZAM5HIvlsOpIG07mQjjY3o3X951AK2U7Rcvvp1LIWwhyqu/PIhNg4TXrU7g1DMPw/oO3rBieNddya4Zmv5tCv6uxBTVtccSjpUgXlGH9kXpsbE0jznpp0wkqiIVHbENlyPCazcs/hmEY3m/wlhUjm3GsfIaKkeT1cEcMGw+exEl6jXjGj550Do2pIF7bfQixTA7dGU85LKji3xSVgqEW/3qeZBjeGxC1xa3BZRjODuekGP22nUl0wGmiBLk7lcPm+m4cbI7xThgBvvz+ELKhEpzoTmJVXTsyIZgCZWzxi8pAf+FH2lWSYRiG9yecVTEkvk5R8MMUmgohq5Py+bG/uRebDnWiJxNFgNY/zIohBBEIRtCZyGDN/mociSWRoGNIqxeGYQGWIN8rLR+GYXi/wjl4DEct9Fe5QYYiHuPfpmQaa2oaUNfVC39hGMEovUiI9ZhYB7Q8G4jgcGsGqw7UoUc64adCUamkFrDihVFO/wPL+YKhcDmX8v6D9xtWgymWX96PcI45hvyFoxgpvno5m+3N3djV1Ip0OEDvQXWhUqSoFGk/H2pzzxdCV64Y2w634UBTO72Gj/WCVI4we4vQechn5JNncHmbMFRX51SGvHluRW0H3TpvJe+t+/HdhfzOz1byYKjH+WUADFXhr1zOqhg+hkh+s+4KobRhF0ZLGnij5ggaUklk/MwaKPBpX5QlzOfO3oW8QzYcxkmGVOtq6lDXq5Uo9kSF8OeCrHGOOjkMw3Ae4Nykk8qhFwMk9FLwV+47iP1NzfCXlFDY1QkFPcdwKutHiDe0d6ENvTRDqkQwiOrmOHYda6avcRRM2xd89LbhHW8AmoV/h30YOPM5LXjjvAtj5bLM8VTeFbz7Qf29JxuqZyDL+xpcWpzxSIgRTYLMGqrUTTWqprd48sWVOKTt7mAxCugpAqEiaBXXn+hkVp5AJlwEf1EpupJdYISF4nQKl1eEceeVkzGzIkKf48JpN/jOJnBM5tNpJBMJBKl4TgbkQDqVtnsRHXHP74JVMmyj/ZdAIGCLCL6AH4lY3PoKBunpTqOtRgdXKDOcaEFhofWh2tlMxo7X+/0BJJNJFHDcID2l6muMPnDfd3d22vNQiF6WuOYYdvp8jn3y6tsCh41H/xyOuJ8zNgcfPbSfYws0f81d/RQVF9s9zdljKe2Z4Sijlg/51lBfCRBoPqlUin0mEeAYHJT9plBcWmLP2andsw7PBVhVcxDuoq/GiUScuQiEo/d+MORI43gsxrnqubMHFiLN9Fk4BgJBWx1Nxilr7DsUCiHJ+4685lBUWGS4dpLWUY4pHvlcmnng7KvxyvsaSzz1s3+PVmdQDOd2ltSNkVh+IhMP+fEf2+rw2v6jSBeWsIsgAmkSNplBEZ/PmzEO3V1t2HisHZnSUUikmJizm3DahzGI4+ZZlbj1krEoSZNgmrQeDgkOQU4HvT09eH7Jc/jNb39rnz3melBYUIDSsjJUVJRj/vwFWLRoESZMmuhMidP1hC4QDOEH3/8eli9fQaaFSXQtLA8FFD7Os6CARoCEvPPOO/HxT3zSiPrrXz2F55Y8z7ZpI3AxBfRff/QjjBs3zpiXy9LPUtCE8y/+/d/xyiuvGFOCZKaYLPLrswmJ/hnDnLmrv9kXzcb3nvgelSnkCpMfDfX1ePrpp7Ft21ZHmKmY0y+4AN986CEUFBX2Kb9N17p1+vMgXzFMmIQDcVy+fDn+4xe/MIHSOMlkAl//+v/EtdctNkU3hTwdywaBBLS6uho/+9nP7Kp5CdfrrrsOX/3qV01JTgd/euklPPnkkwiHwjaPiooKPPDgA7jqqnlmGAQ7tm/Hj3/8Y+LawU86duQg9t8++UncceffYufOnfjxj36Mjo520uNUJVR9KYzm3dPbi//zz/+MBVcvQIh4pSnvWh5iOKToX7WdQXVUQ4GTuvLLmpGJcQryxvourN9zGLlQGaK+QnaeQS4dRzSbxOzRVfjQ5EL0pgtwrCOBY9TkQIaaTXzVV0cygO3H45hSlcQVI8MoGKQU+b7DGVvPhcHACXFQxHtjqKmtwbq1a00BPKKIHRkKcDqTNkHN8PrrXz+NSy+9FJ/59Kdx68f+BiNHjSKDZQ0VzwG7d+/Em28ux8iRI82ynQ5MeEiLeCJuDEryqg727dmLLVu22PMELZgUo6W5GePHjzMmih/CQ4pVQwGRMMu7yMrJImtZo89SudP13vf2JNDY1IReKkiRDAlv+oM+rFu/jvN6Co2NDSZg6vu1117BdTcsxi233spqA2l7JpDACHeV2tparFu33jyfvG57ezuOHDmCxXwZQtqL0oSEylCQN6w2gpctW4YlS5YgHo9zjrxH5dq1ewcWLlyAxYvVpwfO3DzYvXsPVq9abcZFQqtrG3GRsqXoJVtbWvDtRx/Fq0uXmodWdCDDc9HFF2Hy1CnsyYemhkYqxzY0N7dwbq4hzgOtD8n7m9GiPDU0NnJqNGS8lxWv3XouSFgkomKX8xIyEXbalMlh+e5adDOPKCwuIYK0VHJldPEjIkHMn1yCyWUhzBoRxvzpFL5YM7WOBNGGHgmWZqhS09GJzcca0EgPkyDyNryrjIMQOQNQOGhFZE3CFAq5ypLiIhTTUhYXFaGsvAxVVSMxnsScOGEiBb4KNTXVePzx7+L//vSnqK87YXMSH7IM8QrpQsvLy+1aWlqKEuZNEm6VoiLnqlJI96znUqBCjhUpKDThEQ6FfC/3XVBYgCi9VZSeRR5W3kJWSVd9kzHMcKAgWsB+C9lf1Pqx/r1xdGUpcPsr5rwCUhriKmUSE1tOnsTmTZsQo7IIb7WrrKzAiBEj8Pxzz5uyWSh0jmBKIYHnP/VXmjd/CV3ANnQd5RGvzwiSPdYTHD58GGtpuBQCVlZWGm2Eo/i29LWlfd7SrT4ApOxl7txEc/HGhJh8j8Vj+NnPf45Nmzdj9OjRqGDfostFF19M7/Z1Kt1C9pCz0KikpNSZC2kqepYUldhV/NL9ivIKK2U0rpq3QmujH2WVs/Zsta5OiCF1cD7R/ZForakcNhzowJEOWsCCIvTEu5D10yL7VTODCyeOwqVjqlDGSRaxLLigAjOqiF6mm66cYRjT7gzrt/P9hqPHsKOpFZ0SGhFFtM7kM9JRRmd845cDeuN+EONlcR1LS6VLphHriSGTyli8L6L30tIoJJAHKaLCpDMpPPXULxn2LEF3d5eFMn4SIMP72Sy9G72IQjKv/eAiBstbJOhmHVw87BRm6YgL5YIWR3Vlwe2ZGE8EZZVVZNlELx2+jMV6bWzPxWvO8lgKi2RhJQixWA+FgTmFkYd0odHat3cP1q5ZbeNoPIUJGk/CtHr1Kqxft87GdbhHYSKeWgpRF14ZAKxrToC0TNq4GfMYcYZRWd5X/xJgWVEjv4PukGCCzleGuO3cvg3V+/ciwlyKFkgTtL4VGi1/Yzl27NhhfbotWTyOZ/u8aYLeQbikWMTzWE8vlvxxCV588UWrI08s/BVqfe5z9+HDH/4wDRHzPdIsm0tb+wR5Jhr30KNoPL0XfXU/k6VxZ07c3d2BBOcr/DU/0dXoJAI6IATdEIovHwJI01Kd6EljS+0JdBKPNMNMIxgRDdA1jo5SW8eXoJK5boj3KWoYzzo3z5mJ4gAFhIMrNLM2gRDaEcLWhh4cjxFxDaRiw4p93ugOOI95Vw9OA2bJSCBZpOtvuB5/y/j/7rvvxq0MKS655BJjuEIcJWyq94c/PIv9+/Y7DCfDxCwVRyiTKC0vxc0334TPfvYe3HvvZ3l1yl1334N77vks7rvvXsyZO9fG9oR6aOAzPpc1E6MkEIuvvRZf+OL97O9e6/OWW25VFTJMsS6NEBVs5swL3XHvxpceeABf+MIXrK0ELkaXv2v3btTV19l3XVzCWVE/ypH+8pe/WG5yzsCGNg+vq6HAHjtC5UH/yP1FoZL6a2fcr/CytaWVTdXGR88asgWODGne2NSIFStXOIshMsRn8ESiXwG9sBRj48YN5N/v0dXVyQHphakcAXrtT93xKdz+8U+YRxkIxMpQdnCfOm0K7rrrLqPpfffdZ3y49957cf+XvsQcbbpJvMZTXVJXqKu1OnEUhGxkmKogyIcO4rzhUBvqe5LMLZgA6sXGOUp6BZmzaGoVZo8qZRs90S5GCmX8dFlFEWaNHoltx9sZRoXsiR9RpCigexpbceHYcowqKEOYAhHk0LKsDoGJnOEgzHRH0M+QwaBJpCnYYytH4PP/4/O46JKLzRvIQsidP/XUU3j55ZdM8EpLS3D06BGsWL7MktoiKpMYqaJ+JKDTGKPef/8XMXv2xe4IBD33MzQiEzMU3iDDASWjwssRln78nM/9YPU4DQn3jTfdhBtvvtGsoQRi3959eP31V00wfD4JehYf+tAH8XkyroihgI+GRLG6lF+hmXKKNfQWsoTRKJPXvFzCPD37Wb36Tew/sA+XXzHHve9SdRBe5wL5qUp+a6fHU0FCJQOzdw+9GsMohV4SXOEbYG7kD5EOxEPWet3a1bj1lltw4YwZouLQHbogS3+Yuc52eqGamlrSL22rVF2MCG67/Xbje2lZKW0wvWieS7TcwrrWYoQPixYtxNe/8XWjqc9CU0eRbMWRhlIGLMPcU8aU3WjKXm8UbnamShJQrdHsauzFlvpO9JAx2RDFnwwOBv2IUAGmlIWxcHIVqsjTIKloB9E5iQhLBdvePJNxfnGY4VgPUsEsvQ0HDkaZiPuwfv8JHO5myMPhmbawrakcX8JCOOWXIYAVjXEshi/HVMgUiUQRJK6KG+Ux7vzvd2IGiS9vIOFIkXFr165Bb3enEUQ5gCydrjQHaGttxauvvILfP/Msnh1Qfovf/fa3OHCgmoM6CuHJmq7OZ2NxnzCqWG6gcIh0UzKeMyVQWFVg4Y/uO6tkjvDqXpCGxFZf2IUSfq2eaWlWKzE7tu9gnK4wUs81Bmknr8c+1La+vt5Wl2SNjS4u062uV84CRnVWG3DVA5uTDII4dGoRdHd3Y8OGjTh67KjlVKqruWmOGQq05CNMZanedwCbNqxnuC16OHNxcHWMswcyKN1dXXjx+Rewfq1TX/xV2LdwwdV48MEHLYexeYkReWB96T7/iY779u7F737zG/zh98/i98+Kp7/j9Rk8/fSvaTCPmQI6vOvTiPypMVxiop3kh4beDDYfbkMDw54klSHGsCinsIAKUOaL4bIJZZhUFqGSqCO2t0SaXoXeRPsXl1VGMH/KGBQGkwyjElQMxvAaOBTF4dYubD7agjYyTRG6Ym+H6B4b8stAyGeWJ5ACc+UesI7c74TxEzBr1iybsEIm1a2rq+ccWdfaUmh1ZV0lmsdIoF899Ss88cQTeOK7j+Px734Xjz/2GH7w/R/gW498C68tXcr5nd71C8y4cHyPyA6mLnAsMVv3hI/G9nCTcEtx1V6QoTJzUnyXQ0d7B5a99hqv7RQsKUrSQoxFTDa1CKCcQyDmarXuCL2lFEbjGH2EilfOAEbTIepoAcUWElk8aRlcBA31DTa+Vno0biwWx6iRI3HTRxxPqWoyHz3M89asWoWT9IIkKG87nffTzAHRp7e7B7U1NbbyJKWQ0k+aNAlf+9rXcDGTbsdIsF/NMw9kEBzjKfyArZu34Ec//Fd8n7x9/LHvGG+fePxxPPLwwzR4+62+B6YYDkpOjC/N0mZIG2m6paEdtbSgSR8FmiPoBw9SnEQ22YOpZX5cOanSNuscoon4OjLCvIQICpECuqSrJpZgegWtY7KLT6ggOYZkvJ8MF2D74Xocb030qYSDx8DJnQsMJogHorHi0BG0KLKyAl3lPTRfuVMpgwRVxSwXQclZb2+PrYDovUoXrZaSYSXuwlJhixJks4QqFELHcrv3mc/o82BGDwYP96FqmSexvrPYs3sXPd06UwKJluYwe/ZsfInx8YSJEy2E0RyCLPuYQ23YsIF9s6rGPwsO7xYoZNq5cwf2799vez6amxYm5i9YgC/TsmuFSfRz7mdYdxd2seRoiHXPwfLMuBrvOJ+vfOUrFhGcCRxlc0D9i0cOH51FFF29IhpbPSkZoU8xRGz5AqXPOQpMYzyJ7XWtaKLmZ6kYGkSVMxSSYqSxaOZkjIzozJPT3kNBZ6v0XpoaTGYxiaHUoqnjUJpOIEiPo6faLcgxvm+IJbB63yF06zPHVf+2ksLruwWyvnEyTDG9BETCZgmW89SI7BQSg/edwqduXa9os0uE1TKpLItCJFvWM+Vy3tvV7mtn1ime4A8F+Z7FFMgtFlLwGmRYKAWUwL3x+jK0tLRYuKQkXUu+N9xwg3nD2267zSyrjUv8tSK3Zs1anDx5UjM8Iw5ngrfSSvhqvBUrVqKTwqcdewm/lkU/+MEPYtqFMw1P3RM+JSXFaGpqYkK9Ee3trY51d0fU874yCAvRV8ZBhsA8RR7YPK04772NUxXhJz46q4xJo6lWBlVELz0TGB8Ig2RQSXIQvZTcnUfaWVqRyEVZmwKgc1C8X0oBmTtxHOaOHmEhlNlhIqLulLtrISrMorrBlB+lKR/mjarC4gtnMLwKIBoupsCE0SuGlxRi1fFGLGe4ZkqhpbYcJ+x02Q/6MKB4E9aynBIshm4hVwht8y7hzMyW7OJkQIMt2+qnfpLJtFmuVDJO90ehZ1HC5Sz1EmnWiUScNfBKrXNXOKWksBijR46ytXPbLNJYRMbBQx+9946VHBAvO1Wt+JlQ+6gw2l2lnrG+VkGU3ThFxknFPpPxCo2OHzmMZW8sc/MPeQygqrIKY0ePRZi4Tp86HeXlI+ihxAVHWffu3cNkdbv1b2ObT/bK2cHbfw1qrgTrxjUYEh6vxOlVtdqn5c5DtTXYsnkjvUXYJX8O06ddiKmTptrG3Nw584hnJeI0iNkUFYG0XrN6LaprDrpHNmhwZFDYrwyojGSOPEymnKVVrWiFaYy1JPsv//J9rHxzhe09UAOIg2N0nTCQfODVcjUiLnqIFfJMIytHorysEuWl5agsqzBZEE81jmNERB/HCfSBQppelv0d3dhypAG9wSIm3IWUlSALmUQGynLOnTOZSTPjRNaVtbccQfRTbyx6b+Tk+wARHBUK4AqGXWMKIshQO0WQLDGP8WF7sABbjrfgsOSUgRmnxIZnYZ6q2ADsnwQVw2SJTOupcBJUgRhXX1+HrVu3mkVXG92bMGGCbcwhFEaUSXCUllmbSFrpuPDCC/GTf/sJ/vLnv9ieh1e0KfXsM88wdHmQ/dOruvFo32IFi5e8aRPLSZ51XzixrlukENpdDUacxFTMU7gnxbbCz34WSoj1H2Jfry99jTF2reVMmqOu2ql95OFv4bZbb8Vj33nM7nvhgHA5dOgQrfEmxEhv4fF2QT+H5ADFjmM4Xs6Zp4xANFpImXD2XpYufZX5W50psEA4VR+oxpe//GV8/LbbLW9TqF5YVMTpyfKHUFNby9h/M2LunpOphI3hjCMQfSLkjQyO5qP38k7/+I//gFUrlmvCfXXzQUrBR3pnNLjjU3fg+RdewJLnnsMLL76Al15+CS+9+BJefvllet8PUJZojkhvQZ9iqFsJ+Elaz/UnOlHTFUeOgpxlvRQFOMXkO0lrFRgxFk8vO4xfrq/DG0d6UZtIo5WaGFeYgQSViUQK6lQtO3MiMxIhh4llRZg3npY304tEvJvehdaZbYO+MKqPNmPZvuNo9uv7Go7lOFfQ0puSMblH5QVy490kXnNLM1asXInHmVx1dHTYbrIIpOtHP/pR29WWEiXZTkUbe+pLm3AB7RFQ+HRuJsSQQEVhSik9Rw9DKXmhUyCPMVpB0lq7cNGxivzSIwsrRlJ49Vu+3nERCYUEWzmKreuLo8Srs6PdGKedcymbrTZxDClya2uLHeNQSJIvGM5KVw5r16zBzl073btvDxrr69HR3Ix2Cq7w7+zq4dy6rXR0dBnNpQiNDQ1Y9eYqC/GkEGniGRbOVJ4GPjty9KgpjYyY5qAiPitnWLN6DY4zaZexkFHLVz6FPtoxv/e++3D11Vdbfyqav1bA/vc//RO2btpkdWWY+MaKqGF96OV+1qkEP2keZXgX1QqmThkUl9gKppTPMcqOVTW/bJ1ysG5ea9u7sfFoA5K0ojpTZIMJWb5UR0c5GnqSaGrsxM7aE5gwqhRzplRh7ji6JLpQfQ3Jvm3heg611fZUJUeaO74Mh+pb0X6yG37FoOR/MBBFN4VjzcHjmDllFCrK5YYVSJwbKM5U2NPR0UmL9D2+L7R9Da1xa827mzGk1vyVG0h55s2bhyuvnIPikjIjoEdoMUNM27tnL7718MMoIdHEPG1MClRHljFKxn9a5650JokgNy0SGZ0IykO++c1vYiIT4hitqD3MA4VCD9KCXn75ZaYQ3vgqHnjv1Ocby96wXWLtwShmThAnJdiynFJWw128kUfi1cHHEQat/e/csRNXXH6FKaHmqFDlTGDej22loBKUZ559Bpu3bBEB6MfllSz+40gaDbjllo/iU7TEUl5Zfx3LUfyusI7iYyChS6eTtnwrPCO0ytpnEk7iteZXW30AU6ZONbnJp4f+Kiq44sorsfCaa9DZ3oHdu3bRqwYZEpXj4MGDeOibD+HhRx/BpZdeZrRRK3uxD61i6SpP9cc//BG72FaDSBbEC81BfNIKl/qnT7bwLPAQQQzSWnt1IoMXd9SipiOBNC13wGJ+EYiVs0n4mUBrqTaquC0XQoIW/kRPDNWNLWjojiHMWZTSehTTuwT5XnPzM2TyMWAVO4qjYcSISUNHL5iXs1/9gIJChyB6ZLFpiWeNHYEoKSpX5pDmVJBF1s7q+nXrjehKRpVrNJ1s4sR32sZeS0urdaBzS2K0LJgOo93/xfsxd/58I4qPFvrVV1+lAtVYaKW4VNau5WQzjtLCHT1+HCesnMChI0dxnFeVGTNnYuGiRewXWLVyFbaTsWKeboiOqn/gwAHUkmkHGdLY9WCtMVGbenPmzMGll11qVnbJc380QbLNJQrdNWTOFXwu/Ho6u+yM1zHiICGSogg/nWmqqqpCGeNjnfHR+a7KqhFmJOJx9kXCh0MyBnHSPoDLLruceVKlK3AmeS4l+0HPdu3caRtzFv5xblqxa6ZXOniI+FPo5Z0Uoh066JQtm7dg5oyZWLDgajzy0EP0KG3GD+GoMEm5mYR3BHErIH1LaKmFs0DH/QWqr6M23r6TPMG2LVttZ9zxPjkaqSJcu/g6LGa4M3rUKFMMLVvrnJw2c0/UnTBvNGXqNIwZM8amd5h4Ln99uR0XkpIoGtASct2JetQdr2OI3YC6+hOoJw8OVFfjxo98BNOnT3doRJpZKBVm6KDcYkddL3YcbkKSnQSzCQt7RvtjmFaQxhUj/LhmfBjXjAnh6tEhLBgbxlWjC3DxiAKUUeoPH23E86v2YOn2Y1SsFJh3QT+uBh+TabqOEEsxEb5oXCUmldKzMG7z5yKmsRnKlC9SjFp5obp2+z0q3T8T6LnVYZ+2xGxM96GczNCJ2zCVUM9kmbQqNWvWTDzwwIO47obrLQfIaTnVXLYT1kgotYegNnYwkMzQdxyKSopRyKJDbWKeinfe3ywr22lZVkIrfMQE7S9os1GC0F8owCoUYh1fkeX2FNYrwsUBIsH+12/aiHUbN1hfAinQSCqEjjE88sgjePQ73+krOnL+1b/7B6srCyhaSFFkQLZt22bGQ/cEGncgOPc9cGgrJQ/04+8qYDFpoaJVJR1yLORcdHbLjAs9gvrWOJPoMbWU/K1vP4qHieu3H3sM3//hD/HIt7+Nez/3OdI4bN+hsByR/FvJsPfw4SPWVoplRaElaasIwDwV6XP99dfh7/7+7zFm7Fi0a+mXc9RK1SaGU//25JPYuX271bd+9GIbfRZ/RHevRHUln/RecxCtLGpwaWSKIX40dyaxaet+up4IJpUX4YrxI3D97An4myum4I45F+DTc2fg7nmzcNdVM3DX3Gm4a94Ufp6Ee+ZMxKfnTMGHL52Gsczu9xxtworN1WijS9CLZpmWWIMqNMhiVGEQl00ciUq5Ud6X8ugsldKuGL3QliPNaKBbsYReyLkgRg1mJ3XNLIonnIrTRVBNTol0MRk5k9b97rvuwje+8b/s+IAsp0Ge5dRFYZTFv2wfp5vVITotNCQYAyf42RhFDEwBXMFSa/MU7MBbhdIz1TWceDWmMizRVUX1ZU2tPds5y73OMrG8hFy/GCKvuJyJpYRH38VIuoI9d+5c3M55XL1oIa6aP6+vKP7+2G232fcdNLaUXP0phNywfj2atXQr3N1xPeh/54DmKHyVB2VY3/Zo8oo2Rr0i667+n3/+BTumoZPDAs3v2sWLcRsTbl3n06MsupaecO4cLKBH/NhtHyPO802oOXGjybFjx7B+/TrbxBNfDS/iabh6xe758SFa9y9S6SqZe+i+DJnC3tVU0J/+9Kc4SCXVfSXyxjMVNrc5cF5pFsmi5md8ZRksXfZFJdbBkZOd+PPOGoyYMhlVFVGUMS4vjIpRTkUJKvNyWmfYMm2EV31nTCFSnH32UKE74lkyoA2x1lbMu/gCVEXpeSREFHgJvjYJ9bM7jQzZ/ri9DquPtTFZJ8LsNEABL6CilJFQN80YjZumj0Apxwi78iuxVFAndDKJFLZv3Yp1ZLgEio/7QMt2WklRci1XPGbMWFxAF6nj4kYsTtbCCYKOnS97fRn27dtnExODTPBJKK2ceQIkRgW0KMCr2l5JBs8nY7PpLDZu2GDfsXC8j7ohM/TmNKAY+Kabb7bvDZxk0vz8c0ss3tU8VBYtXGTnuBTe/unPf7LvQ8gSS9hDFPQ5zI90iDFfuAXCS+Me2L8fa5h0a21eIGWYMnkqFrJfhTTyaEMlcLqv4/krV6y0Q4iuCvHVP5fBwiN6zSMdmhob7MtI4bCW9p0j3zr+PYNhVh8wJCeSVnScY/fOXQzFNpsnkwDL+Cj/u2reVQyVdhOPFXYsP00lLaanVYg5bdoFrKm+cja/VatXM8SrMbpJyJXIFxYU4frrFhv/X1+2jAl6j9WX8PvdhR3vpSP9gp7eHnz89o9jKnMcM3S8b4qRZocSupZEGiG6FRGul52d6IrhBBWmtSeB5niMgh8zxApoESqppWMZUowrL8WoyiKUMsGQHdTQKca5pRRO/YyO4nZNXCCyqsT5cV1DL57ZuAd12QDi7E8nXX05KiLjqsvLC/Cpy8ZieinzFcowDSo1nhaX/aj/ABVUS54SKE3YCO5CkjjasmekwCyxJuo87q/jgYRGIUyKnkHW3JTM7csEKA9v57O9sT4jjOHZnFZIK2JkrqyLC6rvgdsqD3wWG+vIu0K4WG+X4WFPKNxh0k2WXh6wJ9a/1Kq/WqbVWTCFDoL8vrVH44EERAJnNfgvRC8U8Iccpgu0hn4aUOxvYYsLHm4OKExy3xLkYQsKixnHx21hQjh4Cq6VqoHK208fdaL5JSjcsuLmOXjPknHiKNztWD2r6rlAuYj46gi38JKV789VNH2hKhqqrmhoiwBue4eJ6rF/Pt4nrQwWacXK4z+Lj1aGBpLhA6MqfS3Cfs6fYdX2Iw04ROvf3pWiG/cjyfpZCpo15KQCFChZMEUFY8sKMHNUGeZPHIHJRRGUEUOdoqTsUvs4jhAWIi5O+rp4B4Xi99v2Y/mJLvsxaGJFJBlm0OeVZuL4wPRRuIWh3DjSQV5JuYqOpGjrS5uNsupy+cKnb0LsP5NJ2limEBIg3R8KiKNO0wrMg7Cei56Dq/tXIOGQEMsrCIz5akOwVRy+rKY7VL4s5d8X9CmYrBUrZtLOEQeBzYU0FT7GeBUXf1URTVVnoLA6oHDVA6et6rCt2pvUCG991sdT258O8sfSAUAXHQfM4tJTcQ62iWaKIfw0rAbKH6dfMdSnhF8Ka8A2Ni/SUsqmVqqjYvfZlXlkPtcsRXvR3Dyz/rnjCAeFcaqnb3FKdQwPgslg31aAV9+hsxRDtHUMh1ufLiiX4Bud4G9gnLh0xz6sZwLckg4jFSxkNWo+5cfiMbbxGJNjGIGI335LKpyJoTjWjWlFIVw+phIfuGQqRkVCNglvKJsQm8hYqR/x8RDH+8mbB7DlZC8C1FgRwM+HuUQnxhX6cM9Vs7BwdBlDLLXXurfTllF5H+EM3IvlCcRP47nzOwOogtuQICVR/OmBs/vsMomFFsTuC/oUUWC3+58J+vByoa9uPphQEVzl7EPYLqKxci+9c+5LEOz/GOHHwf0L8hXjVHD7duHtKoawGDCKzYHWn0L+VhRDIIVXHduXcQ2cDIJomxEvXEuvz8FA2BQjk1NUoWE5pvrXc3cIh8ZOHwLh7fTQjwN7t6spjD6zjacY+ux5YoGvJ5nO6Qske5PA/1u7B7ub25zQJlRIt1bIXiggaXYkbVYDYiaGKWdIK6ahpHMqCNFqBLRnwNBidGkxLp8yFp+YPcbyELFe6DECNesv9NSXouBX64FfvrkDvaGAfQlKT5g6sq9OXD9uJD5z5TRMKAojTEJp2ddquO7UAxGhX/g8BnifzwQijNNWPavYHN33zmgOuF9V4RsXhzP1P0AgCH24uaDnEipV6+t4IAgvz1sMBXoy4OkZFWMQnL7bU2CgYrDpoKnZ3AbPd0gYNE/PMAjUPr+LvGe67T2SchivWN/j92DFyJ9cftuhQB7QqzV4Xr44/dHmpjie3bgL++MZ9NK9hSm9PibISDhWSm4mRG2QcuhroPb9CWbFSVZMKQGgpmkuOuNioUUqgyIkMDocx+UXTMDsKVMxht4lrH6IgJQjwklqx/xPBxN4YdMOhMpLGCppe0XbgQyq0jFMCqRw51UzcfXYcpSKKKSC5zHy4e0phighV3qeFMO7959dMc4Z3rliCCQbfxXF2N3Ykfv56mrs7ckiVKYj2d2IUggnFBRjYlERRjC5jhREqBg5+zE1JTRd8TiaertRzwTpeDyFHgp4RorDBE8uVYcEM7kUEuxLq1qFvhDGlFWiMlpk/ej/5+vsakZ7Ko6GTBBd/iCiITq6nBJSJp+cXCAVQ2GmDXdccxFuHD8ClRxb/0mN8Gcg4zpFB4ZWjHOB86QY+XAaxRCcaSYenn3wX0gx8uE9U4xnV6zOvVrbilzVGFSWhjG2ogQXjB6F8YVRlgAor5b06uunbqpkS7dddCj1vUzSjzWhtrENJ1q70J7MIumPMAwrQIbeRP8vhpbbfIwjw/I82mHXZxJJcaSPeUg6FAXDOZRGw0SOAkpF0WZgMN5NL5PAZ66bhflVZSjiePJUmoEUo3/6g6FPgt3r6UCUGKgYHqjlIDrl3WD9c+rbg7PVJZxG2ry73nVwTwM+k2bnDG+har5ivIVmQ8CgOeYbi0HKN9iQ5D8drBge6foNY3/bQb2eCn2Kkd/KAd8Lq1bmYhTOyrFjMXn0GJQyRCpgtTDlSx7C6K3C9t5biZ7uS8R1xONoVwL7Gtqwt7HD/iOZk/QiCXoNfyjCuJB1tRTLVvpKrM++20FBZO5i/zeflIH9hcxKMG+hFwolUxjL0OvaKZW4cdYYjKXS6NcutCqmugMDqYHgMbKfUEPDYEsoOFub8wWeqr8FnzAM7xB8x9qac4UlJRYC2X4sBVDrSfr/LkwbXVk5VWT4kOGTmKY8Q99ra6aWHGhpx86jDahuakVzkgl1MAq/khbWSbK2loSlDIFsEH5+0E/C+Bh2BbL0Q8k4SsIBTCsuxvxJo7FgcjlGR5z9EamPTt4OK8Yw/DXAF8tmcoq17DhDRvvLOTuYRSkxZfBERUoyUGzc5UNyTYzTr6hm2KaXlr8jnkR1Swc2N/biaFsvWvR1QtbRDrl+jkdJZSgdQJC5CfxphmhJVBUzdKsoxgUjyzGLifisskKU+Z1U3G+BpLyFIxpnEpChBP5cYVgxhsEDXzqTydn3tbWaxJet8TJjVl4hhkhUxJChwmDF+nQwTjsKZJZKIeVQVKSl2OZ4Fk09MZxo70JdWxfaYgl0pzKIMVxiOo/SSAFGFEeYlAcwZVQxKoqpDAybijlYCftUkq69CY1gWLgJ5vmV33NRvHcXQW/E8zrt/2Lgo5dw1kClBaYBkj9Z/37F8MoAcHODvjpuBd3TW93Xzre61i+DtDPB7s1kmIwznNLKFGtFAgEUUQkLOHARs3u/wirWV3tDxfpUXuJcnYSH4F7OD2hmZwNHgYfhPysA/x89Ln8XaHTkVAAAAABJRU5ErkJggg==;" vertex="1" parent="1">
          <mxGeometry x="629" y="576.29" width="118" height="27.41" as="geometry" />
        </mxCell>
        <mxCell id="z40fJ3ub48EkseXWyAoc-10" value="" style="shape=image;verticalLabelPosition=bottom;labelBackgroundColor=default;verticalAlign=top;aspect=fixed;imageAspect=0;image=data:image/png,iVBORw0KGgoAAAANSUhEUgAAAIQAAAA+CAYAAADqFbO0AAAAAXNSR0IArs4c6QAAAARnQU1BAACxjwv8YQUAAAAJcEhZcwAADsMAAA7DAcdvqGQAABFuSURBVHhe7V0HdFRVGv4zJZlMeiU9JJCEpmLFvqCurF0X8YiFta0F67GsZUF31WNZXbGubVFQFFBRQVDEVSkKiIIgPQQC6b2XKZmZ/b//vQkzMQmZScLJnPM+fDDlvfvuu/e731/uvWOQi0EaNKjQqf9q0CDQCKHBC/6bDL7M5XSR02IhV4eDdKEm0gUb1S81BCr8IoTTaqPWHXupvaiUbFV15LLbyZSWRKEjMsiUnkKGqAj1TA2BBp8J4bJ3UMP6zVT1yVfUsn0v2RsamSEuCklOIHNeNsWccSJFn3Y8BQ+L59KD1Ks0BAp8IgRMQ9Mv26j07YXUvHUXmwur+o0KJoCZVSJxyp8o7ryJFBwfo36hIVDgk1PpbLdS+XufUvMWhQz6MLOoQtjYXDLGRsk5bQUHqWb599TMxHF1dMhnGgIHPhHCwQ6k5WApOW02eR8+LofSbplGmffeSDGTTiVjDJOCVQKkqF+zkaxlVXKehsCBb4RobScnmw0BdzyUIfyoPIqacAwlXXkBxfxhgjiUTquVTcpOaljzszigGgIHPhECPqIhKpyC9HwZux5tew8oisHmI2zUCEqadhGT4iQ2JWFkLalglfhJzsG5GgID+n8w1NeHhT4ynKzFFdS+v0hIYC2tJHttPYWkDKPgxDgK4cgiOCGOOhpbhBAdDc1CnohjRms5igCBT4QIYokIjouhlm17yF7XIE4jOt7ZbiFT6jAyxsdSSFKChJwd9U2sDoXkaMN3iRQ6PE2RGA1DGj4RAjByKBmSlkTtbArsdY3kcjjIUlhCDiYFPg8GKZgQISmJQpqWHfnie0SfcizpTCFqKRqGKnwmBGBiE2GMjqTW3ftZCRrFR4AvgaRVaGYqGeOi2XQwMfg8W3k1teUXkj7CzFFJnlqChqEKvwgB6TdlpJAxIpwsRWWSrUTSqv2AohRCilgmBatFaGYKWcoqqHXrHorgiASfaxi68I8QjCCdTkihMxrJUlzODmSTKAQcTVGKrHQyREcIAaAUlqJSamcViWLTAV9Ew9CE34QAgowGUQCX00mWknJyNLWQ02ZnM1ElimEemcmmIkwSVsHsbFr2FYFJTKRktQQNQw39IgSgCwmm0IxUDiuDyVZZLUrhaLcyKaAUDgrLyyJ9uFkhBUcorTv38mfZFGQwqCVoGEroNyEAfWgImdKSSW8OJVtFjeQmnG3tZK+pE9MSlptNOj7HEBkuDqcxKlJJbmkYchiQXkGqGs5k1ElIYV8oCuBywIxUUM2K1VS3eoOcBzUxpSezOujlvYahh34RAjPn6PSKhcup9pu18j520gSKPedUyVfAuWw/UEpNG38TPwPRSZCeyaA5lUMWfhPCxc5j47rNsjaictEyai84yASws0mIpehTjqeI8WO444kcbDraC0vIyuGphqEPnwkBFUBoWfnJV1T27sdUu/IHUQmogYx8XRCZstMp8oSj2JGMZnviFGezadMOtQQNQxm+EYLJ0LargMrf/4wqPljCnbydHM0t8rliBhRTYOCoIiQ1SRxIwIGJsKoaea1haMMnQrSCDPM/p+pl31I7mwBRhU6wf+B2DfgFZjfhRAI6o0EiDA1DH30jBCtA6+59TIYlVPfdepnWFjFwEwCQ1x4feLzEpBamxwcDcFYdza2SLbXXNqif9g+YxXW0tinK5wEMACTe3Af8KM9zUBck5BBhdb22V/D5KMvrwPJDdxn8r5TtcPReLs7jOiIXhGmE1l37qGXHXvlXssms5qhfb2UcfpEtVxaLXMrmLWYyrBMnEUml0OwMyUjiJsQlxF94FqXeMJXMuVlS8bpv11HxK++xQ1ksi2eGP3IbRR43Ti104ICZ1ObN2zm03UjBbKKw4tuMvIdJUSdfgMZCDqVl5172k6oo/KhcCh8zkoKMRnmmhrW/SMO6XNzhDGN0FEWffoKynpSbEQ2PtSJBrI6mzFQJsZGb6RV8HZzuxvW/cqdzZ6kDC9sZIsaPlhVoHS2t1LanUNraPCJTyvUEyGOvqZeIDvWDz2bj904mNZ4JYb4+MkKZcExOlOtNw1O57N/ng3pNTKEwrGmAz1Dz9RpZFANTEDVhPMWde7o4k5gCB5B7iDhurPgNtqpaql/1EzVu4IfkMlCBhIvPGZT9GvbqOqpcuIyqPv2aWnfkk7WyVhxZdASOviTARGUamyWLWvvND1S1+GtqWP2TJNciTzhaFA6NXvrWQipn36nxx03cgZu54Wtk+SDma5CHqfz4S6r4cKmsTMdgwaJkmE89m05ZINRpUw8B927atI0OPPO6EA7EQLthIIKQmFWG8mHbA5YkYr1JaFaGQhwmUwfXu2Xrbnbu11Ltl99T40+/kq2sUurrDvGhGrbqGtlL07xlpwxwXIepB0OY2WvxUo+thUIwbQ1lqOEbQcbQMFEnH0upf71SJqmw6roTeFj+D6Rp/nUnNazbJKMXHWLAfIbqYA4o0CA8elr37BcS4H71qzfQwdlzmMSfc8NukcZEo/cEKB4aCM9Y+iZ3+LxPhVhoMCwWdkK6VSDrivvAJOCQBueoCnBwPaw8Oq1MEoz4muWrqPi196n0vwuplgdT684CKRN17gqUg4GDTkS7o63dSqF8rxOz6J5A5EKkHFtNHdWyEpe8tYCqP18p58aefRql3jyNMu+7ibL+PoOyH72Tsh6+jTLuvp5SrptCkSceTXYuB8Qtm/MRNW7cQh1NXC8V3RICDWjjqKBiwVKq/Wq1VBazmshEpt9+DUUcPUrmLrzAdXc0t1HT5h1U981aWUCDBwlOjKewcTmkDzWpJw4scA+38ypwuoQElYu+oIMvvkNVS1aKlKPD8J0bWPwLhWtYs1EapuTNBbIBCQTpBJNcSNAHwIzCtLhncmFibBXVTIa1VPTyXCr+z3wm3SoxR/b6xl5J2hd0tLTxoNtM5e99JgSMmXgypd99HaXPuIZJcaqYbqxgM7DCBCcnSJ9BpTPuuZ7Sbr2KwsbmSJSIaBHbKoSEjG6f1oGb/bBJHkYcJMxHjM2ltDumkzlvhEiNsFQOBR3MYFSwbM4iqvt+AzmZyahQ3OQzaNjl50vjDhq6KRr7TttYOeDH4Kj7bgNZSstluR/8hGYmbvncxXTwhXeohknfs0Paz3rzSIZZrWcTVDT7HTrw7JtU88W3Yp7E3EJx/CAHfJU6NhPwF2C20m67WtauHm5aAGYUu+tS/jKFwkaPpGY2NzBFMPPA7wgB7xmmomLRMmW0INGUMkyUISxneOcNRfkO8YFat+VT5UfLqOnnbSJr8BdizjyJhk09f9AiDEDprp47DXVp+OFnOvjcW1T27mLpmIpFy+nA829T5eIVZGV7252MAyh1IHmM9mz+dQcrxjza/8Rr7KusYMUoEF/kcL69J2Se6GCZRBBQYHSwT23MDwWHNZxVAm5AK/c3ohLAmxAwFdxAVZ+tFLuKC43snabcOFVsjygDVxzOUgcW2aoyA9iqazvtNeQzkh3MYVdcIItoBhfcY107jesNbxpy6Z5mh0xXfryc8h94hkpe/0DUA6l22G9Mz2Mxj5fpcaMfhBCnjQeGgaOQTqeS+x1+FvyUolfn0Z57nqTqJf8Ts9xnSB9YxGfSm01k5OjBV8AUwgdEvRzsQ3Q0cbTI8CIEPmxgR6x2xRq5KRoo+swTKf78SWKrsWML4Uz9qvVU8saHCqu6YTaSUOHjcjnczFY/ObJAvUe98hil33IVhbMsoj6ov2Ll+C8c3DkYHQi/Ei+bzBJ6uYTH3gAb/GcEsrXYq5J++7UyoOBYe/lePNLtPJCQ8MNg7CuCWLUR6mJ1OxxEDF6fCMWAWsEpRXQEH0M2ZzM6CYHRAoenYuFSmc5GA2LldNqtV0sDowBszyuY+W8qeOwlauDQy8sB8wBGhBE3wIgYVCjle92GXyMzijxA0rWXUu6LMymZ7aVpeJoQACMDqoH1nvHnT6QR/7ibMu69gaOn8WToGgn1s/qw1+acLEpipcx59kHKnnmHspEpggkKtfW3ffgZTNkZktdB/gGhMsy8ksxSz+kJUBce2DCd8KPwHoufkVcCOgkBT7Xyoy+pfV+xvEciI2naxczqGKpf+zPtum0mFTz4rMTgiM97gyGcw0yW6yMDNKpHw0IA2KF0twuYn3bzlTT69SfFkYL3DUc359m/cVh2O0UcO1YiqJ7RT1YA3PEwX7HnnEYjn36A6/IEJVx4trIXVg1bfYU5K40SLpokSox9Mvsenc3E+JEHaRurjaqCcvDJ6muJHqvrqGL+Uip+9X2yFBZzW5wp7WGMUfpLCCE5B465G7jjcSHsSijbfn1YKO2+63Ha+8DTyo5v6yGfQUZbDx4t7OYRW13dTXuK146GcIM7BL9fkcrh1ijujOxZd4qEd+szdMUA8METaDeEgMgRjHnrKUqePkX52QRficEqETF+LGU+cDPFnzdRzPf+f77EA3cWh9AfSlQlzmJhkfx0A0LeA8+8QbtvnUnFb8xn4lhYQS+j1BuvkOynG0II5BxatueLlADixRaVUeFTr1Hzpt/ECXLH8Fg0izR1zr8eorAxOdLYXsBoACFYkgcfzHqXErbBrroPGRFdwfWCKUHjg+hd6y0kUpNNcnCDSzketl3mEsAQXMuHzGc4urnX4cB1BDFCOWrL4Oht3IIXKeOu60S2JZ/BAw2KogtWHGKsTZXwH6Pc49lgduCnZd5/E+XNnkVxZ58m80xlcz+hfTOfp503PkTbp99Pu2Y8SvuffIWqOdwlfrakqRdQ3kuzhAzYXOXZFkHcEC6kWotenisZxk6gYd2JHH4Juxc7cQJL3VkyV4BK59/3FDVu3Ko0nAokZ2Az02ZcPSip6q6At43l/V39GSzQ6WtSCUAcDucMERTmIqCSBn5mcy6H2rD33Ba4j2e2UTqVfRUde/qIYhrWbiRLcUVnA+vZdCI3EHHMKHnfI7g8jFhEaqgDcgzIOGL7I9pZ9tGWVMgyAkRPv8v68vXI+8CUo34wC9ggZauF02gVXyYkKY7NJzuPHJGgLxGduCMwTwR1tLW7ICdFL8xRHtYT/GBQhNiJJ7MqTJJl9cJc7nSEPHvufvx3hDCwXUxmZw72uk+S3F/wvd2jxxPSiT4Ao19JCzNUBRDF0cP5Uz4WhfC6D75n0vG5qAPI6XKgDPUC/hxt0Nd2gEohlEcWFSrW2WHuZ2RFFJL3RnSUgbrws0hdMKj5fB0TC20i6XY8Xw/Q2TEydu2TTKMbeEgkOhIv+SPlPvcwpd85XVZABSfEK2GTFMg36qZcMA+zaL07agMIdJz7YT0OX4GGwoiXA53ICiEd4vGMYkpE0t3HocZFm0k+g59dcg84ONz1ZVCgs3F/XNtJBsD9jPjscKrH3+P5pR9YCaQePKjxK4FyfS9kAHSW0koON/OFWagQiJBw6bmUNesOyXlHsfMFmVKIoF7FkBlg70EpQAXEY4XJ0RBw0GG9AtZIwrlI/PNkynpkBqXecAVFn3KcfAZ72i26SLQbCKW0/ZuBCx2mVeHAZN5zPSVfdzlFn3EimTJTRLp6R/eEwI+KQCU0BCZ0mBhJvuYSmT4NHc4ec19tXjcKAZMDhTCoSQ4NgQdd2JiREv8eXhG8gXgYf7wcS3asFGdKU4hABbukfjp/3SgE4l0QQmb2NAQk+p656QoQogsnkDCR/LyGgEU/CNH5VyeQtNIcysBG/xSiC8Sh1AgR0PCbEDLJ4skJ9kWQtoZKaAhcDJxCMCFkSdYgra7WcGTgPyEAD5VAZIEJGUwxawhcDJhCCCGwU+pITWppGBT470PIMi31DQMzbDJTiBlADQGLfpgMsOEQI2T6OCTYe9pWQ8DBf0KIQngQAusD4D9o094BDb8Jgb2FWJnj3sso5kJLWQc8/CYE1hrif7TmXqSJ1UKDtaFXw5GD34TAVHfilMnyu5T4/QfsxdByEIGPfjiVJIqAVVYghTkvi51KzWQENoj+D8hWM1jhBZI2AAAAAElFTkSuQmCC;" vertex="1" parent="1">
          <mxGeometry x="240" y="566.5" width="100.06" height="47" as="geometry" />
        </mxCell>
        <mxCell id="z40fJ3ub48EkseXWyAoc-29" style="edgeStyle=orthogonalEdgeStyle;rounded=0;orthogonalLoop=1;jettySize=auto;html=1;dashed=1;" edge="1" parent="1" target="z40fJ3ub48EkseXWyAoc-26">
          <mxGeometry relative="1" as="geometry">
            <mxPoint x="200" y="471" as="sourcePoint" />
            <Array as="points">
              <mxPoint x="390" y="471" />
            </Array>
          </mxGeometry>
        </mxCell>
        <mxCell id="z40fJ3ub48EkseXWyAoc-16" value="Arquivos" style="image;aspect=fixed;perimeter=ellipsePerimeter;html=1;align=center;shadow=0;dashed=0;spacingTop=3;image=img/lib/active_directory/documents.svg;" vertex="1" parent="1">
          <mxGeometry x="131.5" y="380" width="33" height="50" as="geometry" />
        </mxCell>
        <mxCell id="z40fJ3ub48EkseXWyAoc-17" value="DB" style="image;aspect=fixed;perimeter=ellipsePerimeter;html=1;align=center;shadow=0;dashed=0;spacingTop=3;image=img/lib/active_directory/databases.svg;" vertex="1" parent="1">
          <mxGeometry x="123" y="300" width="50" height="49" as="geometry" />
        </mxCell>
        <mxCell id="z40fJ3ub48EkseXWyAoc-18" value="" style="image;sketch=0;aspect=fixed;html=1;points=[];align=center;fontSize=12;image=img/lib/mscae/Docker.svg;" vertex="1" parent="1">
          <mxGeometry x="414" y="230" width="73.17" height="60" as="geometry" />
        </mxCell>
        <mxCell id="z40fJ3ub48EkseXWyAoc-20" value="Web App" style="image;sketch=0;aspect=fixed;html=1;points=[];align=center;fontSize=12;image=img/lib/mscae/Service_Catalog_Managed_Application_Definitions.svg;" vertex="1" parent="1">
          <mxGeometry x="124.5" y="460" width="47" height="50" as="geometry" />
        </mxCell>
        <mxCell id="z40fJ3ub48EkseXWyAoc-21" value="API" style="image;sketch=0;aspect=fixed;html=1;points=[];align=center;fontSize=12;image=img/lib/mscae/App_Services.svg;" vertex="1" parent="1">
          <mxGeometry x="121.5" y="553.7" width="50" height="50" as="geometry" />
        </mxCell>
        <mxCell id="z40fJ3ub48EkseXWyAoc-26" value="Bronze" style="image;sketch=0;aspect=fixed;html=1;points=[];align=center;fontSize=12;image=img/lib/mscae/Data_Lake_Store.svg;" vertex="1" parent="1">
          <mxGeometry x="364" y="546" width="50" height="39" as="geometry" />
        </mxCell>
        <mxCell id="z40fJ3ub48EkseXWyAoc-27" value="Silver" style="image;sketch=0;aspect=fixed;html=1;points=[];align=center;fontSize=12;image=img/lib/mscae/Data_Lake_Store.svg;" vertex="1" parent="1">
          <mxGeometry x="470" y="546" width="50" height="39" as="geometry" />
        </mxCell>
        <mxCell id="z40fJ3ub48EkseXWyAoc-28" value="Gold" style="image;sketch=0;aspect=fixed;html=1;points=[];align=center;fontSize=12;image=img/lib/mscae/Data_Lake_Store.svg;" vertex="1" parent="1">
          <mxGeometry x="560" y="546" width="50" height="39" as="geometry" />
        </mxCell>
        <mxCell id="z40fJ3ub48EkseXWyAoc-32" style="edgeStyle=orthogonalEdgeStyle;rounded=0;orthogonalLoop=1;jettySize=auto;html=1;entryX=0.477;entryY=0.033;entryDx=0;entryDy=0;entryPerimeter=0;dashed=1;" edge="1" parent="1">
          <mxGeometry relative="1" as="geometry">
            <mxPoint x="460.9" y="428" as="sourcePoint" />
            <mxPoint x="460.00300000000004" y="533.96" as="targetPoint" />
          </mxGeometry>
        </mxCell>
        <mxCell id="z40fJ3ub48EkseXWyAoc-41" style="edgeStyle=orthogonalEdgeStyle;rounded=0;orthogonalLoop=1;jettySize=auto;html=1;dashed=1;" edge="1" parent="1" source="z40fJ3ub48EkseXWyAoc-3">
          <mxGeometry relative="1" as="geometry">
            <mxPoint x="680" y="530" as="targetPoint" />
          </mxGeometry>
        </mxCell>
      </root>
    </mxGraphModel>
  </diagram>
</mxfile>
